<svg xmlns="http://www.w3.org/2000/svg" viewBox="0 0 936.32 206.62"><defs><style>.cls-1{fill:#fafbfb;}.cls-2{fill:#000072;}.cls-3{opacity:0.3;}.cls-4{fill:#fff;}.cls-5{fill:#0d5963;}.cls-6{fill:#ffc200;}.cls-7{fill:#70533e;}.cls-8{fill:#f46cb0;}.cls-9{opacity:0.2;}.cls-10{fill:#ed2a84;}.cls-11{fill:#91142f;}.cls-12{fill:#c6305f;}.cls-13{fill:#a82044;}.cls-14{opacity:0.35;}</style></defs><title>happy-cat</title><g id="katman_2" data-name="katman 2"><g id="katman_1-2" data-name="katman 1"><path class="cls-1" d="M426.25,146.33c-1.94-3.34-4.17-5.58-7.57-2.71-5.52,4.68,1.6,14.62,3.61,19.28,3.2,7.41,6.14,15.7,1.72,23.41-7.41,12.9-27,12-37.74,4.24-4.36-3.12-8.3-7.92-8.65-13.5-.18-2.82,0-6.38,3.38-6.85,5.11-.71,3.7,3.77,5.08,6.52,3.75,7.44,20.17,13.23,25.7,4.88,3.57-5.4-3.42-13.32-5.81-17.64-5.37-9.65-8.42-20.36-2-30.14,8.46-12.82,24.6-13.55,35.5-3.11,3.35,3.2,6.32,7,5.3,12C443,151.39,431.17,153.75,426.25,146.33Z"/><path class="cls-2" d="M409,196.3A32.71,32.71,0,0,1,386,190.87c-5.29-3.78-8.5-8.81-8.81-13.8-.2-3.1,0-6.72,3.66-7.25H381c4-.55,4.41,1.94,4.79,4.14a9.22,9.22,0,0,0,.69,2.59c2.24,4.45,9.24,8.37,15.61,8.75,4.24.25,7.58-1.14,9.41-3.91,2.71-4.1-1.14-10-3.95-14.24-.72-1.09-1.39-2.11-1.88-3-6.8-12.24-7.44-22.23-2-30.54A22.51,22.51,0,0,1,420,123.23c7-.79,14.2,1.83,19.79,7.19,3.28,3.15,6.49,7.07,5.42,12.37a10.72,10.72,0,0,1-19.26,3.76v0c-1.39-2.41-2.58-3.58-3.86-3.8a3.92,3.92,0,0,0-3.12,1.19c-4.22,3.58-.55,10.54,2.13,15.63.64,1.23,1.2,2.29,1.59,3.19,3.19,7.38,6.21,15.91,1.7,23.77-2.8,4.86-7.49,8.14-13.57,9.46C410.19,196.1,409.59,196.21,409,196.3Zm-28-25.71c-3,.44-3.18,3.5-3,6.44.42,6.74,6.08,11.48,8.48,13.2a32.15,32.15,0,0,0,24.12,5,19.19,19.19,0,0,0,13.06-9.09c4.33-7.54,1.51-15.52-1.74-23.06-.38-.87-.93-1.92-1.57-3.14-2.65-5-6.64-12.6-1.94-16.59a4.62,4.62,0,0,1,3.77-1.36c1.95.33,3.37,2.4,4.39,4.16a9.93,9.93,0,0,0,17.83-3.49c1-4.92-2.07-8.64-5.19-11.64-5.43-5.2-12.41-7.74-19.16-7a21.68,21.68,0,0,0-15.74,10c-5.3,8.05-4.65,17.77,2,29.73.47.85,1.14,1.86,1.84,2.94,2.94,4.46,7,10.57,4,15.11-2,3-5.59,4.52-10.11,4.25-6.62-.39-13.92-4.5-16.27-9.17a9.77,9.77,0,0,1-.77-2.81c-.39-2.29-.67-4-3.9-3.5Z"/><g class="cls-3"><path class="cls-2" d="M439.49,130.71c-.21-.2-.43-.38-.64-.57a6.8,6.8,0,0,1-3.28,6.6c-7,4.84-15.66-5.69-23.26,2a12.81,12.81,0,0,0-3.42,10.67c2.51,19.22,20.44,29.49,2.34,32.91-6,7.25-21.52,1.59-25.15-5.62-1.38-2.75,0-7.23-5.08-6.52-3.41.47-3.56,4-3.38,6.85.35,5.58,4.29,10.38,8.65,13.5,10.78,7.72,30.33,8.66,37.74-4.24,4.42-7.71,1.48-16-1.72-23.41-2-4.66-9.13-14.6-3.61-19.28,3.4-2.87,5.63-.63,7.57,2.71,4.92,7.42,16.79,5.06,18.54-3.62C445.81,137.68,442.84,133.91,439.49,130.71Z"/></g><path d="M404.63,198.72a34.77,34.77,0,0,1-19.82-6.13c-5.81-4.16-9.34-9.76-9.69-15.38s1.57-8.92,5.54-9.49a9.11,9.11,0,0,1,1.34-.1c4.79,0,5.51,4.19,5.82,6a8,8,0,0,0,.5,2c1.87,3.72,8.34,7.27,13.85,7.59l.85,0c3.07,0,5.38-1,6.67-3,1.94-2.95-1.61-8.35-4-11.92-.75-1.14-1.44-2.19-2-3.12-7.22-13-7.83-23.7-1.88-32.73a24.49,24.49,0,0,1,17.84-11.32,23.94,23.94,0,0,1,2.68-.15,27.27,27.27,0,0,1,18.8,7.92c3.48,3.33,7.31,8,6,14.31A12.45,12.45,0,0,1,437.17,153a13.65,13.65,0,0,1-2.61.25,12.25,12.25,0,0,1-10.4-5.56l-.08-.12c-1.32-2.28-2.08-2.7-2.34-2.77l-.52-.14-.05.26a4.05,4.05,0,0,0-.87.59c-2.93,2.49.41,8.83,2.62,13,.64,1.21,1.25,2.36,1.67,3.34,3.39,7.85,6.58,16.95,1.59,25.66-3.1,5.4-8.27,9-15,10.47-.62.14-1.26.25-1.9.35A32.66,32.66,0,0,1,404.63,198.72ZM382,172.63a4.75,4.75,0,0,0-.66.05c-1,.15-1.39,1.41-1.22,4.21.36,5.84,5.44,10.08,7.6,11.63a30.19,30.19,0,0,0,17,5.18,26.24,26.24,0,0,0,5.48-.56,17.28,17.28,0,0,0,11.67-8.08c3.85-6.69,1.2-14.13-1.84-21.17-.34-.79-.89-1.83-1.47-2.94-2.81-5.33-7.46-14.15-1.46-19.24a7.07,7.07,0,0,1,4.55-1.91,5,5,0,0,1,.94.08c2.79.48,4.58,3,5.82,5.11a7.37,7.37,0,0,0,6.27,3.26,8.19,8.19,0,0,0,1.57-.15,7.55,7.55,0,0,0,6.13-5.89c.65-3.2-.64-5.92-4.58-9.69A22.32,22.32,0,0,0,422.42,126a18.7,18.7,0,0,0-2.12.12,19.61,19.61,0,0,0-14.22,9.09c-4.89,7.43-4.23,16.18,2.07,27.55.44.78,1.09,1.76,1.77,2.8,3.07,4.67,7.71,11.73,3.95,17.43-2.23,3.37-6.09,5.23-10.85,5.23l-1.15,0c-7.41-.44-15.33-5-18-10.33a12,12,0,0,1-1-3.41,12.38,12.38,0,0,0-.31-1.46l-.1-.34Z"/><path class="cls-4" d="M422.42,121.48a26.79,26.79,0,0,1,18.46,7.78c3.38,3.24,7.11,7.75,5.88,13.85a12,12,0,0,1-9.69,9.42,13.34,13.34,0,0,1-2.51.24,11.77,11.77,0,0,1-10-5.33l-.07-.11c-1-1.78-1.92-2.79-2.64-3l-1-.28-.12.54a7.07,7.07,0,0,0-.76.55c-3.23,2.75.09,9,2.51,13.65.64,1.2,1.24,2.34,1.65,3.3,3.34,7.74,6.5,16.71,1.61,25.21-3,5.27-8.08,8.81-14.62,10.23-.61.14-1.24.25-1.87.35a31.8,31.8,0,0,1-4.62.33,34.19,34.19,0,0,1-19.53-6c-5.68-4.07-9.14-9.54-9.48-15s1.38-8.42,5.11-9a9.48,9.48,0,0,1,1.27-.09c3.85,0,4.85,2.81,5.33,5.57a8.24,8.24,0,0,0,.54,2.13c2,3.92,8.51,7.52,14.27,7.86l.88,0c3.25,0,5.7-1.11,7.09-3.21,2.12-3.22-1.39-8.56-4-12.49-.73-1.1-1.42-2.14-1.93-3.06-7.11-12.82-7.73-23.36-1.89-32.22a24,24,0,0,1,17.47-11.09,23.19,23.19,0,0,1,2.63-.15M403,187.71l-1.12,0c-7.25-.43-15-4.85-17.61-10.06a11.47,11.47,0,0,1-.92-3.27,13.13,13.13,0,0,0-.32-1.52l-.21-.67-.7,0H382a5.6,5.6,0,0,0-.69.05h-.07c-1.67.24-1.76,2.42-1.62,4.73.38,6.06,5.59,10.41,7.81,12a30.62,30.62,0,0,0,17.25,5.28,26.69,26.69,0,0,0,5.59-.57,17.8,17.8,0,0,0,12-8.32c4-6.89,1.27-14.46-1.82-21.62-.35-.81-.9-1.86-1.52-3-2.71-5.14-7.24-13.74-1.55-18.56a6.57,6.57,0,0,1,4.23-1.8,4.88,4.88,0,0,1,.85.07c2.59.45,4.29,2.84,5.47,4.87l0,0,0,0a7.92,7.92,0,0,0,6.67,3.45,8.51,8.51,0,0,0,1.67-.16,8,8,0,0,0,6.52-6.28c.69-3.39-.64-6.24-4.73-10.16a22.82,22.82,0,0,0-15.68-6.66,19.77,19.77,0,0,0-2.18.12,20.08,20.08,0,0,0-14.57,9.32c-5,7.6-4.36,16.52,2.05,28.06.44.8,1.09,1.79,1.78,2.83,3,4.57,7.53,11.46,3.95,16.88-2.17,3.28-5.77,5-10.43,5m19.4-67.23a24.55,24.55,0,0,0-20.94,11.69c-6.06,9.2-5.45,20.08,1.86,33.25.53,1,1.23,2,2,3.16,2.27,3.46,5.72,8.69,3.95,11.36-1.47,2.22-4.07,2.76-6.25,2.76-.28,0-.56,0-.82,0-5.36-.32-11.64-3.73-13.44-7.31a8.17,8.17,0,0,1-.45-1.86c-.31-1.81-1.1-6.39-6.31-6.39a10.37,10.37,0,0,0-1.41.1c-2.95.43-6.44,2.48-6,10,.36,5.77,4,11.51,9.9,15.75a35.32,35.32,0,0,0,20.11,6.23,31.2,31.2,0,0,0,4.76-.35c.66-.09,1.3-.21,1.94-.35,6.82-1.48,12.11-5.19,15.28-10.71,5.11-8.91,1.88-18.14-1.56-26.1-.43-1-1-2.16-1.69-3.38-2.13-4.06-5.36-10.19-2.74-12.41a2.69,2.69,0,0,1,1-.62s.7.22,2,2.54l.09.15a12.83,12.83,0,0,0,10.82,5.78,14,14,0,0,0,2.71-.26,13,13,0,0,0,10.47-10.2c1.33-6.58-2.6-11.35-6.17-14.77a27.83,27.83,0,0,0-19.15-8.06ZM403,188.71c5,0,8.92-1.91,11.26-5.45,4-6-.8-13.2-3.94-18-.68-1-1.33-2-1.75-2.77-6.21-11.18-6.87-19.77-2.09-27a19.12,19.12,0,0,1,13.85-8.88,20.5,20.5,0,0,1,2.07-.11,21.85,21.85,0,0,1,15,6.39c3.81,3.64,5,6.23,4.44,9.24a7.06,7.06,0,0,1-5.73,5.49,7.83,7.83,0,0,1-1.48.14,6.87,6.87,0,0,1-5.84-3c-1.31-2.24-3.19-4.84-6.17-5.36a7,7,0,0,0-1-.08,7.54,7.54,0,0,0-4.87,2c-6.31,5.35-1.54,14.39,1.31,19.8.59,1.12,1.15,2.18,1.48,3,3,6.92,5.6,14.23,1.87,20.72a16.82,16.82,0,0,1-11.35,7.84,25.61,25.61,0,0,1-5.37.55A29.53,29.53,0,0,1,388,188.11c-2.1-1.51-7-5.62-7.39-11.25-.22-3.44.47-3.64.77-3.68h0a5.22,5.22,0,0,1,.59,0h.1a14.29,14.29,0,0,1,.29,1.4,11.91,11.91,0,0,0,1,3.54c2.77,5.5,10.87,10.16,18.44,10.61l1.18,0Z"/><path class="cls-1" d="M265.68,142.26l9.7,47.5c-4.15,1.62-7.67,5.42-6.78,13.85h28.66l11.57-61.35Z"/><path class="cls-2" d="M297.58,204H268.24l0-.35c-.76-7.2,1.5-11.95,6.72-14.15l-9.73-47.64h44.11l-.09.46ZM269,203.22h28l11.43-60.57h-42.2L275.83,190l-.31.12C270.54,192.08,268.33,196.48,269,203.22Z"/><g class="cls-3"><path class="cls-2" d="M264.94,144.42l19.66,48c-4.15,1.63-10.17,3.1-9.28,11.54l9-.32h19.05L315,142.26Z"/></g><path d="M297.26,206.62H268.6a3,3,0,0,1-3-2.69c-1-9.2,2.88-13.68,6.37-15.82l-9.24-45.25a3,3,0,0,1,5.89-1.2l9.69,47.49a3,3,0,0,1-1.84,3.4c-2.16.85-4.88,2.61-5,8.06h23.3l7.87-41.73a3,3,0,1,1,5.9,1.12l-8.33,44.17A3,3,0,0,1,297.26,206.62Z"/><path class="cls-1" d="M330.44,91.47s4.69,19.63,23.32,23.73,47.49,20.58,35.56,63.19-75.9-6.48-75.9-6.48-40.23,8.87-54.62-23.86S282.81,60.45,330.44,91.47Z"/><g class="cls-3"><ellipse class="cls-2" cx="302.86" cy="100.85" rx="38.95" ry="32.2"/></g><g class="cls-3"><path class="cls-2" d="M345.72,159.72c-3.6,2.48-8,10.85-8,10.85s-4-4.32-46.1-9.39c-24-2.89-32.7-14.94-35.76-24.76a36.81,36.81,0,0,0,2.9,11.63c14.39,32.73,54.62,23.86,54.62,23.86s21.84,16.75,42.37,22.19C331.68,177.65,349.07,157.41,345.72,159.72Z"/></g><circle class="cls-5" cx="302.02" cy="82.29" r="40.56" transform="translate(-5.79 139.22) rotate(-25.72)"/><path d="M367.47,198.77c-21.54,0-48.93-19.33-54.8-23.66a69.47,69.47,0,0,1-21.63.11c-16.57-2.62-28.67-11.6-35-26-8.14-18.51-1-43.75,16.62-58.71,17.06-14.49,38.72-15.07,59.41-1.6a3,3,0,0,1,1.28,1.82c.19.79,4.56,17.87,21.05,21.5,7.1,1.56,24.67,7,34.38,23.13,7.1,11.83,8.25,26.57,3.43,43.8-2.66,9.49-8,15.62-15.73,18.21A28.47,28.47,0,0,1,367.47,198.77Zm-54.06-29.86a3,3,0,0,1,1.84.62c.38.29,38.38,29.17,59.34,22.18,5.85-2,9.72-6.57,11.84-14.13,4.36-15.58,3.42-28.73-2.79-39.09-8.51-14.18-24.18-19-30.53-20.35-17.66-3.9-23.83-20.11-25.25-24.76-18-11.3-36.66-10.68-51.3,1.75-15.41,13.09-22,35.8-15,51.71,5.51,12.53,15.69,20.07,30.25,22.42a63,63,0,0,0,21-.28A2.85,2.85,0,0,1,313.41,168.91Z"/><path d="M302,125.21a42.47,42.47,0,0,1-10.64-1.35A42.92,42.92,0,1,1,343.6,92.94h0A43,43,0,0,1,302,125.21Zm0-81.13a38.22,38.22,0,1,0,9.48,1.2A38.27,38.27,0,0,0,302,44.08Zm39.29,48.27h0Z"/><g class="cls-3"><path class="cls-2" d="M312.77,43a40.57,40.57,0,0,0-44.86,18.45c7.56,3.24,14.44,7.36,19.76,14.38,10,13.22,11.64,30.43,11.4,46.86A40.56,40.56,0,0,0,312.77,43Z"/></g><circle class="cls-6" cx="292.9" cy="117.86" r="10.06" transform="translate(-19.18 165.68) rotate(-30.63)"/><path class="cls-2" d="M292.9,128.31a10.45,10.45,0,1,1,2.6-20.57,10.45,10.45,0,0,1-2.6,20.57Zm0-20.11a9.66,9.66,0,1,0,9.35,12.06h0a9.66,9.66,0,0,0-7-11.76A9.84,9.84,0,0,0,292.91,108.2Z"/><g class="cls-3"><path class="cls-2" d="M299.21,110.42a11.56,11.56,0,0,0-1-.69,10,10,0,0,1-15.1,10,10.06,10.06,0,1,0,16.13-9.29Z"/></g><path d="M292.9,130.93a13.45,13.45,0,0,1-3.24-.41,13.06,13.06,0,1,1,15.9-9.41h0A13.1,13.1,0,0,1,292.9,130.93Zm0-20.12a7.06,7.06,0,1,0,6.83,8.8h0a7.06,7.06,0,0,0-6.83-8.8Z"/><path d="M290.41,128.79a1.35,1.35,0,0,1-.29,0,1.19,1.19,0,0,1-.85-1.44l2.49-9.74a1.18,1.18,0,0,1,2.29.59l-2.5,9.74A1.17,1.17,0,0,1,290.41,128.79Z"/><path class="cls-1" d="M361.59,27.49l-32,3.24a46.75,46.75,0,0,0-33-7.8h0l-28-19.27a5.05,5.05,0,0,0-7.64,2.53C258,14.54,254,30.25,257.72,45.85l0,0a46,46,0,0,0-8,16.14c-6.09,23.77,14.27,40.71,42.86,48s54.59,2.25,60.68-21.52a47.63,47.63,0,0,0,0-21.84c8.86-11.42,12.43-25.27,13.8-33.26A5.05,5.05,0,0,0,361.59,27.49Z"/><path class="cls-7" d="M361.59,27.49l-32,3.24a48.48,48.48,0,0,0-8.44-4.6,34.21,34.21,0,0,0,32.82,59.14,49.39,49.39,0,0,0-.65-18.62c8.86-11.42,12.43-25.27,13.8-33.26A5.05,5.05,0,0,0,361.59,27.49Z"/><path class="cls-8" d="M272.86,17.53a2.63,2.63,0,0,0-4,1.32C267.48,23,265.55,30.56,267,38.26c.07.39.15.79.24,1.18h0a18,18,0,0,1,1.87-2.3,32.18,32.18,0,0,1,18.27-9.59h0Z"/><path class="cls-2" d="M267,39.88l-.1-.35c-.09-.4-.17-.8-.25-1.2-1.5-7.89.54-15.67,1.89-19.61a3,3,0,0,1,4.57-1.51l15.05,10.35-.66.37a31.92,31.92,0,0,0-18.05,9.48,19.35,19.35,0,0,0-1.82,2.24l-.1.16Zm4.4-22.42a2.15,2.15,0,0,0-.7.12,2.21,2.21,0,0,0-1.41,1.4c-1.33,3.86-3.33,11.49-1.87,19.21,0,.11,0,.21.07.32.31-.41.77-1,1.39-1.64a32.66,32.66,0,0,1,17.57-9.54l-13.79-9.47A2.22,2.22,0,0,0,271.38,17.46Z"/><g class="cls-9"><path class="cls-2" d="M277.74,20.63a1.75,1.75,0,0,0-2.72.64,26.33,26.33,0,0,0-2.41,12.82l.09.8h0a11.52,11.52,0,0,1,1.38-1.42,21.53,21.53,0,0,1,12.74-5.31h0Z"/></g><path d="M267.28,41a1.58,1.58,0,0,1-1.55-1.21c-.1-.41-.18-.83-.26-1.24-1.55-8.17.55-16.17,1.94-20.22a4.18,4.18,0,0,1,6.34-2.1l14.57,10a1.59,1.59,0,0,1,.68,1.33,1.57,1.57,0,0,1-.74,1.3,1.64,1.64,0,0,1-.58.23,30.65,30.65,0,0,0-17.38,9.11,16.9,16.9,0,0,0-1.7,2.09,1.59,1.59,0,0,1-1.12.7Zm4.11-22.37a1,1,0,0,0-.34.06,1,1,0,0,0-.67.66,39.75,39.75,0,0,0-2.14,16.45,33.46,33.46,0,0,1,15.33-9l-11.6-8h0A1,1,0,0,0,271.39,18.64Z"/><path class="cls-10" d="M353.23,36.77a2.62,2.62,0,0,1,2.84,3.07c-.76,4.29-2.74,11.86-7.74,17.9-.26.31-.52.61-.79.91h0a19.53,19.53,0,0,0-.52-2.91A32.25,32.25,0,0,0,335.65,38.5h0Z"/><path class="cls-2" d="M347.59,59.18l-.43-.32,0-.19a19.63,19.63,0,0,0-.52-2.85,31.91,31.91,0,0,0-11.21-17l-.09-.09-.35-.54.64-.08,17.58-1.72a3,3,0,0,1,3.27,3.54c-.72,4.09-2.7,11.89-7.83,18.08-.26.31-.52.62-.8.93Zm-11-20.39a32.58,32.58,0,0,1,10.77,16.84,20.23,20.23,0,0,1,.42,2.11l.22-.25c5-6.05,7-13.7,7.65-17.72a2.23,2.23,0,0,0-2.41-2.61Z"/><g class="cls-9"><path class="cls-2" d="M347.92,36.68a1.87,1.87,0,0,1,2.23,2A28.35,28.35,0,0,1,345.85,52l-.5.71h0a13.39,13.39,0,0,0-.57-2,23.08,23.08,0,0,0-9.25-11.51h0Z"/></g><path d="M347.54,60.23a1.55,1.55,0,0,1-.93-.31,1.61,1.61,0,0,1-.65-1.17,17.9,17.9,0,0,0-.48-2.64,30.76,30.76,0,0,0-10.81-16.39,1.24,1.24,0,0,1-.34-.38,1.57,1.57,0,0,1,1.16-2.42l17.59-1.72h0a4.2,4.2,0,0,1,4.54,4.91c-.74,4.21-2.78,12.24-8.08,18.63-.27.33-.54.65-.83,1A1.59,1.59,0,0,1,347.54,60.23ZM339.38,39.7A33.48,33.48,0,0,1,348.44,55a39.63,39.63,0,0,0,6.08-15.44,1,1,0,0,0-1.13-1.23Z"/><path d="M315.27,115.88a94.64,94.64,0,0,1-23.38-3.21c-33.58-8.6-50.76-28.29-44.85-51.38a47.84,47.84,0,0,1,7.73-16c-3.39-16,.7-31.81,3.49-39.95a7.8,7.8,0,0,1,11.8-3.91l27.19,18.69a49.34,49.34,0,0,1,33,7.82l31.08-3.13h0a7.81,7.81,0,0,1,8.47,9.1c-1.29,7.47-4.76,21.57-13.57,33.46a50.13,50.13,0,0,1-.3,21.86C351.48,106.48,336.59,115.88,315.27,115.88Zm-54.94-71a2.75,2.75,0,0,1-.38,2.6,43,43,0,0,0-7.58,15.16c-2.64,10.32,0,19.6,7.74,27.59,7.3,7.5,18.76,13.42,33.14,17.1s27.28,4,37.29.94c10.66-3.27,17.4-10.15,20-20.47a45,45,0,0,0,0-20.57,2.74,2.74,0,0,1,.51-2.28c8.66-11.15,12-24.86,13.27-32a2.3,2.3,0,0,0-2.49-2.69l-32.06,3.24A2.74,2.74,0,0,1,328,33a44,44,0,0,0-31.11-7.35A2.73,2.73,0,0,1,294.7,25L266.94,5.91a2.25,2.25,0,0,0-2-.28,2.28,2.28,0,0,0-1.47,1.45C260.81,14.81,256.9,30,260.33,44.89Z"/><path class="cls-11" d="M289.71,82.35a19.32,19.32,0,0,0-.88,2.63c-1.89,7.37.85,14.43,6.11,15.78s11.06-3.53,12.95-10.9a20.63,20.63,0,0,0,.49-2.73Z"/><ellipse class="cls-12" cx="297.32" cy="92.97" rx="3.55" ry="5.27" transform="translate(133.47 357.92) rotate(-75.63)"/><path class="cls-13" d="M298.29,97a7.85,7.85,0,0,1-2-.25,7.16,7.16,0,0,1-3.55-2.05,3.45,3.45,0,0,1-1-3.17c.54-2.11,3.44-3.19,6.47-2.42s5.05,3.12,4.51,5.23h0C302.38,96,300.52,97,298.29,97Zm-2-7.36c-1.86,0-3.38.79-3.72,2.08a2.72,2.72,0,0,0,.79,2.46A6.34,6.34,0,0,0,296.54,96c2.6.67,5.07-.16,5.5-1.85s-1.33-3.6-3.94-4.27A7.51,7.51,0,0,0,296.31,89.68Z"/><path d="M309.48,76.37c-.84,2.69-6.59,5-9.29,4.19s-5.57-5.84-4.74-8.53,5.07-2.06,7.76-1.23S310.31,73.67,309.48,76.37Z"/><path class="cls-4" d="M306.58,75.06c-.15.48-1.23.57-2.43.2s-2-1.06-1.89-1.54,1.23-.57,2.43-.2S306.73,74.58,306.58,75.06Z"/><path class="cls-2" d="M305.52,75.56a5,5,0,0,1-1.39-.23,4.65,4.65,0,0,1-1.48-.74c-.38-.32-.55-.63-.46-.89s.39-.43.88-.47a4.53,4.53,0,0,1,1.64.22c1.25.38,2.11,1.1,1.94,1.63h0C306.56,75.39,306.12,75.56,305.52,75.56Zm-2.2-2.2h-.23c-.43,0-.7.17-.77.37s.1.47.42.73a4.35,4.35,0,0,0,1.43.72c1.14.35,2.21.28,2.34-.15h0c.14-.44-.71-1.1-1.84-1.46A5,5,0,0,0,303.32,73.36Z"/><path class="cls-1" d="M312.91,83.73c-.54,2.11-3.84,5.4-7.56,4.45s-6.31-3.44-5.76-5.55c-.55,2.11-4,3.05-7.73,2.1s-5-5.43-4.49-7.55"/><path d="M312.91,83.73a5.06,5.06,0,0,1-.68,2.33,8.06,8.06,0,0,1-1.58,2,7.11,7.11,0,0,1-2.3,1.39,6.61,6.61,0,0,1-2.84.35,11.45,11.45,0,0,1-1.35-.23c-.42-.11-.84-.23-1.25-.38A11,11,0,0,1,300.49,88a7.74,7.74,0,0,1-2.11-2.12,5.21,5.21,0,0,1-.7-1.64,4.44,4.44,0,0,1,0-2,2,2,0,0,1,3.84.87l0,.09v0a4.5,4.5,0,0,1-1,1.8,5.42,5.42,0,0,1-1.4,1.1,8,8,0,0,1-2.88.84,11,11,0,0,1-2.7-.09,10.76,10.76,0,0,1-1.28-.27,11.09,11.09,0,0,1-1.3-.44,6.66,6.66,0,0,1-2.32-1.68,7.11,7.11,0,0,1-1.35-2.32,7.51,7.51,0,0,1-.43-2.5,5.06,5.06,0,0,1,.52-2.38,7.5,7.5,0,0,0,1.62,4,5,5,0,0,0,3,2,8.63,8.63,0,0,0,.92.14c.33,0,.66,0,1,0a9.29,9.29,0,0,0,1.86-.15,4.49,4.49,0,0,0,1.47-.53c.39-.22.46-.42.49-.5l3.81,1a.91.91,0,0,0,.19.67,4.32,4.32,0,0,0,1,1.17,8.79,8.79,0,0,0,1.56,1c.29.16.59.29.89.43a8.87,8.87,0,0,0,.87.32,5,5,0,0,0,3.55-.3A7.44,7.44,0,0,0,312.91,83.73Z"/><line x1="268.59" y1="72.37" x2="259.24" y2="69.98"/><path d="M268.31,73.46,259.24,70l9.63,1.3a1.13,1.13,0,0,1-.3,2.25A1.11,1.11,0,0,1,268.31,73.46Z"/><line x1="268.32" y1="77.91" x2="258.84" y2="79.79"/><path d="M268.53,79l-9.69.78,9.26-3a1.13,1.13,0,0,1,.69,2.16A1.09,1.09,0,0,1,268.53,79Z"/><line x1="270.46" y1="83.02" x2="262.73" y2="88.81"/><path d="M271.13,83.92l-8.4,4.89,7-6.7a1.14,1.14,0,0,1,1.56,1.65A1.06,1.06,0,0,1,271.13,83.92Z"/><line x1="332.46" y1="88.73" x2="341.81" y2="91.13"/><path d="M332.74,87.64l9.07,3.49-9.63-1.31a1.13,1.13,0,1,1,.3-2.24A1.1,1.1,0,0,1,332.74,87.64Z"/><line x1="330.04" y1="93.72" x2="337.44" y2="99.92"/><path d="M330.76,92.86l6.68,7.06-8.13-5.34a1.13,1.13,0,0,1,1.25-1.89A.79.79,0,0,1,330.76,92.86Z"/><line x1="325.7" y1="97.17" x2="329.7" y2="105.96"/><path d="M326.73,96.7l3,9.26-5-8.32a1.14,1.14,0,1,1,1.94-1.18A1.28,1.28,0,0,1,326.73,96.7Z"/><path d="M346,160.07a33.07,33.07,0,0,0-5.35,7.92,19.77,19.77,0,0,0-2.09,8.53,15.47,15.47,0,0,0,.56,4.13,19.74,19.74,0,0,0,1.48,3.91,44.46,44.46,0,0,0,4.86,7.38l0,0a3,3,0,0,1-4.39,4.1,25.62,25.62,0,0,1-6.42-8.8c-.19-.43-.37-.87-.52-1.32s-.33-.89-.45-1.35a22.75,22.75,0,0,1-.58-2.82,19.3,19.3,0,0,1,0-5.73,21.72,21.72,0,0,1,4.46-10,26,26,0,0,1,7.87-6.71.44.44,0,0,1,.59.18.42.42,0,0,1-.06.49Z"/><path class="cls-1" d="M289.8,151.14l7.89,38.62c-4.16,1.62-7.67,5.42-6.79,13.85h28.66l8.34-44.17Z"/><path d="M290.25,151c1.26,3.1,2.3,6.24,3.3,9.39s1.88,6.32,2.7,9.5,1.6,6.38,2.33,9.59,1.4,6.41,2,9.64v0a3,3,0,0,1-1.84,3.34,8.93,8.93,0,0,0-2.62,1.56,6.86,6.86,0,0,0-1.71,2.4,10.24,10.24,0,0,0-.8,3.19,21.11,21.11,0,0,0,0,3.64l-2.77-2.49c2.39,0,4.78,0,7.17,0l7.16-.05,14.33-.17-2.94,2.44q1-5.53,2.06-11.05l1.12-5.51L321,181c.8-3.66,1.68-7.31,2.74-10.92a91.08,91.08,0,0,1,3.73-10.74.47.47,0,0,1,.9.17,93.1,93.1,0,0,1-.44,11.36c-.33,3.75-.84,7.46-1.43,11.16l-.9,5.55-1,5.54q-1,5.53-2.1,11l0,.07a3,3,0,0,1-2.93,2.37l-14.33-.17-7.16-.05c-2.39,0-4.78,0-7.17,0a2.78,2.78,0,0,1-2.77-2.49,27.49,27.49,0,0,1-.1-4.73,17.38,17.38,0,0,1,1.12-4.92,12.84,12.84,0,0,1,3-4.46A13.9,13.9,0,0,1,296.6,187l-1.84,3.37c-.68-3.21-1.31-6.43-1.91-9.66s-1.13-6.48-1.61-9.73-.9-6.52-1.24-9.81-.59-6.58-.65-9.92a.47.47,0,0,1,.9-.19Z"/><path class="cls-1" d="M388.72,179.93s-6.72,21-14.91,23.68H328.2s-8-31,32.41-13.25"/><path d="M390.75,182.78c-.76,2.26-1.58,4.34-2.5,6.46a67.82,67.82,0,0,1-3.07,6.23,38.08,38.08,0,0,1-4,5.93,20,20,0,0,1-2.73,2.71,12.09,12.09,0,0,1-3.74,2.12,2.75,2.75,0,0,1-.85.14H330.18a2.73,2.73,0,0,1-2.65-2.08c-.13-.52-.2-.88-.28-1.31s-.15-.82-.21-1.23c-.11-.83-.19-1.66-.23-2.5a21.17,21.17,0,0,1,.33-5.17,13.48,13.48,0,0,1,2.18-5.19,11.09,11.09,0,0,1,4.55-3.72A13.69,13.69,0,0,1,339.2,184a20.74,20.74,0,0,1,5,.5,30.08,30.08,0,0,1,8.74,3.47.94.94,0,0,1-.58,1.74h0a84.28,84.28,0,0,0-8.68-.79,15,15,0,0,0-7.3,1.32,6.27,6.27,0,0,0-2.22,2,8.82,8.82,0,0,0-1.27,3,15.28,15.28,0,0,0-.38,3.76,18.78,18.78,0,0,0,.12,2c0,.33.08.66.13,1s.12.68.17.89l-2.68-2.08h43.6l-.87.14a10,10,0,0,0,4-3.16,33.1,33.1,0,0,0,3.43-5.07A62.14,62.14,0,0,0,383.2,187c.85-1.95,1.66-4,2.31-6l0-.05a2.75,2.75,0,1,1,5.22,1.75Z"/><g class="cls-3"><path d="M335.42,185.61c-10.65,3.45-6.87,18-6.87,18h45.62c6.05-2,11.29-14,13.62-20.1a33.56,33.56,0,0,0,1.89-5.12,74.24,74.24,0,0,0,2.66-14.77C373.85,189.63,378.8,195.12,335.42,185.61Z"/></g><g class="cls-14"><path d="M297.69,189.76c-4.16,1.62-7.67,5.42-6.79,13.85h28.66l5.2-27.55C319.62,183.81,311.25,190.29,297.69,189.76Z"/></g><path d="M303.22,192.87a5.35,5.35,0,0,0-1.08,2.48A10.24,10.24,0,0,0,302,198a16.59,16.59,0,0,0,.38,2.61l.33,1.28.4,1.26,0,.06a2.09,2.09,0,0,1-4,1.25,2,2,0,0,1-.09-.76l.09-1.51c0-.5.11-1,.17-1.5a19.92,19.92,0,0,1,.66-3,11.86,11.86,0,0,1,1.21-2.75A5.85,5.85,0,0,1,303.22,192.87Z"/><path d="M310.66,193.72a13.9,13.9,0,0,0-.91,5.07,12.24,12.24,0,0,0,.22,2.44,12.78,12.78,0,0,0,.64,2.26,2.23,2.23,0,1,1-4.31.62v0a16.2,16.2,0,0,1,.41-3,16.64,16.64,0,0,1,.91-2.77A15.11,15.11,0,0,1,310.66,193.72Z"/><path d="M277.75,194.21a4.55,4.55,0,0,0-.94,2.16,9,9,0,0,0-.11,2.32A14.46,14.46,0,0,0,277,201l.29,1.12.35,1.11,0,.05a1.83,1.83,0,0,1-3.49,1.1,2.17,2.17,0,0,1-.08-.66l.08-1.32c0-.44.1-.88.15-1.32a16.4,16.4,0,0,1,.57-2.59A10.55,10.55,0,0,1,276,196,5.1,5.1,0,0,1,277.75,194.21Z"/><path d="M284.83,194.34a13.16,13.16,0,0,0-.85,4.74,11.38,11.38,0,0,0,.22,2.28,11.93,11.93,0,0,0,.59,2.11,2.07,2.07,0,1,1-3.9,1.41,2,2,0,0,1-.12-.82v0a16.13,16.13,0,0,1,.38-2.8,14.69,14.69,0,0,1,.84-2.58A14.11,14.11,0,0,1,284.83,194.34Z"/><g class="cls-9"><path d="M361.29,28.49l-32.06,3.24a47,47,0,0,0-14.91-6.79c-.42-.11-6.79-1.11-7.22-1.2,18.71,9.68,36.56,27.72,37.1,47.24.73,26.84-9.95,33-25.43,43,16.91-.95,30.07-8.47,34.18-24.5a47.64,47.64,0,0,0,0-21.84c8.87-11.42,12.43-25.27,13.81-33.26A5.06,5.06,0,0,0,361.29,28.49Z"/></g><path d="M273.66,57.1A8.94,8.94,0,0,1,279,54a10.24,10.24,0,0,1,3.32-.07,10,10,0,0,1,3.24,1.12A11.44,11.44,0,0,1,287,56,14.22,14.22,0,0,1,288.22,57a9.71,9.71,0,0,1,1.9,2.79,6.52,6.52,0,0,1-.29,6.32A11.6,11.6,0,0,0,287,61.83a17.14,17.14,0,0,0-1.74-1.45c-.34-.19-.61-.44-1-.63a9.29,9.29,0,0,0-1-.58l-.46-.26c-.16-.07-.33-.13-.49-.21-.31-.19-.67-.25-1-.42a21.42,21.42,0,0,0-2.24-.59A45.67,45.67,0,0,0,273.66,57.1Z"/><path d="M337.77,71.37a42.89,42.89,0,0,0-5.06-2.11,21.22,21.22,0,0,0-2.25-.57c-.37,0-.71-.13-1.07-.12l-.53,0h-.54a10.94,10.94,0,0,0-1.13,0c-.4,0-.76.08-1.15.09a17,17,0,0,0-2.22.42,11.88,11.88,0,0,0-4.58,2.42,6.56,6.56,0,0,1,2.81-5.68,9.76,9.76,0,0,1,3-1.52c.53-.13,1.08-.28,1.62-.36a12.56,12.56,0,0,1,1.65-.12,10.14,10.14,0,0,1,3.38.59,10.57,10.57,0,0,1,2.87,1.66A8.94,8.94,0,0,1,337.77,71.37Z"/><path d="M299.59,84.6a2.05,2.05,0,0,1-.64-.11A2,2,0,0,1,297.72,82l1.85-5.45a2,2,0,1,1,3.72,1.27l-1.84,5.44A2,2,0,0,1,299.59,84.6Z"/><path d="M339.55,192.49a5,5,0,0,0-1,2.34,9.45,9.45,0,0,0-.13,2.49,15.69,15.69,0,0,0,.36,2.46l.31,1.21.38,1.19v0a2,2,0,1,1-3.75,1.18,1.93,1.93,0,0,1-.09-.71l.09-1.42c0-.48.1-.95.15-1.42a17.61,17.61,0,0,1,.63-2.79,11,11,0,0,1,1.14-2.6A5.42,5.42,0,0,1,339.55,192.49Z"/><path d="M346.57,193.29a13,13,0,0,0-.86,4.78,11.58,11.58,0,0,0,.21,2.3,12.41,12.41,0,0,0,.6,2.13,2.1,2.1,0,0,1-3.95,1.42,2.22,2.22,0,0,1-.12-.84v0a15.22,15.22,0,0,1,.39-2.81,14.76,14.76,0,0,1,.85-2.61A14.21,14.21,0,0,1,346.57,193.29Z"/><path class="cls-1" d="M914.56,146.33c-1.93-3.34-4.17-5.58-7.57-2.71-5.51,4.68,1.61,14.62,3.62,19.28,3.2,7.41,6.14,15.7,1.71,23.41-7.41,12.9-27,12-37.74,4.24-4.35-3.12-8.3-7.92-8.64-13.5-.18-2.82,0-6.38,3.38-6.85,5.11-.71,3.69,3.77,5.07,6.52,3.75,7.44,20.18,13.23,25.7,4.88,3.57-5.4-3.41-13.32-5.81-17.64-5.36-9.65-8.41-20.36-2-30.14,8.45-12.82,24.6-13.55,35.49-3.11,3.35,3.2,6.33,7,5.31,12C931.35,151.39,919.48,153.75,914.56,146.33Z"/><path class="cls-2" d="M897.3,196.3a32.71,32.71,0,0,1-22.95-5.43c-5.28-3.78-8.5-8.81-8.81-13.8-.19-3.1.05-6.72,3.66-7.25h.06c4-.55,4.41,1.94,4.79,4.14a8.91,8.91,0,0,0,.7,2.59c2.23,4.45,9.24,8.37,15.61,8.75,4.23.25,7.57-1.14,9.4-3.91,2.72-4.1-1.13-10-4-14.24-.71-1.09-1.39-2.11-1.87-3-6.8-12.24-7.44-22.23-2-30.54a22.48,22.48,0,0,1,16.31-10.38c7-.79,14.19,1.83,19.79,7.19,3.28,3.15,6.49,7.07,5.41,12.37a10.72,10.72,0,0,1-19.25,3.76l0,0c-1.39-2.41-2.58-3.58-3.85-3.8a3.91,3.91,0,0,0-3.12,1.19c-4.23,3.58-.56,10.54,2.12,15.63.65,1.23,1.21,2.29,1.6,3.19,3.18,7.38,6.2,15.91,1.69,23.77-2.79,4.86-7.49,8.14-13.57,9.46C898.5,196.1,897.91,196.21,897.3,196.3Zm-28-25.71c-3,.44-3.18,3.5-3,6.44.42,6.74,6.07,11.48,8.48,13.2a32.13,32.13,0,0,0,24.11,5c5.86-1.27,10.38-4.42,13.06-9.09,4.33-7.54,1.52-15.52-1.74-23.06-.37-.87-.93-1.92-1.57-3.14-2.64-5-6.64-12.6-1.93-16.59A4.6,4.6,0,0,1,910.5,142c2,.33,3.38,2.4,4.4,4.16a9.93,9.93,0,0,0,17.82-3.49c1-4.92-2.06-8.64-5.19-11.64-5.42-5.2-12.41-7.74-19.15-7a21.68,21.68,0,0,0-15.74,10c-5.31,8.05-4.66,17.77,2,29.73.47.85,1.14,1.86,1.85,2.94,2.93,4.46,6.95,10.57,3.95,15.11-2,3-5.58,4.52-10.11,4.25-6.62-.39-13.92-4.5-16.27-9.17a10.09,10.09,0,0,1-.76-2.81c-.4-2.29-.68-4-3.91-3.5Z"/><g class="cls-3"><path class="cls-2" d="M927.8,130.71c-.2-.2-.42-.38-.63-.57a6.82,6.82,0,0,1-3.28,6.6c-7,4.84-15.67-5.69-23.26,2a12.78,12.78,0,0,0-3.42,10.67c2.51,19.22,20.43,29.49,2.33,32.91-6,7.25-21.52,1.59-25.15-5.62-1.38-2.75,0-7.23-5.07-6.52-3.42.47-3.56,4-3.38,6.85.34,5.58,4.29,10.38,8.64,13.5,10.79,7.72,30.33,8.66,37.74-4.24,4.43-7.71,1.49-16-1.71-23.41-2-4.66-9.13-14.6-3.62-19.28,3.4-2.87,5.64-.63,7.57,2.71,4.92,7.42,16.79,5.06,18.55-3.62C934.13,137.68,931.15,133.91,927.8,130.71Z"/></g><path d="M893,198.72a34.8,34.8,0,0,1-19.83-6.13c-5.8-4.16-9.33-9.76-9.68-15.38s1.56-8.92,5.54-9.49a9,9,0,0,1,1.34-.1c4.79,0,5.51,4.19,5.81,6a8,8,0,0,0,.5,2c1.87,3.72,8.34,7.27,13.85,7.59l.85,0c3.08,0,5.38-1,6.67-3,2-2.95-1.6-8.34-4-11.92-.75-1.14-1.44-2.19-2-3.12-7.21-13-7.83-23.7-1.87-32.73a24.48,24.48,0,0,1,17.83-11.32,24.12,24.12,0,0,1,2.69-.15,27.27,27.27,0,0,1,18.8,7.92c3.48,3.33,7.31,8,6,14.31A12.45,12.45,0,0,1,925.49,153a13.68,13.68,0,0,1-2.62.25,12.25,12.25,0,0,1-10.39-5.56l-.08-.12c-1.33-2.29-2.09-2.7-2.35-2.77l-.53-.14,0,.26a5,5,0,0,0-.87.59c-2.93,2.49.41,8.83,2.63,13,.64,1.21,1.24,2.36,1.67,3.34,3.38,7.85,6.58,16.95,1.58,25.66-3.1,5.4-8.27,9-15,10.47-.63.14-1.26.25-1.9.35A32.87,32.87,0,0,1,893,198.72Zm-22.63-26.09a4.75,4.75,0,0,0-.66.05c-1,.15-1.4,1.41-1.22,4.21.36,5.84,5.43,10.08,7.6,11.63a30.16,30.16,0,0,0,17,5.18,26.17,26.17,0,0,0,5.48-.56,17.3,17.3,0,0,0,11.68-8.08c3.84-6.69,1.2-14.13-1.84-21.17-.35-.81-.91-1.87-1.5-3-2.78-5.28-7.44-14.1-1.44-19.19a7.11,7.11,0,0,1,4.55-1.91,4.9,4.9,0,0,1,.94.08c2.8.48,4.58,3,5.82,5.11a7.4,7.4,0,0,0,6.28,3.26,8.27,8.27,0,0,0,1.57-.15,7.57,7.57,0,0,0,6.13-5.89c.64-3.2-.64-5.92-4.59-9.69A22.29,22.29,0,0,0,910.74,126a18.88,18.88,0,0,0-2.13.12,19.59,19.59,0,0,0-14.21,9.09c-4.9,7.43-4.24,16.19,2.07,27.55.44.78,1.08,1.76,1.76,2.8,3.08,4.67,7.72,11.73,3.95,17.43-2.23,3.37-6.08,5.23-10.85,5.23l-1.14,0c-7.41-.44-15.33-5-18-10.34a11.45,11.45,0,0,1-1-3.39,14.6,14.6,0,0,0-.31-1.47l-.11-.34Z"/><path class="cls-4" d="M910.74,121.48a26.77,26.77,0,0,1,18.45,7.78c3.39,3.24,7.12,7.75,5.88,13.85a12,12,0,0,1-9.68,9.42,13.52,13.52,0,0,1-2.52.24,11.76,11.76,0,0,1-10-5.33.41.41,0,0,1-.07-.11c-1-1.78-1.92-2.79-2.64-3l-1-.28-.11.54a6.2,6.2,0,0,0-.76.55c-3.24,2.75.08,9,2.51,13.65.63,1.2,1.23,2.34,1.65,3.3,3.34,7.74,6.49,16.71,1.61,25.21-3,5.27-8.09,8.81-14.63,10.23-.61.14-1.24.25-1.87.35a31.66,31.66,0,0,1-4.61.33,34.2,34.2,0,0,1-19.54-6c-5.68-4.07-9.13-9.54-9.47-15s1.38-8.42,5.1-9a9.74,9.74,0,0,1,1.28-.09c3.85,0,4.85,2.81,5.32,5.57a8.24,8.24,0,0,0,.54,2.13c2,3.92,8.51,7.52,14.27,7.86l.88,0c3.25,0,5.7-1.11,7.09-3.21,2.13-3.22-1.39-8.56-4-12.49-.73-1.1-1.41-2.15-1.92-3.06-7.12-12.82-7.74-23.36-1.9-32.22a24,24,0,0,1,17.48-11.09,23.06,23.06,0,0,1,2.63-.15m-19.41,66.23-1.11,0c-7.25-.43-15-4.85-17.62-10.06a11.13,11.13,0,0,1-.91-3.27,11.31,11.31,0,0,0-.33-1.52l-.21-.67-.7,0h-.13a5.47,5.47,0,0,0-.69.05h-.08c-1.66.24-1.76,2.42-1.61,4.73.37,6.06,5.58,10.41,7.81,12A30.59,30.59,0,0,0,893,194.2a26.55,26.55,0,0,0,5.59-.57,17.76,17.76,0,0,0,12-8.32c4-6.89,1.28-14.46-1.81-21.62-.35-.81-.91-1.86-1.52-3-2.71-5.14-7.25-13.74-1.55-18.56a6.57,6.57,0,0,1,4.22-1.8,5,5,0,0,1,.86.07c2.59.45,4.28,2.84,5.47,4.87l0,0,0,0a7.89,7.89,0,0,0,6.67,3.45,8.34,8.34,0,0,0,1.66-.16,8.05,8.05,0,0,0,6.53-6.28c.68-3.39-.64-6.24-4.73-10.16a22.84,22.84,0,0,0-15.68-6.66,19.77,19.77,0,0,0-2.18.12A20.1,20.1,0,0,0,894,134.93c-5,7.6-4.36,16.52,2,28.06.45.8,1.1,1.79,1.79,2.83,3,4.57,7.53,11.46,3.94,16.88-2.16,3.28-5.77,5-10.43,5m19.41-67.23a24.55,24.55,0,0,0-20.94,11.69c-6.07,9.2-5.46,20.08,1.85,33.25.54,1,1.24,2,2,3.16,2.28,3.46,5.72,8.69,4,11.36-1.47,2.22-4.07,2.76-6.26,2.76-.28,0-.56,0-.82,0-5.35-.32-11.63-3.73-13.43-7.31a8.11,8.11,0,0,1-.46-1.86c-.31-1.81-1.09-6.39-6.3-6.39a10.16,10.16,0,0,0-1.41.1c-3,.43-6.44,2.48-6,10,.36,5.77,4,11.51,9.89,15.75A35.33,35.33,0,0,0,893,199.22a31.39,31.39,0,0,0,4.76-.35c.65-.09,1.3-.21,1.93-.35,6.83-1.48,12.11-5.19,15.29-10.71,5.11-8.91,1.87-18.14-1.57-26.1-.43-1-1-2.16-1.68-3.38-2.14-4.06-5.37-10.19-2.74-12.41a2.72,2.72,0,0,1,1-.62s.7.22,2,2.54l.1.15a12.81,12.81,0,0,0,10.81,5.78,14,14,0,0,0,2.71-.26,12.94,12.94,0,0,0,10.47-10.2c1.34-6.58-2.59-11.35-6.17-14.77a27.83,27.83,0,0,0-19.14-8.06Zm-19.41,68.23c5,0,8.93-1.91,11.27-5.45,3.95-6-.8-13.2-4-18-.68-1-1.32-2-1.74-2.77-6.21-11.18-6.88-19.77-2.09-27a19.11,19.11,0,0,1,13.85-8.88,20.5,20.5,0,0,1,2.07-.11,21.86,21.86,0,0,1,15,6.39c3.8,3.64,5,6.23,4.44,9.24a7.07,7.07,0,0,1-5.74,5.49,7.72,7.72,0,0,1-1.47.14,6.89,6.89,0,0,1-5.85-3c-1.3-2.24-3.18-4.84-6.16-5.36a7,7,0,0,0-1-.08,7.56,7.56,0,0,0-4.87,2c-6.3,5.35-1.54,14.39,1.31,19.8.59,1.12,1.15,2.18,1.49,3,3,6.92,5.6,14.23,1.87,20.72a16.84,16.84,0,0,1-11.35,7.84,25.63,25.63,0,0,1-5.38.55,29.48,29.48,0,0,1-16.66-5.09c-2.11-1.51-7-5.62-7.4-11.25-.21-3.44.48-3.64.77-3.68h0a5.08,5.08,0,0,1,.59,0h.09a11.86,11.86,0,0,1,.29,1.4,12.22,12.22,0,0,0,1,3.54c2.77,5.5,10.87,10.16,18.45,10.61l1.17,0Z"/><path class="cls-1" d="M754,142.26l9.7,47.5c-4.16,1.62-7.68,5.42-6.79,13.85h28.66l11.58-61.35Z"/><path class="cls-2" d="M785.9,204H756.56l0-.35c-.76-7.2,1.51-11.95,6.72-14.15l-9.72-47.64h44.1l-.09.46Zm-28.63-.79h28l11.42-60.57H754.48L764.15,190l-.31.12C758.86,192.08,756.65,196.48,757.27,203.22Z"/><g class="cls-3"><path class="cls-2" d="M753.26,144.42l19.65,48c-4.15,1.63-10.16,3.1-9.27,11.54l9-.32h19.05l11.57-61.35Z"/></g><path d="M785.57,206.62H756.91a3,3,0,0,1-3-2.69c-1-9.2,2.88-13.68,6.37-15.82l-9.24-45.25a3,3,0,0,1,5.89-1.2l9.7,47.49a3,3,0,0,1-1.85,3.4c-2.16.85-4.87,2.61-5,8.06h23.3L791,158.88a3,3,0,0,1,5.91,1.12l-8.33,44.17A3,3,0,0,1,785.57,206.62Z"/><path class="cls-1" d="M818.76,91.47s4.68,19.63,23.32,23.73,47.49,20.58,35.56,63.19-75.91-6.48-75.91-6.48-40.22,8.87-54.61-23.86S771.12,60.45,818.76,91.47Z"/><g class="cls-3"><ellipse class="cls-2" cx="791.18" cy="100.85" rx="38.95" ry="32.2"/></g><g class="cls-3"><path class="cls-2" d="M834,159.72c-3.6,2.48-7.95,10.85-7.95,10.85s-4-4.32-46.11-9.39c-24-2.89-32.69-14.94-35.75-24.76a36.54,36.54,0,0,0,2.9,11.63c14.39,32.73,54.61,23.86,54.61,23.86s21.84,16.75,42.38,22.19C820,177.65,837.39,157.41,834,159.72Z"/></g><circle class="cls-5" cx="790.33" cy="82.29" r="40.56" transform="translate(42.59 351.13) rotate(-25.72)"/><path d="M855.79,198.77c-21.54,0-48.93-19.33-54.8-23.66a69.54,69.54,0,0,1-21.64.11c-16.57-2.62-28.67-11.6-35-26-8.15-18.51-1-43.75,16.62-58.71C778.05,76.06,799.7,75.48,820.4,89a3,3,0,0,1,1.28,1.82c.19.79,4.56,17.87,21,21.5,7.1,1.56,24.68,7,34.39,23.13,7.09,11.83,8.25,26.57,3.42,43.8-2.66,9.49-7.95,15.62-15.73,18.21A28.41,28.41,0,0,1,855.79,198.77Zm-54.06-29.86a3,3,0,0,1,1.83.62c.38.29,38.39,29.17,59.35,22.18,5.85-2,9.72-6.57,11.84-14.13,4.36-15.58,3.42-28.73-2.8-39.09-8.5-14.18-24.18-19-30.52-20.35-17.67-3.9-23.84-20.11-25.26-24.76-18-11.3-36.66-10.68-51.29,1.75-15.42,13.09-22,35.8-15,51.71,5.5,12.53,15.68,20.07,30.24,22.42a63.12,63.12,0,0,0,21-.28A2.79,2.79,0,0,1,801.73,168.91Z"/><path d="M790.33,125.21a42.49,42.49,0,0,1-10.65-1.35,42.92,42.92,0,1,1,52.23-30.92h0A43,43,0,0,1,790.33,125.21Zm0-81.13a38.21,38.21,0,1,0,9.48,1.2A38.27,38.27,0,0,0,790.34,44.08Zm39.29,48.27h0Z"/><g class="cls-3"><path class="cls-2" d="M801.09,43a40.58,40.58,0,0,0-44.87,18.45c7.56,3.24,14.44,7.36,19.77,14.38,10,13.22,11.63,30.43,11.4,46.86A40.56,40.56,0,0,0,801.09,43Z"/></g><circle class="cls-6" cx="781.22" cy="117.86" r="10.06" transform="translate(48.95 414.48) rotate(-30.63)"/><path class="cls-2" d="M781.22,128.31a10.45,10.45,0,1,1,10.12-7.85A10.44,10.44,0,0,1,781.22,128.31Zm0-20.11a9.66,9.66,0,1,0,9.36,12.06h0a9.68,9.68,0,0,0-7-11.76A9.92,9.92,0,0,0,781.22,108.2Z"/><g class="cls-3"><path class="cls-2" d="M787.53,110.42a11.71,11.71,0,0,0-1-.69,10,10,0,0,1-15.1,10,10.06,10.06,0,1,0,16.14-9.29Z"/></g><path d="M781.22,130.93a13.38,13.38,0,0,1-3.24-.41,13.06,13.06,0,1,1,15.89-9.41h0A13.08,13.08,0,0,1,781.22,130.93Zm0-20.12a7.05,7.05,0,1,0,6.83,8.8h0a7,7,0,0,0-6.83-8.8Z"/><path d="M778.72,128.79a1.55,1.55,0,0,1-.29,0,1.19,1.19,0,0,1-.85-1.44l2.5-9.74a1.18,1.18,0,1,1,2.28.59l-2.49,9.74A1.19,1.19,0,0,1,778.72,128.79Z"/><path class="cls-1" d="M849.91,27.49l-32.06,3.24a46.71,46.71,0,0,0-33-7.8h0l-28-19.27a5,5,0,0,0-7.64,2.53c-2.87,8.36-6.84,24.07-3.14,39.67l0,0A46,46,0,0,0,738,62c-6.09,23.77,14.27,40.71,42.87,48s54.59,2.25,60.68-21.52a47.64,47.64,0,0,0,0-21.84c8.87-11.42,12.43-25.27,13.81-33.26A5.06,5.06,0,0,0,849.91,27.49Z"/><path class="cls-7" d="M849.91,27.49l-32.06,3.24a48,48,0,0,0-8.43-4.6,34.2,34.2,0,0,0,32.81,59.14,49.39,49.39,0,0,0-.65-18.62c8.87-11.42,12.43-25.27,13.81-33.26A5.06,5.06,0,0,0,849.91,27.49Z"/><path class="cls-8" d="M761.18,17.53a2.62,2.62,0,0,0-4,1.32c-1.42,4.13-3.34,11.71-1.88,19.41.08.39.15.79.25,1.18h0a19.14,19.14,0,0,1,1.87-2.3,32.22,32.22,0,0,1,18.27-9.59h0Z"/><path class="cls-2" d="M755.29,39.88l-.1-.35q-.13-.6-.24-1.2c-1.51-7.89.54-15.67,1.89-19.61a3,3,0,0,1,4.56-1.51l15.06,10.35-.66.37a31.88,31.88,0,0,0-18,9.48,20.31,20.31,0,0,0-1.83,2.24l-.09.16Zm4.41-22.42a2.1,2.1,0,0,0-.7.12,2.22,2.22,0,0,0-1.42,1.4c-1.32,3.86-3.33,11.49-1.86,19.21l.06.32c.32-.41.78-1,1.39-1.64a32.66,32.66,0,0,1,17.57-9.54L761,17.86A2.19,2.19,0,0,0,759.7,17.46Z"/><g class="cls-9"><path class="cls-2" d="M766.05,20.63a1.75,1.75,0,0,0-2.72.64,26.35,26.35,0,0,0-2.4,12.82c0,.27.05.53.09.8h0a12.57,12.57,0,0,1,1.38-1.42,21.56,21.56,0,0,1,12.74-5.31h0Z"/></g><path d="M755.59,41a1.58,1.58,0,0,1-1.54-1.21c-.1-.41-.18-.83-.26-1.24-1.56-8.17.54-16.17,1.93-20.22a4.2,4.2,0,0,1,6.35-2.1l14.56,10a1.57,1.57,0,0,1-.06,2.63,1.67,1.67,0,0,1-.57.23,30.69,30.69,0,0,0-17.39,9.11,16.13,16.13,0,0,0-1.69,2.09,1.63,1.63,0,0,1-1.12.7Zm4.11-22.37a.93.93,0,0,0-.33.06,1,1,0,0,0-.67.66,39.42,39.42,0,0,0-2.14,16.45,33.42,33.42,0,0,1,15.32-9l-11.59-8h0A1,1,0,0,0,759.7,18.64Z"/><path class="cls-10" d="M841.55,36.77a2.62,2.62,0,0,1,2.84,3.07c-.76,4.29-2.74,11.86-7.75,17.9-.25.31-.51.61-.78.91h0a18,18,0,0,0-.52-2.91A32.15,32.15,0,0,0,824,38.5h0Z"/><path class="cls-2" d="M835.91,59.18l-.43-.32,0-.19a18.6,18.6,0,0,0-.51-2.85,31.94,31.94,0,0,0-11.22-17l-.08-.09-.35-.54.63-.08,17.59-1.72a3,3,0,0,1,3.26,3.54C844.05,44,842.08,51.8,837,58l-.8.93Zm-11-20.39A32.48,32.48,0,0,1,835.7,55.63c.22.88.35,1.6.43,2.11l.21-.25c5-6.05,6.95-13.7,7.66-17.72a2.23,2.23,0,0,0-.56-1.91,2.2,2.2,0,0,0-1.85-.7Z"/><g class="cls-9"><path class="cls-2" d="M836.24,36.68a1.87,1.87,0,0,1,2.23,2A28.26,28.26,0,0,1,834.16,52c-.16.24-.32.47-.5.71h0a13.39,13.39,0,0,0-.57-2,23,23,0,0,0-9.25-11.51h0Z"/></g><path d="M835.86,60.23a1.56,1.56,0,0,1-.94-.31,1.61,1.61,0,0,1-.65-1.17,16.37,16.37,0,0,0-.48-2.64A30.7,30.7,0,0,0,823,39.72a1.38,1.38,0,0,1-.34-.38,1.59,1.59,0,0,1-.09-1.54,1.56,1.56,0,0,1,1.26-.88L841.4,35.2h0a4.19,4.19,0,0,1,4.53,4.91c-.74,4.21-2.77,12.24-8.08,18.63-.27.33-.54.65-.83,1A1.57,1.57,0,0,1,835.86,60.23ZM827.7,39.7A33.57,33.57,0,0,1,836.76,55a39.63,39.63,0,0,0,6.08-15.44,1.06,1.06,0,0,0-1.14-1.23Z"/><path d="M803.59,115.88a94.71,94.71,0,0,1-23.39-3.21c-33.57-8.6-50.76-28.29-44.84-51.38a47.81,47.81,0,0,1,7.72-16c-3.39-16,.7-31.81,3.49-39.95a7.81,7.81,0,0,1,11.81-3.91l27.19,18.69a49.34,49.34,0,0,1,33,7.82l31.07-3.13h0a7.8,7.8,0,0,1,8.47,9.1c-1.29,7.47-4.75,21.57-13.57,33.46a49.82,49.82,0,0,1-.3,21.86C839.8,106.48,824.91,115.88,803.59,115.88Zm-55-71a2.72,2.72,0,0,1-.38,2.6,42.82,42.82,0,0,0-7.57,15.16c-2.64,10.32,0,19.6,7.73,27.59,7.31,7.5,18.77,13.42,33.15,17.1s27.28,4,37.29.94c10.66-3.27,17.4-10.15,20-20.47a44.89,44.89,0,0,0,0-20.57,2.78,2.78,0,0,1,.52-2.28c8.65-11.15,12-24.86,13.27-32a2.3,2.3,0,0,0-.59-2,2.26,2.26,0,0,0-1.9-.72l-32.06,3.24A2.78,2.78,0,0,1,816.3,33a44,44,0,0,0-31.1-7.35A2.73,2.73,0,0,1,783,25L755.26,5.91a2.31,2.31,0,0,0-3.48,1.17C749.13,14.81,745.21,30,748.64,44.89Z"/><path class="cls-11" d="M778,82.35a19.3,19.3,0,0,0-.87,2.63c-1.89,7.37.84,14.43,6.1,15.78s11.06-3.53,13-10.9a19.17,19.17,0,0,0,.5-2.73Z"/><ellipse class="cls-12" cx="785.63" cy="92.97" rx="3.55" ry="5.27" transform="translate(500.6 830.96) rotate(-75.63)"/><path class="cls-13" d="M786.6,97a7.83,7.83,0,0,1-1.94-.25,7.16,7.16,0,0,1-3.55-2.05,3.45,3.45,0,0,1-1-3.17c.54-2.11,3.44-3.19,6.46-2.42s5,3.12,4.51,5.23h0C790.7,96,788.84,97,786.6,97Zm-2-7.36c-1.87,0-3.39.79-3.72,2.08a2.74,2.74,0,0,0,.78,2.46A6.34,6.34,0,0,0,784.85,96c2.6.67,5.08-.16,5.51-1.85s-1.34-3.6-3.94-4.27A7.58,7.58,0,0,0,784.63,89.68Z"/><path d="M797.79,76.37c-.83,2.69-6.59,5-9.28,4.19s-5.58-5.84-4.74-8.53,5.06-2.06,7.76-1.23S798.63,73.67,797.79,76.37Z"/><path class="cls-4" d="M794.9,75.06c-.15.48-1.24.57-2.44.2s-2-1.06-1.89-1.54,1.24-.57,2.43-.2S795.05,74.58,794.9,75.06Z"/><path class="cls-2" d="M793.83,75.56a5.09,5.09,0,0,1-1.39-.23,4.6,4.6,0,0,1-1.47-.74c-.38-.32-.55-.63-.47-.89s.4-.43.89-.47a4.53,4.53,0,0,1,1.64.22c1.25.38,2.1,1.1,1.94,1.63h0C794.87,75.39,794.44,75.56,793.83,75.56Zm-2.2-2.2h-.23c-.42,0-.7.17-.76.37s.09.47.42.73a4.35,4.35,0,0,0,1.43.72c1.13.35,2.2.28,2.34-.15h0c.13-.44-.71-1.1-1.85-1.46A4.87,4.87,0,0,0,791.63,73.36Z"/><path class="cls-1" d="M801.22,83.73c-.54,2.11-3.83,5.4-7.56,4.45s-6.3-3.44-5.76-5.55c-.54,2.11-4,3.05-7.72,2.1s-5-5.43-4.49-7.55"/><path d="M801.22,83.73a4.83,4.83,0,0,1-.68,2.33A7.83,7.83,0,0,1,799,88a7.06,7.06,0,0,1-2.29,1.39,6.63,6.63,0,0,1-2.85.35,11.45,11.45,0,0,1-1.35-.23c-.42-.11-.84-.23-1.25-.38A10.93,10.93,0,0,1,788.81,88a7.76,7.76,0,0,1-2.12-2.12,5.21,5.21,0,0,1-.7-1.64,4.58,4.58,0,0,1,0-2,2,2,0,0,1,3.83.87l0,.09v0a4.5,4.5,0,0,1-1,1.8,5.42,5.42,0,0,1-1.4,1.1,7.91,7.91,0,0,1-2.87.84,11.53,11.53,0,0,1-4-.36,11.64,11.64,0,0,1-1.29-.44,6.7,6.7,0,0,1-2.33-1.68,7.08,7.08,0,0,1-1.34-2.32,7.27,7.27,0,0,1-.43-2.5,4.94,4.94,0,0,1,.52-2.38,7.5,7.5,0,0,0,1.62,4,5,5,0,0,0,3,2,8.63,8.63,0,0,0,.92.14c.33,0,.66,0,1,0a9.39,9.39,0,0,0,1.87-.15,4.57,4.57,0,0,0,1.47-.53c.39-.22.46-.42.49-.5l3.8,1a1,1,0,0,0,.19.67A4.38,4.38,0,0,0,791,85a8.79,8.79,0,0,0,1.56,1c.28.16.58.29.88.43a9,9,0,0,0,.88.32,5,5,0,0,0,3.55-.3A7.41,7.41,0,0,0,801.22,83.73Z"/><line x1="756.91" y1="72.37" x2="747.55" y2="69.98"/><path d="M756.63,73.46,747.55,70l9.64,1.3a1.14,1.14,0,1,1-.31,2.25A1.17,1.17,0,0,1,756.63,73.46Z"/><line x1="756.63" y1="77.91" x2="747.16" y2="79.79"/><path d="M756.85,79l-9.69.78,9.25-3a1.14,1.14,0,0,1,.7,2.16A1.32,1.32,0,0,1,756.85,79Z"/><line x1="758.77" y1="83.02" x2="751.04" y2="88.81"/><path d="M759.45,83.92,751,88.81l7.06-6.7a1.14,1.14,0,0,1,1.56,1.65A1.46,1.46,0,0,1,759.45,83.92Z"/><line x1="820.77" y1="88.73" x2="830.13" y2="91.13"/><path d="M821.05,87.64l9.08,3.49-9.64-1.31a1.13,1.13,0,1,1,.56-2.18Z"/><line x1="818.35" y1="93.72" x2="825.75" y2="99.92"/><path d="M819.08,92.86l6.67,7.06-8.12-5.34a1.13,1.13,0,1,1,1.25-1.89A.79.79,0,0,1,819.08,92.86Z"/><line x1="814.02" y1="97.17" x2="818.01" y2="105.96"/><path d="M815,96.7l3,9.26-5-8.32a1.14,1.14,0,0,1,2-1.18A1.22,1.22,0,0,1,815,96.7Z"/><path d="M834.28,160.07a33.37,33.37,0,0,0-5.35,7.92,19.91,19.91,0,0,0-2.09,8.53,15.88,15.88,0,0,0,.56,4.13,19.17,19.17,0,0,0,1.49,3.91,45,45,0,0,0,4.85,7.38l0,0a3,3,0,0,1-4.39,4.1,25.47,25.47,0,0,1-6.41-8.8,10.64,10.64,0,0,1-.52-1.32c-.16-.45-.33-.89-.46-1.35a27.11,27.11,0,0,1-.58-2.82,19.64,19.64,0,0,1,.05-5.73,21.71,21.71,0,0,1,4.45-10,26,26,0,0,1,7.88-6.71.44.44,0,0,1,.59.18.42.42,0,0,1-.06.49Z"/><path class="cls-1" d="M778.12,151.14,786,189.76c-4.15,1.62-7.67,5.42-6.78,13.85h28.66l8.33-44.17Z"/><path d="M778.56,151c1.26,3.1,2.3,6.24,3.3,9.39s1.88,6.32,2.7,9.5,1.6,6.38,2.33,9.59,1.41,6.41,2,9.64v0a3,3,0,0,1-1.84,3.34,8.93,8.93,0,0,0-2.62,1.56,7,7,0,0,0-1.71,2.4,10.52,10.52,0,0,0-.8,3.19,21.13,21.13,0,0,0,0,3.64l-2.77-2.49c2.39,0,4.78,0,7.16,0l7.17-.05,14.33-.17-2.94,2.44q1-5.53,2.06-11.05l1.11-5.51L809.3,181c.79-3.66,1.67-7.31,2.73-10.92a92.93,92.93,0,0,1,3.73-10.74.47.47,0,0,1,.62-.24.45.45,0,0,1,.28.41,91.15,91.15,0,0,1-.43,11.36c-.33,3.75-.84,7.46-1.44,11.16l-.9,5.55-1,5.54q-1,5.53-2.11,11v.07a3,3,0,0,1-2.93,2.37l-14.33-.17-7.17-.05c-2.38,0-4.77,0-7.16,0a2.77,2.77,0,0,1-2.77-2.49,26.52,26.52,0,0,1-.1-4.73,17,17,0,0,1,1.12-4.92,12.81,12.81,0,0,1,3-4.46,14.12,14.12,0,0,1,4.46-2.82l-1.83,3.37c-.69-3.21-1.32-6.43-1.91-9.66s-1.14-6.48-1.62-9.73-.89-6.52-1.24-9.81-.59-6.58-.64-9.92a.47.47,0,0,1,.45-.48A.47.47,0,0,1,778.56,151Z"/><path class="cls-1" d="M877,179.93s-6.72,21-14.9,23.68H816.51s-8-31,32.41-13.25"/><path d="M879.06,182.78c-.76,2.26-1.58,4.34-2.5,6.46a65.35,65.35,0,0,1-3.07,6.23,38.08,38.08,0,0,1-4,5.93,19.44,19.44,0,0,1-2.73,2.71,12.16,12.16,0,0,1-3.73,2.12,2.8,2.8,0,0,1-.85.14H818.5a2.75,2.75,0,0,1-2.66-2.08c-.12-.52-.19-.88-.28-1.31s-.14-.82-.2-1.23c-.11-.83-.19-1.66-.24-2.5a20.7,20.7,0,0,1,.34-5.17,13.46,13.46,0,0,1,2.17-5.19,11.12,11.12,0,0,1,4.56-3.72,13.66,13.66,0,0,1,5.33-1.17,20.65,20.65,0,0,1,5,.5,29.86,29.86,0,0,1,8.74,3.47.94.94,0,0,1,.34,1.28,1,1,0,0,1-.92.46h0a84.78,84.78,0,0,0-8.68-.79,15.08,15.08,0,0,0-7.31,1.32,6.45,6.45,0,0,0-2.22,2,8.82,8.82,0,0,0-1.27,3,16.31,16.31,0,0,0-.38,3.76q0,1,.12,2c0,.33.08.66.14,1s.11.68.16.89l-2.68-2.08h43.61l-.87.14a10,10,0,0,0,4-3.16,33.83,33.83,0,0,0,3.43-5.07c1-1.84,2-3.76,2.82-5.73s1.65-4,2.31-6V181a2.75,2.75,0,1,1,5.22,1.75Z"/><g class="cls-3"><path d="M823.74,185.61c-10.65,3.45-6.88,18-6.88,18h45.62c6-2,11.3-14,13.63-20.1a33.57,33.57,0,0,0,1.88-5.12,74.24,74.24,0,0,0,2.66-14.77C862.17,189.63,867.11,195.12,823.74,185.61Z"/></g><g class="cls-14"><path d="M786,189.76c-4.15,1.62-7.67,5.42-6.78,13.85h28.66l5.2-27.55C807.93,183.81,799.57,190.29,786,189.76Z"/></g><path d="M791.53,192.87a5.33,5.33,0,0,0-1.07,2.48,10.24,10.24,0,0,0-.14,2.65,17.87,17.87,0,0,0,.39,2.61l.33,1.28.39,1.26,0,.06a2.09,2.09,0,0,1-4,1.25,2.47,2.47,0,0,1-.09-.76l.09-1.51c0-.5.12-1,.17-1.5a19.92,19.92,0,0,1,.66-3,11.48,11.48,0,0,1,1.22-2.75A5.82,5.82,0,0,1,791.53,192.87Z"/><path d="M799,193.72a14.13,14.13,0,0,0-.92,5.07,12.24,12.24,0,0,0,.23,2.44,13.68,13.68,0,0,0,.63,2.26,2.22,2.22,0,0,1-4.18,1.5,2.07,2.07,0,0,1-.13-.88v0a17.1,17.1,0,0,1,.42-3,15.87,15.87,0,0,1,4-7.37Z"/><path d="M766.06,194.21a4.63,4.63,0,0,0-.93,2.16,9,9,0,0,0-.11,2.32,14.46,14.46,0,0,0,.34,2.27l.29,1.12.35,1.11v.05a1.82,1.82,0,1,1-3.48,1.1,1.9,1.9,0,0,1-.08-.66l.07-1.32c0-.44.1-.88.15-1.32a17.6,17.6,0,0,1,.57-2.59A10.16,10.16,0,0,1,764.3,196,5.15,5.15,0,0,1,766.06,194.21Z"/><path d="M773.14,194.34a13.16,13.16,0,0,0-.85,4.74,12.16,12.16,0,0,0,.22,2.28,11.94,11.94,0,0,0,.6,2.11,2.08,2.08,0,1,1-3.91,1.41,2,2,0,0,1-.12-.82v0a16.13,16.13,0,0,1,.38-2.8,14.71,14.71,0,0,1,.85-2.58A14.08,14.08,0,0,1,773.14,194.34Z"/><g class="cls-9"><path d="M849.61,28.49l-32.06,3.24a47.18,47.18,0,0,0-14.92-6.79c-.42-.11-6.79-1.11-7.21-1.2C814.13,33.42,832,51.46,832.51,71c.74,26.84-9.94,33-25.42,43,16.9-.95,30.07-8.47,34.17-24.5a47.63,47.63,0,0,0,0-21.84c8.87-11.42,12.43-25.27,13.81-33.26A5.06,5.06,0,0,0,849.61,28.49Z"/></g><path d="M762,57.1a8.92,8.92,0,0,1,5.36-3.1,10.24,10.24,0,0,1,3.32-.07,10,10,0,0,1,3.25,1.12,11.44,11.44,0,0,1,1.39.9A15.85,15.85,0,0,1,776.54,57a9.89,9.89,0,0,1,1.89,2.79,6.55,6.55,0,0,1-.28,6.32,11.72,11.72,0,0,0-2.84-4.32,17.26,17.26,0,0,0-1.75-1.45c-.33-.19-.61-.44-1-.63a10.32,10.32,0,0,0-1-.58l-.47-.26-.49-.21c-.31-.19-.67-.25-1-.42a21.89,21.89,0,0,0-2.23-.59A45.67,45.67,0,0,0,762,57.1Z"/><path d="M826.09,71.37A43,43,0,0,0,821,69.26a21.06,21.06,0,0,0-2.24-.57c-.37,0-.72-.13-1.08-.12l-.53,0h-.53a11.13,11.13,0,0,0-1.14,0c-.39,0-.75.08-1.14.09a16.71,16.71,0,0,0-2.22.42,11.75,11.75,0,0,0-4.58,2.42,6.55,6.55,0,0,1,2.8-5.68,9.93,9.93,0,0,1,3-1.52c.53-.13,1.08-.28,1.61-.36a12.56,12.56,0,0,1,1.65-.12,10.24,10.24,0,0,1,3.39.59,10.72,10.72,0,0,1,2.87,1.66A8.94,8.94,0,0,1,826.09,71.37Z"/><path d="M787.9,84.6a2,2,0,0,1-.63-.11A2,2,0,0,1,786,82l1.84-5.45a2,2,0,0,1,3.73,1.27l-1.85,5.44A2,2,0,0,1,787.9,84.6Z"/><path d="M827.86,192.49a5.09,5.09,0,0,0-1,2.34,9.45,9.45,0,0,0-.12,2.49,15.69,15.69,0,0,0,.36,2.46l.31,1.21.37,1.19,0,0a2,2,0,1,1-3.76,1.18,2.17,2.17,0,0,1-.09-.71l.09-1.42c0-.48.11-.95.16-1.42a18.76,18.76,0,0,1,.62-2.79,10.62,10.62,0,0,1,1.15-2.6A5.4,5.4,0,0,1,827.86,192.49Z"/><path d="M834.89,193.29a13.22,13.22,0,0,0-.87,4.78,12.38,12.38,0,0,0,.21,2.3,13.39,13.39,0,0,0,.6,2.13,2.09,2.09,0,1,1-3.94,1.42,2,2,0,0,1-.12-.84v0a15.22,15.22,0,0,1,.39-2.81,15,15,0,0,1,3.73-7Z"/><path class="cls-1" d="M671.2,151.58c-.8-3.78-2.24-6.61-6.36-4.92-6.69,2.73-3,14.39-2.54,19.44.74,8,1,16.83-5.63,22.79-11,10-29.34,3-37.2-7.67-3.17-4.32-5.43-10.11-4-15.52.71-2.74,1.95-6.08,5.34-5.47,5.08.92,2.34,4.74,2.81,7.78,1.25,8.24,15.07,18.84,22.91,12.61,5.07-4,.89-13.72,0-18.57-2.1-10.84-1.69-22,7.47-29.26,12-9.58,27.59-5.26,34.71,8,2.19,4.09,3.85,8.6,1.32,13.06C685.59,161.6,673.58,160.16,671.2,151.58Z"/><path class="cls-2" d="M639.29,193.73a32.67,32.67,0,0,1-20.13-12.28c-3.86-5.24-5.35-11-4.1-15.85.78-3,2.13-6.37,5.73-5.76h.06c4,.71,3.59,3.21,3.27,5.42A9.44,9.44,0,0,0,624,168c.75,4.92,6.2,10.82,12.13,13.16,3.95,1.55,7.56,1.27,10.16-.8,3.85-3.06,2-9.82.66-14.76-.34-1.26-.67-2.44-.86-3.43-2.66-13.74-.17-23.44,7.61-29.64a22.52,22.52,0,0,1,18.73-4.81c6.88,1.42,12.92,6.15,16.58,13,2.15,4,4,8.73,1.32,13.43a10.72,10.72,0,0,1-19.48-2.4v0c-.58-2.72-1.35-4.2-2.49-4.8A3.88,3.88,0,0,0,665,147c-5.13,2.09-3.8,9.85-2.83,15.51.24,1.37.44,2.56.53,3.53.74,8,1,17.05-5.76,23.12-4.17,3.76-9.64,5.42-15.84,4.79Q640.19,193.88,639.29,193.73Zm-18.62-33.12c-3-.5-4.11,2.34-4.85,5.19-1.69,6.54,2.21,12.8,4,15.19a32.19,32.19,0,0,0,21.38,12.2c6,.6,11.24-1,15.24-4.59,6.45-5.83,6.25-14.29,5.5-22.46-.09-.95-.29-2.12-.52-3.48-1-5.59-2.41-14,3.3-16.37a4.61,4.61,0,0,1,4-.13c1.74.93,2.46,3.33,2.88,5.32a9.94,9.94,0,0,0,18,2.22c2.48-4.37.72-8.87-1.32-12.68-3.55-6.63-9.4-11.21-16-12.58a21.68,21.68,0,0,0-18.08,4.65c-7.53,6-9.93,15.46-7.33,28.89.19,1,.51,2.12.85,3.36,1.4,5.15,3.33,12.2-.93,15.59-2.83,2.24-6.71,2.56-10.93.91-6.17-2.43-11.84-8.6-12.62-13.77a9.84,9.84,0,0,1,.14-2.91c.34-2.3.58-4-2.63-4.54Z"/><g class="cls-3"><path class="cls-2" d="M688.63,140.83c-.13-.25-.28-.49-.43-.74a6.81,6.81,0,0,1-5.16,5.27c-8.14,2.42-13.13-10.28-22.74-5.3a12.78,12.78,0,0,0-6.56,9.08c-3.57,19.05,10.28,34.37-8,32-7.94,5-21-5.16-22.16-13.14-.47-3,2.27-6.86-2.81-7.78-3.39-.61-4.63,2.73-5.34,5.47-1.4,5.41.86,11.2,4,15.52,7.86,10.68,26.15,17.64,37.2,7.67,6.6-6,6.37-14.75,5.63-22.79-.47-5-4.15-16.71,2.54-19.44,4.12-1.69,5.56,1.14,6.36,4.92,2.38,8.58,14.39,10,18.75,2.31C692.48,149.43,690.82,144.92,688.63,140.83Z"/></g><path d="M643.64,196.21a25.9,25.9,0,0,1-2.76-.14c-.64-.06-1.28-.15-1.92-.26a34.82,34.82,0,0,1-21.5-13.11c-4.23-5.75-5.85-12.17-4.44-17.63,1.27-4.92,3.61-7.41,7-7.41a7.85,7.85,0,0,1,1.26.11c6,1.08,5.27,5.79,5,7.81a7.81,7.81,0,0,0-.15,2c.63,4.12,5.68,9.49,10.82,11.51a11.27,11.27,0,0,0,4,.85,6.35,6.35,0,0,0,4-1.33c2.76-2.2,1.06-8.43-.07-12.56-.35-1.29-.68-2.52-.89-3.57-2.83-14.59-.09-25,8.37-31.7A25.09,25.09,0,0,1,668,125.11a23.53,23.53,0,0,1,4.79.49c7.49,1.54,14.06,6.67,18,14.05,2.28,4.25,4.48,9.85,1.29,15.47a12.38,12.38,0,0,1-10.92,6.31,16.31,16.31,0,0,1-1.7-.1,12.46,12.46,0,0,1-10.72-9.08l0-.15c-.55-2.58-1.14-3.21-1.37-3.36l-.14-.08h-.17a3.36,3.36,0,0,0-1.28.32c-3.56,1.45-2.35,8.52-1.55,13.2.24,1.36.46,2.63.55,3.69.79,8.51,1,18.16-6.44,24.88A21.57,21.57,0,0,1,643.64,196.21Zm-23.53-33.54c-.91,0-1.58,1.1-2.24,3.66-1.47,5.66,2,11.26,3.62,13.4a29.91,29.91,0,0,0,19.9,11.36c.73.07,1.47.11,2.19.11A16.46,16.46,0,0,0,655,187c5.73-5.17,5.52-13.06,4.82-20.7-.08-.85-.28-2-.49-3.25-1-5.93-2.71-15.77,4.58-18.74a8.28,8.28,0,0,1,3.15-.69,5.51,5.51,0,0,1,2.63.65c2.51,1.32,3.43,4.25,4,6.66a7.58,7.58,0,0,0,6.49,5.39,8.28,8.28,0,0,0,1,.07,7.5,7.5,0,0,0,6.65-3.76c1.6-2.85,1.23-5.83-1.35-10.65-3.25-6.07-8.58-10.26-14.62-11.5a18.06,18.06,0,0,0-3.74-.39,20.14,20.14,0,0,0-12.59,4.63c-7,5.54-9.05,14.06-6.57,26.82.17.87.47,2,.8,3.19,1.48,5.42,3.7,13.57-1.65,17.82a11.14,11.14,0,0,1-7.12,2.42,16.05,16.05,0,0,1-5.89-1.2c-6.92-2.71-13-9.48-13.94-15.41a11.67,11.67,0,0,1,.14-3.53,12.91,12.91,0,0,0,.16-1.49V163l-.33-.13a4.79,4.79,0,0,0-.75-.19Z"/><path class="cls-4" d="M668,125.61a23.26,23.26,0,0,1,4.69.48c7.34,1.51,13.79,6.54,17.67,13.8,2.21,4.13,4.36,9.57,1.3,15a11.89,11.89,0,0,1-10.49,6.05,13,13,0,0,1-1.64-.1,12,12,0,0,1-10.3-8.71l0-.12c-.43-2-1-3.26-1.58-3.67l-.9-.6-.28.5a5.51,5.51,0,0,0-.88.28c-3.93,1.61-2.73,8.63-1.85,13.75.23,1.35.45,2.62.55,3.65.77,8.4,1,17.9-6.29,24.47a21.06,21.06,0,0,1-14.37,5.33,24.85,24.85,0,0,1-2.71-.14c-.62-.06-1.25-.15-1.88-.25a34.36,34.36,0,0,1-21.19-12.91c-4.14-5.63-5.73-11.9-4.36-17.21,1.21-4.67,3.39-7,6.48-7a6.74,6.74,0,0,1,1.16.1c4.84.88,5,4.15,4.57,7.26a8.19,8.19,0,0,0-.14,2.19c.66,4.34,5.75,9.79,11.12,11.9a11.83,11.83,0,0,0,4.23.88,6.8,6.8,0,0,0,4.34-1.44c3-2.4,1.33-8.57.1-13.1-.35-1.28-.68-2.48-.88-3.52-2.79-14.39-.11-24.6,8.19-31.21A24.58,24.58,0,0,1,668,125.61m-27.1,58.89a15.73,15.73,0,0,1-5.71-1.16c-6.76-2.66-12.75-9.26-13.62-15a10.89,10.89,0,0,1,.14-3.39,12.36,12.36,0,0,0,.16-1.55v-.7l-.66-.25a6.59,6.59,0,0,0-.8-.21h-.07a2.19,2.19,0,0,0-.28,0c-1.2,0-2,1.17-2.73,4-1.52,5.87,2.09,11.63,3.71,13.83a30.45,30.45,0,0,0,20.25,11.56c.75.07,1.5.11,2.24.11a17.21,17.21,0,0,0,11.75-4.3c5.9-5.32,5.69-13.35,5-21.12-.08-.87-.28-2.05-.5-3.34-1-5.73-2.62-15.32,4.28-18.14a8,8,0,0,1,3-.65,5,5,0,0,1,2.4.59c2.32,1.23,3.19,4,3.69,6.33v.06a8.07,8.07,0,0,0,6.9,5.72,9.45,9.45,0,0,0,1.07.07,7.9,7.9,0,0,0,7.08-4c1.71-3,1.33-6.13-1.34-11.12-3.32-6.2-8.77-10.49-15-11.76a18.51,18.51,0,0,0-3.85-.4,20.67,20.67,0,0,0-12.9,4.73c-7.12,5.68-9.27,14.36-6.75,27.32.17.89.48,2,.81,3.25,1.44,5.26,3.61,13.22-1.48,17.27a10.69,10.69,0,0,1-6.81,2.31M668,124.61a25.56,25.56,0,0,0-16,5.83c-8.62,6.86-11.42,17.39-8.55,32.18.21,1.08.54,2.31.9,3.61,1.09,4,2.74,10.05.23,12a5.8,5.8,0,0,1-3.71,1.22,10.8,10.8,0,0,1-3.86-.82c-5-1.95-9.9-7.15-10.5-11.11a8.09,8.09,0,0,1,.14-1.91c.29-2,1.06-7.21-5.38-8.37a7.37,7.37,0,0,0-1.35-.12c-2.7,0-5.82,1.55-7.44,7.79-1.44,5.6.2,12.18,4.52,18.05a35.34,35.34,0,0,0,21.83,13.3q1,.16,2,.27a26.84,26.84,0,0,0,2.81.14,21.9,21.9,0,0,0,15-5.59c7.62-6.88,7.41-16.66,6.61-25.3-.1-1.08-.32-2.36-.55-3.73-.78-4.52-2-11.35,1.24-12.65a3,3,0,0,1,1.07-.28h.05s.6.42,1.16,3c0,.06,0,.12,0,.18a13,13,0,0,0,11.15,9.44,15,15,0,0,0,1.76.11,12.85,12.85,0,0,0,11.36-6.56c3.3-5.84,1-11.59-1.29-16-4-7.51-10.71-12.72-18.35-14.3a24,24,0,0,0-4.89-.5Zm-27.1,60.89a11.71,11.71,0,0,0,7.43-2.53c5.61-4.45,3.33-12.8,1.83-18.32-.33-1.19-.64-2.32-.8-3.17-2.44-12.56-.41-20.93,6.39-26.34a19.65,19.65,0,0,1,12.28-4.52,17.85,17.85,0,0,1,3.64.38c5.89,1.21,11.1,5.31,14.28,11.25,2.48,4.64,2.86,7.49,1.35,10.16a6.94,6.94,0,0,1-6.21,3.51,7.34,7.34,0,0,1-1-.06,7.06,7.06,0,0,1-6.06-5c-.55-2.53-1.53-5.58-4.2-7a6.12,6.12,0,0,0-2.87-.7,8.7,8.7,0,0,0-3.34.73c-7.65,3.12-5.93,13.2-4.89,19.23.21,1.24.41,2.42.49,3.27.69,7.51.91,15.26-4.65,20.28a16.19,16.19,0,0,1-11.08,4,20.39,20.39,0,0,1-2.14-.11,29.41,29.41,0,0,1-19.55-11.15c-1.53-2.09-4.95-7.53-3.54-13,.77-2.95,1.41-3.28,1.76-3.28l.11,0h0a3.94,3.94,0,0,1,.66.17,13,13,0,0,1-.15,1.42,12,12,0,0,0-.14,3.68c.92,6.09,7.18,13,14.24,15.81a16.82,16.82,0,0,0,6.08,1.23Z"/><path class="cls-1" d="M507.06,142.26l9.7,47.5c-4.15,1.62-7.67,5.42-6.78,13.85h28.66l11.57-61.35Z"/><path class="cls-2" d="M539,204H509.62l0-.35c-.75-7.2,1.51-11.95,6.73-14.15l-9.73-47.64h44.11l-.09.46Zm-28.63-.79h28l11.43-60.57h-42.2L517.21,190l-.31.12C511.92,192.08,509.71,196.48,510.33,203.22Z"/><g class="cls-3"><path class="cls-2" d="M506.32,144.42l19.66,48c-4.15,1.63-10.17,3.1-9.28,11.54l9-.32h19l11.57-61.35Z"/></g><path d="M538.64,206.62H510a3,3,0,0,1-3-2.69c-1-9.2,2.88-13.68,6.37-15.82l-9.24-45.25a3,3,0,1,1,5.88-1.2l9.7,47.49a3,3,0,0,1-1.84,3.4c-2.17.85-4.88,2.61-5,8.06h23.31L544,158.88a3,3,0,0,1,5.9,1.12l-8.33,44.17A3,3,0,0,1,538.64,206.62Z"/><path class="cls-1" d="M571.82,91.47s4.68,19.63,23.32,23.73,47.49,20.58,35.56,63.19-75.91-6.48-75.91-6.48-40.22,8.87-54.61-23.86S524.18,60.45,571.82,91.47Z"/><g class="cls-3"><ellipse class="cls-2" cx="548.74" cy="101.22" rx="38.95" ry="32.2" transform="translate(-8.5 72.17) rotate(-7.47)"/></g><g class="cls-3"><path class="cls-2" d="M587.1,159.72c-3.61,2.48-8,10.85-8,10.85s-4-4.32-46.11-9.39c-24-2.89-32.69-14.94-35.75-24.76a36.54,36.54,0,0,0,2.9,11.63c14.39,32.73,54.61,23.86,54.61,23.86s21.84,16.75,42.38,22.19C573.06,177.65,590.45,157.41,587.1,159.72Z"/></g><circle class="cls-5" cx="545.49" cy="82.92" r="40.56" transform="translate(101.14 410.01) rotate(-45)"/><path d="M608.85,198.77c-21.54,0-48.93-19.33-54.8-23.66a69.47,69.47,0,0,1-21.63.11c-16.58-2.62-28.67-11.6-35-26-8.14-18.51-1-43.75,16.62-58.71,17.06-14.49,38.72-15.07,59.41-1.6a3,3,0,0,1,1.28,1.82c.19.79,4.56,17.87,21,21.5,7.11,1.56,24.68,7,34.39,23.13,7.1,11.83,8.25,26.57,3.42,43.8-2.65,9.49-8,15.62-15.72,18.21A28.47,28.47,0,0,1,608.85,198.77Zm-54.06-29.86a3,3,0,0,1,1.83.62c.38.29,38.39,29.17,59.35,22.18,5.85-2,9.72-6.57,11.84-14.13,4.36-15.58,3.42-28.73-2.79-39.09-8.51-14.18-24.18-19-30.53-20.35-17.67-3.9-23.83-20.11-25.25-24.76-18-11.3-36.66-10.68-51.3,1.75-15.42,13.09-22,35.8-15,51.71,5.51,12.53,15.68,20.07,30.25,22.42a63,63,0,0,0,21-.28A2.79,2.79,0,0,1,554.79,168.91Z"/><path d="M551.07,125.48a42.93,42.93,0,1,1,37-37.41h0A43,43,0,0,1,551.07,125.48ZM540.53,45a38.23,38.23,0,1,0,9.56,0A38.27,38.27,0,0,0,540.53,45Zm45.23,42.76h0Z"/><g class="cls-3"><path class="cls-2" d="M551.05,42.56A40.58,40.58,0,0,0,509,66.68c7.92,2.23,15.28,5.42,21.47,11.69,11.65,11.81,15.49,28.66,17.39,45a40.56,40.56,0,0,0,3.23-80.79Z"/></g><circle class="cls-6" cx="534.28" cy="117.86" r="10.06" transform="translate(14.5 288.67) rotate(-30.63)"/><path class="cls-2" d="M534.28,128.31a10.45,10.45,0,1,1,2.6-20.57,10.45,10.45,0,0,1-2.6,20.57Zm0-20.11a9.66,9.66,0,1,0,9.36,12.06h0a9.66,9.66,0,0,0-7-11.76A9.86,9.86,0,0,0,534.28,108.2Z"/><g class="cls-3"><path class="cls-2" d="M540.59,110.42a11.56,11.56,0,0,0-1-.69,10,10,0,0,1-15.1,10,10.05,10.05,0,1,0,16.13-9.29Z"/></g><path d="M534.28,130.93a13.38,13.38,0,0,1-3.24-.41,13.06,13.06,0,1,1,14.48-19.31,13,13,0,0,1,1.41,9.9h0A13.08,13.08,0,0,1,534.28,130.93Zm0-20.12a7.05,7.05,0,1,0,6.83,8.8h0a7,7,0,0,0-6.83-8.8Z"/><path d="M531.79,128.79a1.54,1.54,0,0,1-.3,0,1.19,1.19,0,0,1-.85-1.44l2.5-9.74a1.18,1.18,0,1,1,2.29.59l-2.5,9.74A1.19,1.19,0,0,1,531.79,128.79Z"/><path class="cls-1" d="M597.45,20.85l-31.37,7.37a46.7,46.7,0,0,0-33.75-3.45h0L502,9.3a5,5,0,0,0-7.24,3.51c-1.76,8.65-3.65,24.75,2,39.73l0,0a46,46,0,0,0-5.88,17c-2.95,24.36,19.44,38.51,48.74,42.06s54.42-4.86,57.37-29.22a47.78,47.78,0,0,0-2.82-21.66c7.3-12.47,9-26.67,9.36-34.77A5,5,0,0,0,597.45,20.85Z"/><path class="cls-7" d="M597.44,20.85l-31.36,7.37a48.29,48.29,0,0,0-9-3.46,34.2,34.2,0,0,0,40.22,54.37,49.37,49.37,0,0,0-3.06-18.38c7.3-12.47,9-26.67,9.36-34.77A5,5,0,0,0,597.44,20.85Z"/><path class="cls-8" d="M508.17,22.5a2.62,2.62,0,0,0-3.76,1.82c-.87,4.28-1.79,12,.66,19.49.12.38.25.76.4,1.14h0A19,19,0,0,1,507,42.43,32.2,32.2,0,0,1,523.9,30.54h0Z"/><path class="cls-2" d="M505.24,45.42l-.14-.33c-.15-.38-.28-.77-.4-1.15-2.52-7.64-1.51-15.62-.68-19.7a3,3,0,0,1,4.33-2.09l16.27,8.3-.6.46a32,32,0,0,0-16.67,11.74,18.77,18.77,0,0,0-1.51,2.47l-.08.16Zm1.46-22.8a2.12,2.12,0,0,0-.69.21,2.22,2.22,0,0,0-1.22,1.57c-.81,4-1.8,11.83.65,19.29,0,.1.07.21.11.31.25-.44.64-1.06,1.16-1.8a32.62,32.62,0,0,1,16.18-11.75L508,22.85A2.25,2.25,0,0,0,506.7,22.62Z"/><g class="cls-9"><path class="cls-2" d="M513.41,24.94a1.75,1.75,0,0,0-2.62,1,26.41,26.41,0,0,0-.72,13c.06.26.13.52.2.78h0a13.38,13.38,0,0,1,1.18-1.59,21.63,21.63,0,0,1,11.95-6.91h0Z"/></g><path d="M505.68,46.51a1.6,1.6,0,0,1-1.69-1c-.15-.4-.28-.8-.42-1.2C501,36.41,502,28.2,502.87,24a4.2,4.2,0,0,1,6-2.91l15.74,8a1.54,1.54,0,0,1,.84,1.23,1.57,1.57,0,0,1-.56,1.39,1.88,1.88,0,0,1-.54.29,30.69,30.69,0,0,0-16.05,11.3,19.7,19.7,0,0,0-1.42,2.28,1.58,1.58,0,0,1-1,.85Zm1.17-22.72a1,1,0,0,0-.32.1,1.06,1.06,0,0,0-.58.74,39.79,39.79,0,0,0,0,16.59A33.57,33.57,0,0,1,520,30.3l-12.53-6.4h0A1.1,1.1,0,0,0,506.85,23.79Z"/><path class="cls-10" d="M590.36,31.13a2.62,2.62,0,0,1,3.21,2.67c-.19,4.36-1.17,12.12-5.35,18.76-.21.34-.43.68-.66,1h0a18.72,18.72,0,0,0-.9-2.82,32.2,32.2,0,0,0-13.5-15.61h0Z"/><path class="cls-2" d="M587.68,54.08l-.47-.25-.05-.19a17.72,17.72,0,0,0-.88-2.76A31.9,31.9,0,0,0,573,35.46l-.1-.08-.41-.49.62-.16,17.21-4A3,3,0,0,1,594,33.82c-.18,4.16-1.12,12.15-5.41,19-.21.34-.43.69-.67,1ZM574.15,35.29A32.6,32.6,0,0,1,587,50.59a20.14,20.14,0,0,1,.7,2l.18-.28c4.19-6.65,5.11-14.48,5.29-18.56a2.23,2.23,0,0,0-2.73-2.28Z"/><g class="cls-9"><path class="cls-2" d="M585.08,31.73a1.88,1.88,0,0,1,2.47,1.69A28.2,28.2,0,0,1,585,47.14l-.4.77h0a12.66,12.66,0,0,0-.82-1.95,23.11,23.11,0,0,0-10.68-10.21h0Z"/></g><path d="M587.76,55.13a1.63,1.63,0,0,1-1-.18,1.66,1.66,0,0,1-.8-1.08,17.09,17.09,0,0,0-.82-2.56,30.69,30.69,0,0,0-12.84-14.84,1.58,1.58,0,0,1,.45-2.88l17.21-4h0a4.2,4.2,0,0,1,5.14,4.28C595,38.15,594,46.36,589.55,53.4c-.22.35-.45.71-.7,1.07A1.6,1.6,0,0,1,587.76,55.13ZM577,35.84a33.49,33.49,0,0,1,11,14,39.73,39.73,0,0,0,4-16.1,1,1,0,0,0-1.29-1.07Z"/><path d="M563,114.5a94.35,94.35,0,0,1-23.6-.14c-34.41-4.16-54-21.45-51.14-45.12a47.7,47.7,0,0,1,5.57-16.92c-5.44-15.39-3.44-31.63-1.73-40.06a7.8,7.8,0,0,1,11.19-5.41l29.39,15a49.4,49.4,0,0,1,33.73,3.47l30.4-7.14h0a7.81,7.81,0,0,1,9.59,7.92c-.31,7.58-1.92,22-9.11,34.94a49.9,49.9,0,0,1,2.54,21.72C597.68,100.48,584.14,111.73,563,114.5ZM499.3,51.25a2.76,2.76,0,0,1,0,2.63,43,43,0,0,0-5.54,16c-1.28,10.57,2.51,19.43,11.25,26.34,8.22,6.5,20.35,10.87,35.09,12.66s27.57.43,37.1-3.92c10.14-4.62,15.93-12.33,17.21-22.9a44.92,44.92,0,0,0-2.68-20.39,2.76,2.76,0,0,1,.21-2.33c7.14-12.18,8.7-26.21,9-33.49a2.29,2.29,0,0,0-2.82-2.34L566.71,30.9a2.75,2.75,0,0,1-1.87-.22A44,44,0,0,0,533,27.43a2.74,2.74,0,0,1-2.24-.37l-30-15.31a2.24,2.24,0,0,0-2,0,2.3,2.3,0,0,0-1.27,1.62C495.87,21.37,494,36.89,499.3,51.25Z"/><path class="cls-11" d="M531.09,82.35a18,18,0,0,0-.88,2.63c-1.89,7.37.85,14.43,6.11,15.78s11.06-3.53,12.95-10.9a20.63,20.63,0,0,0,.49-2.73Z"/><ellipse class="cls-12" cx="538.7" cy="92.97" rx="3.55" ry="5.27" transform="translate(314.95 591.74) rotate(-75.63)"/><path class="cls-13" d="M539.67,97a7.85,7.85,0,0,1-1.95-.25,7.16,7.16,0,0,1-3.55-2.05,3.45,3.45,0,0,1-1-3.17c.54-2.11,3.44-3.19,6.47-2.42s5,3.12,4.5,5.23h0C543.76,96,541.9,97,539.67,97Zm-2-7.36c-1.86,0-3.39.79-3.72,2.08a2.72,2.72,0,0,0,.79,2.46A6.31,6.31,0,0,0,537.91,96c2.61.67,5.08-.16,5.51-1.85s-1.33-3.6-3.94-4.27A7.58,7.58,0,0,0,537.69,89.68Z"/><path d="M552.12,76.08c-.48,2.78-5.88,5.84-8.66,5.36s-6.29-5.06-5.81-7.84,4.76-2.7,7.54-2.23S552.6,73.3,552.12,76.08Z"/><path class="cls-4" d="M549.08,75.16c-.08.49-1.15.72-2.39.51s-2.16-.78-2.07-1.28,1.15-.73,2.38-.52S549.17,74.66,549.08,75.16Z"/><path class="cls-2" d="M548.09,75.79a4.9,4.9,0,0,1-1.41-.05,4.41,4.41,0,0,1-1.56-.54c-.42-.26-.62-.55-.58-.82s.34-.48.82-.58a4.56,4.56,0,0,1,1.65,0c1.3.22,2.24.82,2.14,1.37h0C549.1,75.49,548.69,75.71,548.09,75.79Zm-2.47-1.89-.23,0c-.41.09-.67.26-.7.46s.15.45.51.68a4.46,4.46,0,0,0,1.51.52c1.17.2,2.22,0,2.3-.46h0c.08-.45-.85-1-2-1.2A4.57,4.57,0,0,0,545.62,73.9Z"/><path class="cls-1" d="M554.29,83.73c-.54,2.11-3.84,5.4-7.57,4.45s-6.3-3.44-5.76-5.55c-.54,2.11-4,3.05-7.72,2.1s-5-5.43-4.49-7.55"/><path d="M554.29,83.73a5,5,0,0,1-.69,2.33A7.62,7.62,0,0,1,552,88a7.06,7.06,0,0,1-2.29,1.39,6.63,6.63,0,0,1-2.85.35,11.26,11.26,0,0,1-1.34-.23c-.42-.11-.84-.23-1.26-.38A10.93,10.93,0,0,1,541.87,88a7.74,7.74,0,0,1-2.11-2.12,5.22,5.22,0,0,1-.71-1.64,4.58,4.58,0,0,1,0-2,2,2,0,1,1,3.83.87l0,.09v0a4.62,4.62,0,0,1-1,1.8,5.46,5.46,0,0,1-1.41,1.1,7.91,7.91,0,0,1-2.87.84,11,11,0,0,1-2.7-.09,11.37,11.37,0,0,1-1.29-.27,11.64,11.64,0,0,1-1.29-.44A6.7,6.7,0,0,1,530,84.38a7.42,7.42,0,0,1-1.77-4.82,4.94,4.94,0,0,1,.52-2.38,7.5,7.5,0,0,0,1.62,4,5,5,0,0,0,3,2,9.28,9.28,0,0,0,.93.14c.33,0,.65,0,1,0a9.35,9.35,0,0,0,1.86-.15,4.57,4.57,0,0,0,1.47-.53c.39-.22.46-.42.49-.5l3.81,1a.86.86,0,0,0,.19.67,4.32,4.32,0,0,0,1,1.17,8.79,8.79,0,0,0,1.56,1c.28.16.59.29.89.43a8,8,0,0,0,.87.32,5,5,0,0,0,3.55-.3A7.44,7.44,0,0,0,554.29,83.73Z"/><line x1="511.06" y1="77.43" x2="501.48" y2="76.27"/><path d="M510.93,78.55l-9.45-2.28,9.72,0a1.14,1.14,0,0,1,1.13,1.14,1.13,1.13,0,0,1-1.14,1.13A1.09,1.09,0,0,1,510.93,78.55Z"/><line x1="511.51" y1="82.95" x2="502.36" y2="86.05"/><path d="M511.87,84l-9.51,2,8.79-4.16a1.13,1.13,0,0,1,1,2Z"/><line x1="514.29" y1="87.74" x2="507.38" y2="94.49"/><path d="M515.08,88.55l-7.7,5.94,6.13-7.55a1.13,1.13,0,1,1,1.76,1.42A1.14,1.14,0,0,1,515.08,88.55Z"/><line x1="576.51" y1="85.35" x2="586.1" y2="86.51"/><path d="M576.65,84.24l9.45,2.27-9.72,0a1.12,1.12,0,0,1-1.13-1.14,1.14,1.14,0,0,1,1.14-1.13A1.27,1.27,0,0,1,576.65,84.24Z"/><line x1="574.76" y1="90.61" x2="582.91" y2="95.8"/><path d="M575.37,89.66l7.54,6.14-8.75-4.24a1.13,1.13,0,1,1,1-2Z"/><line x1="570.91" y1="94.6" x2="576.01" y2="102.8"/><path d="M571.87,94l4.14,8.8-6-7.61a1.13,1.13,0,0,1,1.77-1.41A1,1,0,0,1,571.87,94Z"/><path d="M587.35,160.07A33.41,33.41,0,0,0,582,168a20.06,20.06,0,0,0-2.09,8.53,15.88,15.88,0,0,0,.56,4.13,20.42,20.42,0,0,0,1.49,3.91,45,45,0,0,0,4.85,7.38l0,0a3,3,0,0,1-4.39,4.1,25.49,25.49,0,0,1-6.42-8.8,12.47,12.47,0,0,1-.52-1.32c-.15-.45-.33-.89-.46-1.35a24.7,24.7,0,0,1-.57-2.82,19.3,19.3,0,0,1,0-5.73,21.62,21.62,0,0,1,4.46-10,25.87,25.87,0,0,1,7.87-6.71.44.44,0,0,1,.59.18.42.42,0,0,1-.06.49Z"/><path class="cls-1" d="M531.18,151.14l7.88,38.62c-4.15,1.62-7.67,5.42-6.78,13.85h28.66l8.34-44.17Z"/><path d="M531.63,151c1.26,3.1,2.29,6.24,3.29,9.39s1.88,6.32,2.71,9.5,1.6,6.38,2.33,9.59,1.4,6.41,2,9.64v0a3,3,0,0,1-1.84,3.34,9.19,9.19,0,0,0-2.62,1.56,7,7,0,0,0-1.7,2.4,10.52,10.52,0,0,0-.81,3.19,22.18,22.18,0,0,0,0,3.64l-2.77-2.49c2.39,0,4.78,0,7.17,0l7.16-.05,14.33-.17L558,203.06q1-5.53,2.06-11.05l1.12-5.51,1.18-5.49c.8-3.66,1.67-7.31,2.73-10.92a92.93,92.93,0,0,1,3.73-10.74.47.47,0,0,1,.62-.24.48.48,0,0,1,.29.41,93.1,93.1,0,0,1-.44,11.36c-.33,3.75-.84,7.46-1.44,11.16l-.89,5.55-1,5.54q-1,5.53-2.11,11v.07a3,3,0,0,1-2.93,2.37l-14.33-.17-7.16-.05c-2.39,0-4.78,0-7.17,0a2.77,2.77,0,0,1-2.77-2.49,26.52,26.52,0,0,1-.1-4.73,17,17,0,0,1,1.12-4.92,13,13,0,0,1,3-4.46A14.12,14.12,0,0,1,538,187l-1.83,3.37c-.69-3.21-1.32-6.43-1.91-9.66s-1.13-6.48-1.62-9.73-.89-6.52-1.23-9.81-.59-6.58-.65-9.92a.47.47,0,0,1,.9-.19Z"/><path class="cls-1" d="M630.1,179.93s-6.73,21-14.91,23.68H569.57s-8-31,32.41-13.25"/><path d="M632.13,182.78c-.76,2.26-1.58,4.34-2.5,6.46s-1.93,4.19-3.07,6.23a38.08,38.08,0,0,1-4,5.93,20,20,0,0,1-2.73,2.71,12.21,12.21,0,0,1-3.74,2.12,2.8,2.8,0,0,1-.85.14H571.56a2.73,2.73,0,0,1-2.65-2.08c-.13-.52-.2-.88-.28-1.31s-.15-.82-.21-1.23c-.11-.83-.19-1.66-.24-2.5a21.69,21.69,0,0,1,.34-5.17,13.46,13.46,0,0,1,2.17-5.19,11.12,11.12,0,0,1,4.56-3.72,13.66,13.66,0,0,1,5.33-1.17,20.79,20.79,0,0,1,5,.5A30.08,30.08,0,0,1,594.3,188a.94.94,0,0,1,.33,1.28,1,1,0,0,1-.92.46h0a84.53,84.53,0,0,0-8.68-.79,15,15,0,0,0-7.3,1.32,6.39,6.39,0,0,0-2.23,2,9,9,0,0,0-1.26,3,15.28,15.28,0,0,0-.38,3.76,16.44,16.44,0,0,0,.12,2c0,.33.08.66.13,1s.12.68.17.89l-2.68-2.08h43.6l-.87.14a10,10,0,0,0,4-3.16,33.1,33.1,0,0,0,3.43-5.07c1-1.84,2-3.76,2.82-5.73s1.65-4,2.31-6l0-.05a2.75,2.75,0,1,1,5.22,1.75Z"/><g class="cls-3"><path d="M576.8,185.61c-10.65,3.45-6.88,18-6.88,18h45.62c6.05-2,11.3-14,13.63-20.1a32.54,32.54,0,0,0,1.88-5.12,73.52,73.52,0,0,0,2.66-14.77C615.23,189.63,620.17,195.12,576.8,185.61Z"/></g><g class="cls-14"><path d="M539.06,189.76c-4.15,1.62-7.67,5.42-6.78,13.85h28.66l5.2-27.55C561,183.81,552.63,190.29,539.06,189.76Z"/></g><path d="M544.59,192.87a5.33,5.33,0,0,0-1.07,2.48,10.24,10.24,0,0,0-.13,2.65,16.59,16.59,0,0,0,.38,2.61l.33,1.28.4,1.26v.06a2.09,2.09,0,0,1-4,1.25,2,2,0,0,1-.09-.76l.09-1.51c0-.5.11-1,.17-1.5a18.72,18.72,0,0,1,.65-3,11.89,11.89,0,0,1,1.22-2.75A5.9,5.9,0,0,1,544.59,192.87Z"/><path d="M552,193.72a14.13,14.13,0,0,0-.92,5.07,13,13,0,0,0,.23,2.44,12.78,12.78,0,0,0,.64,2.26,2.23,2.23,0,0,1-4.19,1.5,2.44,2.44,0,0,1-.13-.88v0a16.2,16.2,0,0,1,.41-3,15.87,15.87,0,0,1,3.95-7.37Z"/><path d="M519.13,194.21a4.55,4.55,0,0,0-.94,2.16,9,9,0,0,0-.11,2.32,14.46,14.46,0,0,0,.34,2.27l.29,1.12.35,1.11v.05a1.82,1.82,0,0,1-3.48,1.1,1.9,1.9,0,0,1-.08-.66l.08-1.32c0-.44.09-.88.14-1.32a17.6,17.6,0,0,1,.57-2.59,10.16,10.16,0,0,1,1.06-2.41A5.1,5.1,0,0,1,519.13,194.21Z"/><path d="M526.21,194.34a13,13,0,0,0-.85,4.74,12.16,12.16,0,0,0,.21,2.28,12.86,12.86,0,0,0,.6,2.11,2.08,2.08,0,1,1-3.91,1.41,2.33,2.33,0,0,1-.12-.82v0a15.22,15.22,0,0,1,.38-2.8,14.69,14.69,0,0,1,.84-2.58A14.11,14.11,0,0,1,526.21,194.34Z"/><g class="cls-9"><path d="M597.27,21.88l-31.36,7.37a47.41,47.41,0,0,0-15.67-4.8c-.44-.05-6.88-.21-7.31-.25,19.81,7.17,39.85,22.74,42.91,42,4.22,26.52-5.57,34-19.61,46,16.63-3.15,28.71-12.31,30.7-28.73a47.74,47.74,0,0,0-2.82-21.66c7.3-12.48,9-26.68,9.36-34.78A5,5,0,0,0,597.27,21.88Z"/></g><path d="M514.1,61.63A9,9,0,0,1,519,57.85a10.51,10.51,0,0,1,3.28-.49,10,10,0,0,1,3.37.68,12.1,12.1,0,0,1,1.49.72,13.66,13.66,0,0,1,1.37.92,9.82,9.82,0,0,1,2.25,2.51,6.59,6.59,0,0,1,.54,6.31,11.93,11.93,0,0,0-3.38-3.92,17.54,17.54,0,0,0-1.92-1.2c-.36-.15-.66-.36-1-.5a9.2,9.2,0,0,0-1-.45l-.49-.2c-.17,0-.34-.09-.51-.15-.33-.14-.7-.16-1.05-.28a19.77,19.77,0,0,0-2.3-.29A43.59,43.59,0,0,0,514.1,61.63Z"/><path d="M579.53,67.45a43.88,43.88,0,0,0-5.3-1.44,19.37,19.37,0,0,0-2.3-.27c-.37,0-.73,0-1.08,0-.18,0-.36,0-.53,0l-.53.08a7.88,7.88,0,0,0-1.12.18c-.4,0-.74.18-1.13.24a16.85,16.85,0,0,0-2.15.7,11.78,11.78,0,0,0-4.22,3,6.53,6.53,0,0,1,2-6,9.68,9.68,0,0,1,2.78-1.9,15.31,15.31,0,0,1,1.56-.56,13.25,13.25,0,0,1,1.62-.34,10.11,10.11,0,0,1,3.43.15,10.42,10.42,0,0,1,3.07,1.27A9,9,0,0,1,579.53,67.45Z"/><path d="M541,84.6a2,2,0,0,1-.63-.11A2,2,0,0,1,539.1,82l1.84-5.45a2,2,0,1,1,3.73,1.27l-1.84,5.44A2,2,0,0,1,541,84.6Z"/><path d="M580.93,192.49a5,5,0,0,0-1,2.34,9.45,9.45,0,0,0-.13,2.49,15.69,15.69,0,0,0,.36,2.46l.31,1.21.38,1.19v0a2,2,0,0,1-3.76,1.18,1.92,1.92,0,0,1-.08-.71l.08-1.42c0-.48.11-.95.16-1.42a18.76,18.76,0,0,1,.62-2.79,11.43,11.43,0,0,1,1.15-2.6A5.42,5.42,0,0,1,580.93,192.49Z"/><path d="M588,193.29a13.22,13.22,0,0,0-.87,4.78,12.37,12.37,0,0,0,.22,2.3,11.57,11.57,0,0,0,.6,2.13,2.1,2.1,0,0,1-3.95,1.42,2,2,0,0,1-.12-.84v0a17.13,17.13,0,0,1,.39-2.81,15.65,15.65,0,0,1,.86-2.61A14.21,14.21,0,0,1,588,193.29Z"/><path class="cls-1" d="M183.44,148.64c-1.42-3.59-3.31-6.14-7.09-3.79-6.15,3.82-.56,14.7.74,19.6,2.08,7.8,3.77,16.43-1.74,23.41-9.22,11.67-28.42,7.87-37.95-1.35-3.85-3.72-7.05-9-6.57-14.62.24-2.82.9-6.32,4.35-6.28,5.16,0,3.1,4.27,4.06,7.19,2.62,7.91,18,16.06,24.71,8.6,4.32-4.81-1.43-13.68-3.16-18.3-3.89-10.33-5.34-21.37,2.47-30.1,10.24-11.44,26.32-9.79,35.57,2.13,2.84,3.66,5.23,7.83,3.49,12.66C199.3,156.11,187.22,156.7,183.44,148.64Z"/><path class="cls-2" d="M159,195.53a32.69,32.69,0,0,1-21.91-8.73c-4.67-4.52-7.11-10-6.68-15,.26-3.09,1-6.64,4.68-6.64h.06c4,0,4.08,2.57,4.13,4.81a9.2,9.2,0,0,0,.31,2.66c1.56,4.73,7.91,9.63,14.15,10.94,4.16.87,7.67,0,9.88-2.48,3.29-3.66.34-10-1.81-14.67-.55-1.18-1.07-2.29-1.42-3.23-4.93-13.1-4.09-23.08,2.55-30.5a22.48,22.48,0,0,1,17.65-7.87c7,.24,13.77,3.9,18.52,10,2.79,3.59,5.38,8,3.54,13a10.72,10.72,0,0,1-19.6.89v0c-1-2.59-2-3.92-3.25-4.32a3.85,3.85,0,0,0-3.26.72c-4.71,2.92-2.1,10.34-.2,15.76.46,1.31.86,2.45,1.11,3.4,2.07,7.76,3.8,16.64-1.81,23.75-3.48,4.41-8.6,7-14.81,7.37C160.24,195.51,159.64,195.53,159,195.53ZM135.13,166c-3,0-3.66,3-3.91,5.92-.57,6.73,4.32,12.25,6.45,14.31a32.16,32.16,0,0,0,23.12,8.46c6-.4,10.91-2.85,14.25-7.08,5.39-6.82,3.78-15.13,1.67-23.06-.24-.92-.64-2-1.09-3.34-1.88-5.35-4.72-13.44.52-16.69a4.6,4.6,0,0,1,3.92-.8c1.88.62,3,2.87,3.74,4.77a9.94,9.94,0,0,0,18.15-.84c1.71-4.72-.78-8.86-3.43-12.28-4.61-5.94-11.14-9.48-17.92-9.72a21.69,21.69,0,0,0-17,7.62c-6.42,7.18-7.21,16.89-2.4,29.7.35.9.86,2,1.4,3.17,2.25,4.84,5.32,11.48,1.69,15.53-2.41,2.68-6.19,3.65-10.63,2.72-6.49-1.36-13.1-6.5-14.74-11.46a10.38,10.38,0,0,1-.35-2.9c-.05-2.32-.09-4-3.34-4Z"/><g class="cls-3"><path class="cls-2" d="M198.83,135.13c-.18-.23-.36-.44-.55-.65a6.82,6.82,0,0,1-4.21,6.05c-7.62,3.75-14.66-7.94-23.31-1.43a12.84,12.84,0,0,0-4.95,10.06c-.33,19.38,15.89,32.17-2.52,32.9-7,6.29-21.51-1.59-24-9.26-1-2.92,1.1-7.14-4.06-7.19-3.45,0-4.11,3.46-4.35,6.28-.48,5.57,2.72,10.9,6.57,14.62,9.53,9.22,28.73,13,37.95,1.35,5.51-7,3.82-15.61,1.74-23.41-1.3-4.9-6.89-15.78-.74-19.6,3.78-2.35,5.67.2,7.09,3.79,3.78,8.06,15.86,7.47,18.88-.85C204.06,143,201.67,138.79,198.83,135.13Z"/></g><path d="M159.05,197.64a34.8,34.8,0,0,1-23.39-9.33c-5.14-5-7.81-11-7.33-16.63s2.85-8.58,6.84-8.58c6.1.07,6.2,4.83,6.25,6.87a8.56,8.56,0,0,0,.2,2.05c1.31,3.95,7.19,8.41,12.59,9.53a12.78,12.78,0,0,0,2.6.29,6.74,6.74,0,0,0,5.27-2.11c2.36-2.63-.36-8.49-2.16-12.37-.57-1.23-1.1-2.37-1.48-3.37-5.23-13.92-4.26-24.6,2.95-32.66a24.65,24.65,0,0,1,18.44-8.59l.87,0c7.65.27,15,4.22,20.11,10.84,2.95,3.8,6.06,9,3.86,15a12.46,12.46,0,0,1-11.41,8.22l-.63,0a12.48,12.48,0,0,1-11.46-7.18l-.06-.13c-1-2.45-1.66-3-1.91-3.08l-.48-.21-.1.24a4.25,4.25,0,0,0-1,.46c-3.27,2-.89,8.79.68,13.27.46,1.3.89,2.52,1.16,3.55,2.2,8.26,4,17.74-2.19,25.61-3.86,4.89-9.51,7.71-16.33,8.17C160.35,197.62,159.7,197.64,159.05,197.64Zm-23.93-29.53c-1,0-1.56,1.19-1.8,4-.49,5.83,3.9,10.76,5.82,12.61a30.1,30.1,0,0,0,19.94,7.92c.53,0,1,0,1.57,0a17.29,17.29,0,0,0,12.74-6.27c4.78-6.06,3.26-13.81,1.28-21.22-.22-.83-.61-2-1-3.15-2-5.65-5.29-15.07,1.39-19.21a7.53,7.53,0,0,1,4-1.29,5.62,5.62,0,0,1,1.72.27c2.69.89,4.09,3.63,5,5.92a7.62,7.62,0,0,0,7,4.24H193a7.57,7.57,0,0,0,6.93-4.93c1.11-3.07.24-6-3.11-10.27-4.22-5.44-10.17-8.68-16.33-8.9h-.66a19.72,19.72,0,0,0-14.73,6.92c-5.94,6.63-6.57,15.39-2,27.55.32.84.81,1.91,1.33,3,2.36,5.08,5.91,12.74,1.35,17.83a11.74,11.74,0,0,1-9,3.77,17.89,17.89,0,0,1-3.63-.39c-7.26-1.52-14.43-7.18-16.31-12.87a11.7,11.7,0,0,1-.46-3.51,13.54,13.54,0,0,0-.08-1.49l-.06-.35-.35-.06a4.13,4.13,0,0,0-.77-.07Z"/><path class="cls-4" d="M179.83,123.24l.85,0c7.5.26,14.69,4.14,19.73,10.64,2.88,3.71,5.91,8.72,3.79,14.57a12,12,0,0,1-11,7.89l-.61,0a11.84,11.84,0,0,1-11-6.88.61.61,0,0,1,0-.12c-.77-1.92-1.5-3-2.18-3.35l-1-.43-.2.52a5.19,5.19,0,0,0-.83.44c-3.61,2.23-1.25,8.95.47,13.86.45,1.28.88,2.5,1.15,3.51,2.17,8.14,4,17.48-2.11,25.17-3.77,4.77-9.29,7.53-16,8-.62,0-1.26.06-1.9.06A34.32,34.32,0,0,1,136,188c-5-4.85-7.63-10.77-7.17-16.23s2.59-8.12,6.37-8.12c4.92.05,5.65,3.26,5.72,6.39a8.14,8.14,0,0,0,.23,2.18c1.37,4.17,7.31,8.69,12.95,9.87a13.22,13.22,0,0,0,2.71.3,7.25,7.25,0,0,0,5.65-2.28c2.57-2.87-.12-8.67-2.1-12.93-.55-1.2-1.08-2.34-1.45-3.32-5.16-13.72-4.22-24.23,2.86-32.14a24.11,24.11,0,0,1,18.06-8.43m-23,63.11a17.62,17.62,0,0,1-3.53-.38c-7.1-1.49-14.11-7-15.94-12.54a11.31,11.31,0,0,1-.43-3.37,12.8,12.8,0,0,0-.09-1.55l-.11-.7-.69-.13a5.12,5.12,0,0,0-.82-.07h-.08c-1.68,0-2.1,2.14-2.29,4.45-.52,6,4,11.11,6,13a30.61,30.61,0,0,0,20.29,8.06c.54,0,1.08,0,1.61,0a17.8,17.8,0,0,0,13.09-6.46c4.93-6.24,3.38-14.12,1.38-21.66-.23-.85-.63-2-1.06-3.21-1.93-5.49-5.15-14.66,1.19-18.6a7.18,7.18,0,0,1,3.72-1.21,4.9,4.9,0,0,1,1.56.25c2.5.82,3.82,3.44,4.7,5.62v.06a8,8,0,0,0,7.4,4.5h.37a8,8,0,0,0,7.37-5.26c1.18-3.25.29-6.27-3.18-10.74-4.31-5.56-10.4-8.88-16.71-9.1h-.68a20.25,20.25,0,0,0-15.11,7.09c-6.07,6.78-6.73,15.7-2.09,28.06.32.85.82,1.93,1.35,3.07,2.3,4.95,5.77,12.43,1.43,17.27a11.22,11.22,0,0,1-8.63,3.61m23-64.11A25.1,25.1,0,0,0,161,131c-7.35,8.21-8.35,19.06-3.05,33.16.39,1,.93,2.19,1.5,3.41,1.74,3.76,4.38,9.44,2.24,11.83a6.35,6.35,0,0,1-4.9,1.94,13,13,0,0,1-2.5-.27c-5.25-1.1-11-5.4-12.21-9.21a7.68,7.68,0,0,1-.18-1.9c0-2-.16-7.29-6.71-7.36h0c-3,0-6.7,1.54-7.34,9-.49,5.76,2.24,12,7.48,17a35.39,35.39,0,0,0,23.74,9.47c.66,0,1.32,0,2-.06,7-.47,12.74-3.36,16.69-8.36,6.36-8.06,4.52-17.67,2.29-26.05-.28-1-.72-2.28-1.18-3.58-1.51-4.33-3.81-10.87-.89-12.69a2.7,2.7,0,0,1,1.07-.46s.66.32,1.65,2.81a1.22,1.22,0,0,0,.07.17,12.92,12.92,0,0,0,11.91,7.46l.65,0a13,13,0,0,0,11.86-8.55c2.28-6.31-.9-11.61-3.94-15.52-5.22-6.74-12.69-10.76-20.48-11l-.89,0Zm-23,65.11a12.18,12.18,0,0,0,9.37-3.94c4.79-5.33,1.15-13.18-1.26-18.37-.52-1.12-1-2.18-1.32-3-4.5-12-3.9-20.57,1.9-27a19.2,19.2,0,0,1,14.36-6.76h.64c6,.21,11.83,3.39,16,8.71,3.22,4.16,4.07,6.91,3,9.79a7.07,7.07,0,0,1-6.48,4.6h-.32a7.06,7.06,0,0,1-6.5-3.93c-1-2.41-2.44-5.25-5.31-6.2a6,6,0,0,0-1.87-.3,8.09,8.09,0,0,0-4.25,1.36c-7,4.36-3.63,14-1.6,19.78.41,1.19.81,2.32,1,3.14,1.94,7.29,3.45,14.9-1.2,20.78a16.8,16.8,0,0,1-12.37,6.08c-.51,0-1,0-1.54,0a29.56,29.56,0,0,1-19.59-7.78c-1.87-1.8-6.15-6.59-5.67-12.21.29-3.43,1-3.53,1.3-3.53h0a3.28,3.28,0,0,1,.68.06,12.38,12.38,0,0,1,.08,1.42,12.54,12.54,0,0,0,.48,3.66c1.93,5.84,9.26,11.64,16.69,13.2a18.23,18.23,0,0,0,3.73.4Z"/><path class="cls-1" d="M21,142.26l9.7,47.5c-4.16,1.62-7.68,5.42-6.79,13.85H52.57l11.58-61.35Z"/><path class="cls-2" d="M52.9,204H23.56l0-.35c-.76-7.2,1.51-11.95,6.72-14.15l-9.72-47.64h44.1l-.09.46Zm-28.63-.79h28l11.42-60.57H21.48L31.15,190l-.31.12C25.86,192.08,23.65,196.48,24.27,203.22Z"/><g class="cls-3"><path class="cls-2" d="M20.26,144.42l19.65,48c-4.15,1.63-10.16,3.1-9.27,11.54l9-.32H58.71l11.57-61.35Z"/></g><path d="M52.57,206.62H23.91a3,3,0,0,1-3-2.69c-1-9.2,2.88-13.68,6.37-15.82l-9.24-45.25a3,3,0,0,1,5.89-1.2l9.7,47.49a3,3,0,0,1-1.85,3.4c-2.16.85-4.87,2.61-5,8.06h23.3L58,158.88A3,3,0,0,1,63.86,160l-8.33,44.17A3,3,0,0,1,52.57,206.62Z"/><path class="cls-1" d="M85.76,91.47s4.68,19.63,23.32,23.73,47.49,20.58,35.56,63.19-75.91-6.48-75.91-6.48-40.22,8.87-54.61-23.86S38.12,60.45,85.76,91.47Z"/><g class="cls-3"><ellipse class="cls-2" cx="59.87" cy="100.93" rx="38.95" ry="32.2" transform="translate(-5.6 3.54) rotate(-3.24)"/></g><g class="cls-3"><path class="cls-2" d="M101,159.72c-3.6,2.48-8,10.85-8,10.85s-4-4.32-46.11-9.39c-24-2.89-32.69-14.94-35.75-24.76a36.54,36.54,0,0,0,2.9,11.63c14.39,32.73,54.61,23.86,54.61,23.86s21.84,16.75,42.38,22.19C87,177.65,104.39,157.41,101,159.72Z"/></g><circle class="cls-5" cx="61.52" cy="82.86" r="40.56" transform="translate(-40.57 67.77) rotate(-45)"/><path d="M122.79,198.77c-21.54,0-48.93-19.33-54.8-23.66a69.54,69.54,0,0,1-21.64.11c-16.57-2.62-28.67-11.6-35-26-8.15-18.51-1-43.75,16.62-58.71C45.05,76.06,66.7,75.48,87.4,89a3,3,0,0,1,1.28,1.82c.19.79,4.56,17.87,21,21.5,7.1,1.56,24.68,7,34.39,23.13,7.09,11.83,8.25,26.57,3.42,43.8-2.66,9.49-7.95,15.62-15.73,18.21A28.41,28.41,0,0,1,122.79,198.77ZM68.73,168.91a3,3,0,0,1,1.83.62c.38.29,38.39,29.17,59.35,22.18,5.85-2,9.72-6.57,11.84-14.13,4.36-15.58,3.42-28.73-2.8-39.09-8.5-14.18-24.18-19-30.52-20.35C90.76,114.24,84.59,98,83.17,93.38c-18-11.3-36.66-10.68-51.29,1.75-15.42,13.09-22,35.8-15,51.71,5.5,12.53,15.68,20.07,30.24,22.42a63.12,63.12,0,0,0,21-.28A2.79,2.79,0,0,1,68.73,168.91Z"/><path d="M72,124.5a42.93,42.93,0,1,1,32.47-41.43h0A43,43,0,0,1,72,124.5ZM52.22,45.8a38.23,38.23,0,1,0,9.48-1.14A38.27,38.27,0,0,0,52.22,45.8Zm49.86,37.25h0Z"/><g class="cls-3"><path class="cls-2" d="M62.38,42.13A40.57,40.57,0,0,0,23.36,71c8.12,1.3,15.8,3.61,22.67,9.13C59,90.47,64.73,106.76,68.5,122.76a40.56,40.56,0,0,0-6.12-80.63Z"/></g><circle class="cls-6" cx="48.22" cy="117.86" r="10.06" transform="translate(-53.32 41.01) rotate(-30.63)"/><path class="cls-2" d="M48.22,128.31a10.45,10.45,0,1,1,10.12-7.85A10.44,10.44,0,0,1,48.22,128.31Zm0-20.11a9.66,9.66,0,1,0,9.36,12.06h0a9.68,9.68,0,0,0-7-11.76A9.92,9.92,0,0,0,48.22,108.2Z"/><g class="cls-3"><path class="cls-2" d="M54.53,110.42a11.71,11.71,0,0,0-1-.69,10,10,0,0,1-15.1,10,10.06,10.06,0,1,0,16.14-9.29Z"/></g><path d="M48.22,130.93a13.38,13.38,0,0,1-3.24-.41,13.06,13.06,0,1,1,15.89-9.41h0A13.08,13.08,0,0,1,48.22,130.93Zm0-20.12a7.05,7.05,0,1,0,6.83,8.8h0a7,7,0,0,0-6.83-8.8Z"/><path d="M45.72,128.79a1.55,1.55,0,0,1-.29,0,1.19,1.19,0,0,1-.85-1.44l2.5-9.74a1.18,1.18,0,1,1,2.28.59l-2.49,9.74A1.19,1.19,0,0,1,45.72,128.79Z"/><path class="cls-1" d="M106,14.21,75.65,25.15a46.74,46.74,0,0,0-33.92.48l0,0L9.86,13.75a5.05,5.05,0,0,0-6.79,4.33c-.75,8.8-.77,25,6.61,39.23l0,0A46.09,46.09,0,0,0,5.84,74.9c-.12,24.53,23.75,36,53.27,36.15s53.5-11.11,53.61-35.64a47.61,47.61,0,0,0-5.3-21.19c5.82-13.24,5.9-27.54,5.29-35.62A5.05,5.05,0,0,0,106,14.21Z"/><path class="cls-7" d="M106,15.21,75.65,26.15a49.41,49.41,0,0,0-9.3-2.4,34.21,34.21,0,0,0,46.23,49.37,49.24,49.24,0,0,0-5.16-17.9c5.82-13.24,5.9-27.54,5.29-35.62A5.05,5.05,0,0,0,106,15.21Z"/><path class="cls-8" d="M17.47,27.16a2.62,2.62,0,0,0-3.53,2.24c-.37,4.35-.39,12.17,2.91,19.29.17.36.34.73.53,1.09h0a19.07,19.07,0,0,1,1.25-2.69A32.26,32.26,0,0,1,34,33.33h0Z"/><path class="cls-2" d="M17.21,50.27,17,50q-.29-.55-.54-1.11c-3.38-7.29-3.29-15.33-2.94-19.48a3,3,0,0,1,4.06-2.58l17.12,6.37-.55.53A31.86,31.86,0,0,0,19,47.27a19.45,19.45,0,0,0-1.23,2.63l-.05.17ZM16,27.45a2.25,2.25,0,0,0-1.69,2c-.34,4.07-.42,12,2.88,19.08,0,.1.09.2.14.3a20.52,20.52,0,0,1,.95-1.92A32.53,32.53,0,0,1,33,33.36L17.33,27.53A2.18,2.18,0,0,0,16,27.45Z"/><g class="cls-9"><path class="cls-2" d="M23,29a1.75,1.75,0,0,0-2.48,1.28,26.48,26.48,0,0,0,.79,13c.09.25.18.51.29.76h0a12.54,12.54,0,0,1,1-1.71,21.53,21.53,0,0,1,11.06-8.25h0Z"/></g><path d="M17.77,51.3A1.6,1.6,0,0,1,16,50.5c-.2-.38-.38-.77-.56-1.15-3.49-7.54-3.41-15.82-3-20.08A4.18,4.18,0,0,1,18,25.69l16.56,6.16a1.56,1.56,0,0,1,1,1.12,1.61,1.61,0,0,1-.4,1.44,1.82,1.82,0,0,1-.51.36A30.72,30.72,0,0,0,20,47.84a17.2,17.2,0,0,0-1.14,2.44,1.58,1.58,0,0,1-.91.95ZM16.31,28.6a.9.9,0,0,0-.31.13,1.06,1.06,0,0,0-.49.81A39.67,39.67,0,0,0,17.44,46,33.51,33.51,0,0,1,30.11,33.54L16.92,28.63h0A1,1,0,0,0,16.31,28.6Z"/><path class="cls-10" d="M100.11,26.24a2.62,2.62,0,0,1,3.5,2.29c.31,4.35.23,12.17-3.15,19.24-.18.36-.35.73-.54,1.08h0a18,18,0,0,0-1.22-2.7A32.19,32.19,0,0,0,83.48,32.2h0Z"/><path class="cls-2" d="M100.1,49.35l-.5-.2L99.53,49a19.82,19.82,0,0,0-1.19-2.64,31.92,31.92,0,0,0-15-13.77l-.1-.07-.47-.44.59-.23L100,25.87a3,3,0,0,1,2.66.31A3,3,0,0,1,104,28.5c.3,4.15.28,12.19-3.19,19.44-.18.37-.35.74-.55,1.1ZM84.49,32.24A32.56,32.56,0,0,1,99,46c.43.8.73,1.46.93,1.94l.14-.3c3.39-7.08,3.41-15,3.11-19a2.23,2.23,0,0,0-3-1.95Z"/><g class="cls-9"><path class="cls-2" d="M94.93,27.45a1.87,1.87,0,0,1,2.65,1.39,28.24,28.24,0,0,1-.94,13.92c-.1.27-.2.54-.31.81h0a13.2,13.2,0,0,0-1-1.84,23,23,0,0,0-11.78-8.91h0Z"/></g><path d="M100.3,50.38a1.58,1.58,0,0,1-1-.07,1.65,1.65,0,0,1-.92-1,16.93,16.93,0,0,0-1.1-2.44A30.73,30.73,0,0,0,82.82,33.63a1.37,1.37,0,0,1-.42-.29,1.57,1.57,0,0,1,.54-2.63l16.64-5.95h0a4.18,4.18,0,0,1,5.59,3.65c.31,4.27.29,12.55-3.3,20-.18.39-.36.77-.57,1.15A1.53,1.53,0,0,1,100.3,50.38ZM87.39,32.46A33.53,33.53,0,0,1,99.9,45.09,39.78,39.78,0,0,0,102,28.64a1.07,1.07,0,0,0-.48-.81,1,1,0,0,0-.92-.11Z"/><path d="M82.56,112.22A95.21,95.21,0,0,1,59.1,114.8C24.44,114.64,3,99.73,3.09,75.89A47.68,47.68,0,0,1,6.67,58.44C-.51,43.78-.4,27.42.32,18.84a7.82,7.82,0,0,1,10.5-6.67L41.74,23.68a49.4,49.4,0,0,1,33.91-.45L105,12.62h0a7.8,7.8,0,0,1,10.43,6.77c.57,7.56.64,22.07-5,35.75a50,50,0,0,1,5,21.28C115.39,94.28,103.23,107,82.56,112.22ZM12,56.75a2.7,2.7,0,0,1,.27,2.61A43,43,0,0,0,8.59,75.91c-.05,10.65,4.73,19,14.22,24.87,8.91,5.5,21.47,8.45,36.31,8.52s27.44-2.76,36.4-8.17C105.06,95.36,109.92,87,110,76.39a44.85,44.85,0,0,0-5-20,2.75,2.75,0,0,1,0-2.33c5.68-12.93,5.61-27,5.06-34.31a2.29,2.29,0,0,0-3.07-2L76.59,28.74a2.76,2.76,0,0,1-1.88,0,43.94,43.94,0,0,0-32,.45,2.76,2.76,0,0,1-2.27-.11L8.9,17.33a2.31,2.31,0,0,0-3.09,2C5.12,27.45,5,43.1,12,56.75Z"/><path class="cls-11" d="M45.72,84a2,2,0,0,0-.29.84c-.26,2.37,3.92,4.77,9.32,5.35s10-.89,10.24-3.26a2.1,2.1,0,0,0-.11-.89Z"/><path d="M62.52,74c.07,2.82-4.63,6.87-7.45,7s-7.15-3.74-7.23-6.56,4.14-3.57,7-3.65S62.44,71.16,62.52,74Z"/><path class="cls-4" d="M59.35,73.67c0,.5-1,.94-2.24,1s-2.27-.35-2.28-.85,1-.94,2.24-1S59.34,73.17,59.35,73.67Z"/><path class="cls-2" d="M58.51,74.49a4.76,4.76,0,0,1-1.39.22,4.31,4.31,0,0,1-1.64-.23c-.46-.17-.72-.41-.73-.69s.24-.53.69-.73a4.33,4.33,0,0,1,1.62-.31c1.31,0,2.35.37,2.37.92h0C59.44,74,59.08,74.29,58.51,74.49Zm-2.79-1.38-.22.08c-.39.17-.61.39-.6.6s.23.41.63.56a4.44,4.44,0,0,0,1.58.22c1.19,0,2.18-.44,2.17-.9h0c0-.45-1-.81-2.21-.78A4.54,4.54,0,0,0,55.72,73.11Z"/><path class="cls-1" d="M68.1,81.61c-.2,2.18-2.95,6-6.77,5.58s-6.77-2.41-6.56-4.58c-.21,2.17-3.48,3.63-7.3,3.27s-5.82-4.58-5.61-6.75"/><path d="M68,81.28a5,5,0,0,1-.24,2.42,7.91,7.91,0,0,1-1.18,2.24,7.15,7.15,0,0,1-2,1.79,6.51,6.51,0,0,1-2.73.88,13,13,0,0,1-1.37,0c-.43,0-.86-.07-1.3-.14a10.5,10.5,0,0,1-2.6-.75,7.54,7.54,0,0,1-2.47-1.68,5.06,5.06,0,0,1-1-1.48,4.59,4.59,0,0,1-.38-2,2,2,0,0,1,3.93.13v.1h0a4.48,4.48,0,0,1-.62,2,5.4,5.4,0,0,1-1.17,1.35,7.6,7.6,0,0,1-2.67,1.36,10.38,10.38,0,0,1-2.67.42,11.42,11.42,0,0,1-1.31,0,12.82,12.82,0,0,1-1.35-.19,6.62,6.62,0,0,1-2.6-1.21,7.32,7.32,0,0,1-1.76-2,7.56,7.56,0,0,1-.89-2.38,5,5,0,0,1,.07-2.43,7.59,7.59,0,0,0,2.33,3.61,5,5,0,0,0,3.28,1.37,6.19,6.19,0,0,0,.93,0c.33,0,.66-.06,1-.13a9.15,9.15,0,0,0,1.8-.5,4.31,4.31,0,0,0,1.34-.79.92.92,0,0,0,.39-.58l3.92.24a1,1,0,0,0,.32.63,4.37,4.37,0,0,0,1.23,1,8.38,8.38,0,0,0,1.73.72c.31.11.63.17,1,.25a7.78,7.78,0,0,0,.92.16,5,5,0,0,0,3.43-1A7.56,7.56,0,0,0,68,81.28Z"/><line x1="23.82" y1="79.14" x2="14.17" y2="78.65"/><path d="M23.76,80.26l-9.59-1.61L23.88,78A1.13,1.13,0,0,1,24,80.27,1.22,1.22,0,0,1,23.76,80.26Z"/><line x1="24.65" y1="84.61" x2="15.75" y2="88.35"/><path d="M25.09,85.65l-9.34,2.7,8.47-4.78a1.14,1.14,0,0,1,1.54.44,1.12,1.12,0,0,1-.43,1.54A1.22,1.22,0,0,1,25.09,85.65Z"/><line x1="27.77" y1="89.19" x2="21.35" y2="96.41"/><path d="M28.61,89.94l-7.26,6.47,5.58-8a1.14,1.14,0,0,1,1.86,1.31A1.09,1.09,0,0,1,28.61,89.94Z"/><line x1="89.66" y1="82.42" x2="99.31" y2="82.91"/><path d="M89.72,81.3l9.59,1.61-9.7.64a1.13,1.13,0,1,1,.11-2.25Z"/><line x1="88.29" y1="87.79" x2="96.78" y2="92.39"/><path d="M88.83,86.8l8,5.59-9-3.61a1.13,1.13,0,1,1,.84-2.1A.9.9,0,0,1,88.83,86.8Z"/><line x1="84.73" y1="92.04" x2="90.4" y2="99.86"/><path d="M85.64,91.38l4.76,8.48L83.82,92.7a1.14,1.14,0,0,1,1.67-1.54A1.07,1.07,0,0,1,85.64,91.38Z"/><path d="M101.28,160.07A33.37,33.37,0,0,0,95.93,168a19.91,19.91,0,0,0-2.09,8.53,15.88,15.88,0,0,0,.56,4.13,19.17,19.17,0,0,0,1.49,3.91,45,45,0,0,0,4.85,7.38l0,0a3,3,0,0,1-4.39,4.1,25.47,25.47,0,0,1-6.41-8.8,10.64,10.64,0,0,1-.52-1.32c-.16-.45-.33-.89-.46-1.35a27.11,27.11,0,0,1-.58-2.82,19.64,19.64,0,0,1,0-5.73,21.71,21.71,0,0,1,4.45-10,26,26,0,0,1,7.88-6.71.44.44,0,0,1,.59.18.42.42,0,0,1-.06.49Z"/><path class="cls-1" d="M45.12,151.14,53,189.76c-4.15,1.62-7.67,5.42-6.78,13.85H74.88l8.33-44.17Z"/><path d="M45.56,151c1.26,3.1,2.3,6.24,3.3,9.39s1.88,6.32,2.7,9.5,1.6,6.38,2.33,9.59,1.41,6.41,2,9.64v0a3,3,0,0,1-1.84,3.34,8.93,8.93,0,0,0-2.62,1.56,7,7,0,0,0-1.71,2.4,10.52,10.52,0,0,0-.8,3.19,21.13,21.13,0,0,0,0,3.64l-2.77-2.49c2.39,0,4.78,0,7.16,0l7.17-.05,14.33-.17-2.94,2.44q1-5.53,2.06-11.05l1.11-5.51L76.3,181c.79-3.66,1.67-7.31,2.73-10.92a92.93,92.93,0,0,1,3.73-10.74.47.47,0,0,1,.62-.24.45.45,0,0,1,.28.41,91.15,91.15,0,0,1-.43,11.36c-.33,3.75-.84,7.46-1.44,11.16l-.9,5.55-1,5.54q-1,5.53-2.11,11v.07a3,3,0,0,1-2.93,2.37l-14.33-.17-7.17-.05c-2.38,0-4.77,0-7.16,0a2.77,2.77,0,0,1-2.77-2.49,26.52,26.52,0,0,1-.1-4.73,17,17,0,0,1,1.12-4.92,12.81,12.81,0,0,1,3-4.46A14.12,14.12,0,0,1,51.91,187l-1.83,3.37c-.69-3.21-1.32-6.43-1.91-9.66S47,174.21,46.55,171s-.89-6.52-1.24-9.81-.59-6.58-.64-9.92a.47.47,0,0,1,.45-.48A.47.47,0,0,1,45.56,151Z"/><path class="cls-1" d="M144,179.93s-6.72,21-14.9,23.68H83.51s-8-31,32.41-13.25"/><path d="M146.06,182.78c-.76,2.26-1.58,4.34-2.5,6.46a65.35,65.35,0,0,1-3.07,6.23,38.08,38.08,0,0,1-4,5.93,19.44,19.44,0,0,1-2.73,2.71,12.16,12.16,0,0,1-3.73,2.12,2.8,2.8,0,0,1-.85.14H85.5a2.75,2.75,0,0,1-2.66-2.08c-.12-.52-.19-.88-.28-1.31s-.14-.82-.2-1.23c-.11-.83-.19-1.66-.24-2.5a20.7,20.7,0,0,1,.34-5.17,13.46,13.46,0,0,1,2.17-5.19,11.12,11.12,0,0,1,4.56-3.72A13.66,13.66,0,0,1,94.52,184a20.65,20.65,0,0,1,5,.5,29.86,29.86,0,0,1,8.74,3.47.94.94,0,0,1,.34,1.28,1,1,0,0,1-.92.46h0a84.78,84.78,0,0,0-8.68-.79,15.08,15.08,0,0,0-7.31,1.32,6.45,6.45,0,0,0-2.22,2,8.82,8.82,0,0,0-1.27,3,16.31,16.31,0,0,0-.38,3.76q0,1,.12,2c0,.33.08.66.14,1s.11.68.16.89l-2.68-2.08h43.61l-.87.14a10,10,0,0,0,4-3.16,33.83,33.83,0,0,0,3.43-5.07c1-1.84,2-3.76,2.82-5.73s1.65-4,2.31-6V181a2.75,2.75,0,1,1,5.22,1.75Z"/><g class="cls-3"><path d="M90.74,185.61c-10.65,3.45-6.88,18-6.88,18h45.62c6.05-2,11.3-14,13.63-20.1a33.57,33.57,0,0,0,1.88-5.12,74.24,74.24,0,0,0,2.66-14.77C129.17,189.63,134.11,195.12,90.74,185.61Z"/></g><g class="cls-14"><path d="M53,189.76c-4.15,1.62-7.67,5.42-6.78,13.85H74.88l5.2-27.55C74.93,183.81,66.57,190.29,53,189.76Z"/></g><path d="M58.53,192.87a5.33,5.33,0,0,0-1.07,2.48,10.24,10.24,0,0,0-.14,2.65,17.87,17.87,0,0,0,.39,2.61l.33,1.28.39,1.26,0,.06a2.09,2.09,0,0,1-4,1.25,2.47,2.47,0,0,1-.09-.76l.09-1.51c0-.5.12-1,.17-1.5a19.92,19.92,0,0,1,.66-3A11.48,11.48,0,0,1,56.51,195,5.82,5.82,0,0,1,58.53,192.87Z"/><path d="M66,193.72a14.13,14.13,0,0,0-.92,5.07,12.24,12.24,0,0,0,.23,2.44,13.68,13.68,0,0,0,.63,2.26,2.22,2.22,0,1,1-4.18,1.5,2.07,2.07,0,0,1-.13-.88v0a17.1,17.1,0,0,1,.42-3,15.87,15.87,0,0,1,4-7.37Z"/><path d="M33.06,194.21a4.63,4.63,0,0,0-.93,2.16,9,9,0,0,0-.11,2.32,14.46,14.46,0,0,0,.34,2.27l.29,1.12.35,1.11v.05a1.82,1.82,0,1,1-3.48,1.1,1.9,1.9,0,0,1-.08-.66l.07-1.32c0-.44.1-.88.15-1.32a17.6,17.6,0,0,1,.57-2.59A10.16,10.16,0,0,1,31.3,196,5.15,5.15,0,0,1,33.06,194.21Z"/><path d="M40.14,194.34a13.16,13.16,0,0,0-.85,4.74,12.16,12.16,0,0,0,.22,2.28,11.94,11.94,0,0,0,.6,2.11,2.08,2.08,0,1,1-3.91,1.41,2,2,0,0,1-.12-.82v0a16.13,16.13,0,0,1,.38-2.8,14.71,14.71,0,0,1,.85-2.58A14.08,14.08,0,0,1,40.14,194.34Z"/><g class="cls-9"><path d="M105.91,16.25,75.6,27.2a47.26,47.26,0,0,0-16.12-3c-.43,0-6.86.59-7.29.6,20.51,4.83,42.21,18,47.48,36.78,7.25,25.86-1.6,34.43-14.18,47.91,16.17-5,27.1-15.54,27.18-32.08a47.64,47.64,0,0,0-5.3-21.19c5.82-13.24,5.9-27.54,5.29-35.62A5.06,5.06,0,0,0,105.91,16.25Z"/></g><path d="M55.65,84.81A2.1,2.1,0,0,1,55,85a2,2,0,0,1-2.13-1.78l-.52-5.72a2,2,0,1,1,3.91-.36l.52,5.72A2,2,0,0,1,55.65,84.81Z"/><path d="M94.86,192.49a5.09,5.09,0,0,0-1,2.34,9.45,9.45,0,0,0-.12,2.49,15.69,15.69,0,0,0,.36,2.46L94.4,201l.37,1.19,0,0A2,2,0,0,1,91,203.41a2.17,2.17,0,0,1-.09-.71l.09-1.42c0-.48.11-.95.16-1.42a18.76,18.76,0,0,1,.62-2.79,10.62,10.62,0,0,1,1.15-2.6A5.4,5.4,0,0,1,94.86,192.49Z"/><path d="M101.89,193.29a13.22,13.22,0,0,0-.87,4.78,12.38,12.38,0,0,0,.21,2.3,13.39,13.39,0,0,0,.6,2.13,2.09,2.09,0,0,1-3.94,1.42,2,2,0,0,1-.12-.84v0a15.22,15.22,0,0,1,.39-2.81,15,15,0,0,1,3.73-7Z"/><circle cx="35.61" cy="63.44" r="8"/><circle class="cls-4" cx="37.62" cy="60.45" r="2"/><ellipse class="cls-4" cx="32.37" cy="65.99" rx="1" ry="1.5" transform="translate(-22.68 17.29) rotate(-22.37)"/><circle cx="79.54" cy="63.68" r="8"/><circle class="cls-4" cx="76.52" cy="61.71" r="2"/><ellipse class="cls-4" cx="83.52" cy="64.76" rx="1" ry="1.5" transform="translate(-0.73 0.95) rotate(-0.65)"/></g></g></svg>