<svg xmlns="http://www.w3.org/2000/svg" xmlns:xlink="http://www.w3.org/1999/xlink" viewBox="0 0 633.48 645.21"><defs><style>.cls-1{opacity:0.39;}.cls-2{fill:#33fbfb;}.cls-3{fill:#155a9d;}.cls-4{fill:#4dedff;}.cls-5{fill:url(#Ads覺z_degrade_13);}.cls-6{opacity:0.35;}.cls-7,.cls-8{fill:#fff;}.cls-8{opacity:0.52;}.cls-9{fill:url(#Ads覺z_degrade_2);}.cls-10{fill:#14578e;}.cls-11{fill:#db7e55;}.cls-12{fill:#e9b40c;}.cls-13{fill:#ffa902;}.cls-14{fill:#fec715;}.cls-15{font-size:75.25px;fill:#f95c00;font-family:BerlinSansFBDemi-Bold, Berlin Sans FB Demi;font-weight:700;letter-spacing:0.03em;}.cls-16{opacity:0.22;}.cls-17{fill:#d2ca65;}.cls-18{fill:#fec51c;}.cls-19{opacity:0.17;}.cls-20{fill:#0263c1;}</style><radialGradient id="Ads覺z_degrade_13" cx="950.31" cy="334.62" r="228.69" gradientTransform="translate(-832.41 -22.6) scale(1.2 1.11)" gradientUnits="userSpaceOnUse"><stop offset="0" stop-color="#172cbd"/><stop offset="1" stop-color="#2a8fe1"/></radialGradient><radialGradient id="Ads覺z_degrade_2" cx="960.1" cy="355.15" r="121.13" gradientTransform="translate(-832.41 -22.6) scale(1.2 1.11)" gradientUnits="userSpaceOnUse"><stop offset="0" stop-color="#08bfba"/><stop offset="1" stop-color="#2a8fe1"/></radialGradient></defs><title>score-panel</title><g id="katman_2" data-name="katman 2"><g id="katman_2-2" data-name="katman 2"><g class="cls-1"><path class="cls-2" d="M114.63,530.49c31.68,19.57,68.29,29.18,104.54,37.34,57.82,13,116.87,23,176,20.14s118.89-19.3,166.44-55c9.9-7.43,19.41-15.88,25.47-26.74,12.1-21.67,8.4-48.46,4.35-73-137.38,27.12-284.26,1.76-404.94-69.9-28.89-17.16-58.13-37.47-91.6-39.12-48.56-2.39-48.61,26.18-59.48,61.63-1.72,5.61-3.82,11.31-3.39,17.17.33,4.45,2.11,8.65,3.87,12.75C57,464.86,67.62,498.83,114.63,530.49Z"/></g><path class="cls-3" d="M.26,408.73c-.92,30.43,0,62.14,13.56,89.31,12.07,24.15,33.22,42.55,56.1,56.58,53.93,33.08,118,44.44,180.72,51.08A1456.52,1456.52,0,0,0,494.26,611c35.73-2.21,74.62-7.24,99.56-33.22,15.11-15.76,22.89-37.22,28.25-58.49C650.59,406,621,286.52,584.85,175.44c-6.38-19.62-13.58-40.13-29-53.7-18.51-16.3-44.83-19.14-69.34-20.47A1200.43,1200.43,0,0,0,246.7,112.39c-68.44,10.09-138,18.11-196.55,56.17-33.34,21.7-29.36,53.86-31.47,88.92C15.64,308.19,1.81,357.58.26,408.73Z"/><path class="cls-4" d="M8.19,403.72c-.9,28.92,0,59.06,13.12,84.88C33,511.55,53.48,529,75.63,542.37c52.23,31.43,114.25,42.23,175,48.54A1438.11,1438.11,0,0,0,486.49,596c34.6-2.1,72.26-6.88,96.4-31.58,14.64-15,22.17-35.36,27.36-55.58,27.61-107.69-1.08-221.22-36-326.78-6.18-18.65-13.15-38.14-28.06-51-17.93-15.5-43.4-18.19-67.14-19.45A1182.67,1182.67,0,0,0,246.8,122.1c-66.27,9.59-133.65,17.21-190.31,53.39C24.21,196.1,28.07,226.66,26,260,23.07,308.18,9.68,355.12,8.19,403.72Z"/><path class="cls-5" d="M21.87,396.65c-.85,28.22,0,57.63,12.45,82.83C45.41,501.88,64.84,519,85.86,532c49.55,30.68,108.39,41.21,166,47.37a1325.53,1325.53,0,0,0,223.79,4.93c32.83-2,68.56-6.72,91.46-30.82,13.89-14.61,21-34.51,26-54.24,26.2-105.1-1-215.9-34.19-318.92-5.86-18.2-12.47-37.22-26.62-49.8-17-15.12-41.18-17.75-63.7-19a1091.36,1091.36,0,0,0-220.31,10.31c-62.88,9.36-126.81,16.79-180.56,52.1-30.63,20.11-27,49.94-28.91,82.46C36,303.4,23.29,349.21,21.87,396.65Z"/><g class="cls-6"><path class="cls-7" d="M47.53,264.17c2.54-19,18.09-36.92,36-51.94C135.1,169.11,207.81,143.49,280,127.76c69.3-15.09,145.22-21.85,204.53.84,22.22,8.5,42.45,22.67,44,42,2.39,29.36-38.36,54.71-77.13,65.64a301.55,301.55,0,0,1-95.68,11c-37.84-1.87-73-11.19-108.64-18.81s-73.28-13.61-111.73-8.67c-37.07,4.76-67.24,13.64-87.6,40"/></g><path class="cls-8" d="M385.36,517c22.06-10.8,43.15-24.21,67.08-30.17,23-5.72,47.09-4.19,70.73-5.89,12-.86,24.33-2.77,35.68-6.65,15.33-5.23,30.83,7.6,27.92,23.12a66.26,66.26,0,0,1-8.77,23.3c-10.31,16.4-28.53,26.51-46.88,33.68-64.69,25.28-136.94,21.92-206.57,18.16-23.44-1.26-47.26,0-70.52-3.6-27.6-4.28-31.64-14-52.23-27.65C217.94,552.06,268.53,546,288,545,321.22,543.14,355.75,531.5,385.36,517Z"/><path class="cls-7" d="M43.79,268.57a87.39,87.39,0,0,1,3-24.24,103,103,0,0,1,9.34-22.76,106.14,106.14,0,0,1,6.6-10.45c1.17-1.69,2.47-3.29,3.71-4.94s2.59-3.22,4-4.73l2.07-2.3,2.16-2.21c1.42-1.5,3-2.86,4.44-4.3,3.06-2.75,6.17-5.46,9.44-7.95s6.62-4.88,10.06-7.11,6.93-4.39,10.49-6.41c7.15-4,14.45-7.67,21.91-10.95A163,163,0,0,1,154,151.58c7.89-2.14,16.17-3.34,24.27-2.43a73,73,0,0,0-23.64,4.47,191.65,191.65,0,0,0-22.12,9.67c-3.62,1.8-7.2,3.66-10.77,5.53s-7.07,3.86-10.53,5.91a184.91,184.91,0,0,0-20,13.4c-3.2,2.4-6.23,5-9.23,7.65s-5.82,5.48-8.49,8.43a120.25,120.25,0,0,0-14.43,19.06c-1,1.7-2,3.44-3,5.2s-1.88,3.53-2.7,5.36a101.92,101.92,0,0,0-9.6,34.74Z"/><path class="cls-7" d="M458,575.33c12.94-1.43,25.89-2.48,38.64-4.5s25.27-5.08,37-10.16a98.54,98.54,0,0,0,16.75-9.09,81.86,81.86,0,0,0,14.45-12.35c8.67-9.39,15.18-20.73,22-31.79-2.64,6-5.45,11.83-8.6,17.56a101.67,101.67,0,0,1-11,16.33,77.08,77.08,0,0,1-14.63,13.43,98.85,98.85,0,0,1-17.34,9.67,122.85,122.85,0,0,1-18.78,6.19A158.66,158.66,0,0,1,497,574,298.26,298.26,0,0,1,458,575.33Z"/><path class="cls-7" d="M435,577.18V576a1.54,1.54,0,0,0-3.07,0v1.2a1.55,1.55,0,0,0,1.53,1.54,1.57,1.57,0,0,0,1.54-1.54Z"/><path class="cls-7" d="M504.13,137.57v-1.36a1.63,1.63,0,0,0-3.26,0v1.36a1.63,1.63,0,0,0,3.26,0Z"/><path class="cls-7" d="M523.05,149.75v-1.36a.66.66,0,0,0-1.31,0v1.36a.66.66,0,0,0,1.31,0Z"/><path class="cls-9" d="M155,427.79a2647.68,2647.68,0,0,0,313.32.77c13.65-.77,28.48-2.11,38.44-10.75,11.68-10.13,12.63-26.64,12.8-41.41.56-49.66-51.7-61.86-97.22-63.66q-78.63-3.09-157.36-1.87c-33.45.52-111.81-11.07-129.34,23.91C126.78,352.54,122.18,425.76,155,427.79Z"/><path class="cls-10" d="M155,431.91q130.71,8,261.79,3.2c20.82-.77,42-.94,62.69-3.3,16.22-1.85,32.06-7.53,39.13-23.44,5.93-13.31,6.59-31,3.91-45.21a53.47,53.47,0,0,0-18.24-30.9c-20.44-17.15-49.22-21.65-75-23.29-42.33-2.68-85-2.68-127.43-2.57-16.56.05-33.14.71-49.69.14-12.37-.43-24.73-1.12-37.11-1.22-23.14-.19-51.64-.12-71.25,14.09-16.12,11.67-18.14,32.7-18.7,51.17s.7,45.51,17.57,57.19A24.64,24.64,0,0,0,155,431.91c5.29.43,5.26-7.82,0-8.25-18.72-1.5-21.19-29.77-21.65-43.74a137.37,137.37,0,0,1,2-29.62c1.41-7.6,3.33-14.91,8.91-20.57,7.09-7.2,17.23-10.6,26.87-12.72,11.78-2.6,23.92-3.27,35.95-3.42,24.28-.32,48.51,1.46,72.8,1.21q61.26-.63,122.51,1.35c27.63.9,57.27,1.07,82.68,13.52,10.14,5,19.27,12.07,24.75,22.13,6.36,11.68,6.3,25.54,4.91,38.44-.82,7.6-2.81,15.57-7.83,21.54-5.39,6.43-13.43,9.32-21.43,10.86-8.9,1.71-18.08,1.86-27.1,2.34q-14.86.79-29.73,1.41-121.92,5.1-244-1.06-14.87-.75-29.71-1.67C149.73,423.34,149.75,431.59,155,431.91Z"/><path class="cls-11" d="M217.51,635.84c-18.89-4-33-20.89-34.31-41.21-1.67-26.36,4.82-59.67,45.49-67.94,69.78-14.18,210.69-15.6,216.05,0,4.07,11.83,18.18,40,12.46,71.46-3.28,18.07-16.76,32.16-33.84,35.67C385.49,641.6,302.58,653.94,217.51,635.84Z"/><path class="cls-12" d="M214.92,633.25c-18.89-4-33-20.7-34.31-40.84-1.67-26.13,4.82-59.14,45.48-67.34,69.79-14.05,210.69-15.46,216.06,0,4.07,11.73,18.18,39.64,12.46,70.83-3.28,17.91-16.76,31.87-33.84,35.35C382.9,639,300,651.19,214.92,633.25Z"/><path class="cls-13" d="M211.36,632.08c-18.88-4-33-20.8-34.3-41-1.67-26.26,4.82-59.43,45.48-67.66,69.79-14.13,210.69-15.54,216.06,0,4.07,11.79,18.18,39.82,12.46,71.17-3.28,18-16.76,32-33.85,35.51C379.35,637.82,296.44,650.11,211.36,632.08Z"/><g class="cls-1"><path class="cls-14" d="M183.73,610.52c5.5,9.45,14.45,18.13,22.56,19.18,38.24,5,76.76,9.29,115.48,8.78,17.69-.23,35.54-.78,53.13-1.55a140.73,140.73,0,0,0,49.65-11.32c8.5-3.7,17-8.67,20.92-16.32.84-1.61,1.5-3.38,3-4.59-19.23-1.78-38.57-2.69-57.91-2.73-48.92-.1-98.82,5.29-146.12-5.8-10.27-2.41-20.3-5.57-30.65-7.71-7-1.45-14.15-2.42-21.27-3.39C175.13,582.7,176.08,597.36,183.73,610.52Z"/></g><text class="cls-15" transform="translate(258.72 607.71) scale(0.65 1)">NEXT</text><path class="cls-7" d="M182.58,561.19a43.23,43.23,0,0,1,6.1-15.59,47,47,0,0,1,5.29-6.78,45.23,45.23,0,0,1,6.64-5.68,69.26,69.26,0,0,1,7.49-4.55,37.62,37.62,0,0,1,7.77-3A67.6,67.6,0,0,1,224,524a42.59,42.59,0,0,1,8.51-.44l.28.77a43.32,43.32,0,0,1-6.83,5.1,68.69,68.69,0,0,1-7.26,3.9,51.74,51.74,0,0,1-7.51,2.76,38.14,38.14,0,0,0-7.13,2.64,39.35,39.35,0,0,0-6.38,4.11,42.59,42.59,0,0,0-5.69,5.24,47.15,47.15,0,0,0-8.58,13.34Z"/><path class="cls-7" d="M446.56,595.75a30.17,30.17,0,0,1-.41,7.57l-.4,1.89-.48,1.87-.64,1.84-.72,1.82c-.54,1.19-1,2.48-1.53,3.7a11,11,0,0,1-1.05,1.71,10,10,0,0,1-1.42,1.41,17.66,17.66,0,0,1-1.69,1.12,15.61,15.61,0,0,1-1.91.85,13.24,13.24,0,0,1-2.11.5,9.76,9.76,0,0,1-2.36,0l-.49-.65a16.44,16.44,0,0,1,.44-2.22,18.25,18.25,0,0,1,.58-1.88,16.13,16.13,0,0,1,.67-1.67,15,15,0,0,1,.76-1.5,8.15,8.15,0,0,1,2.05-2.48l1.28-1.09a16.42,16.42,0,0,0,1.17-1.19l1.06-1.3,1-1.36,1-1.39.95-1.45a53.44,53.44,0,0,0,3.42-6.26Z"/><g class="cls-16"><path class="cls-7" d="M183,554.9c8-3.15,12.85-11.75,21.09-15.38s17.27-4.77,26.06-4.73c50.12.24,96.22,32.33,146.32,33.78a124.09,124.09,0,0,0,70.7-20c-3.95-9.19-8.43-19-16.83-23.79-4.34-2.47-9.31-3.32-14.19-4a332.76,332.76,0,0,0-50.25-3.45c-8.61.07-17.23.47-25.84.87l-104,4.81c-7.65.36-15.39.73-22.71,3.07-13.65,4.36-25.09,15.82-30,30"/></g><g class="cls-16"><path class="cls-7" d="M402,613.72c7.76,1.3,15.51,3.16,23.39,2.94s16.14-2.89,20.8-9c-1.09,8.83-8.35,16.11-16.8,19.84s-18,4.46-27.3,4.7c-19.95.52-40.08-.93-59.76,2.22-6.53,1-13,2.6-19.6,3a112.65,112.65,0,0,1-12.46-.24l-30.41-1.73c7,.4,21.9-7.31,28.93-10.1,9.16-3.62,18-7.15,27.73-9.44A166.74,166.74,0,0,1,402,613.72Z"/></g><path class="cls-7" d="M198.1,552a33,33,0,0,1,3-4.32c.58-.68,1.17-1.34,1.78-2s1.28-1.24,1.94-1.84,1.33-1.23,2-1.83a8,8,0,0,1,2.31-1.4,10,10,0,0,1,5.56-.63l.15.38a16.63,16.63,0,0,1-3.73,3.83,9.31,9.31,0,0,1-2.12,1.23,24.49,24.49,0,0,0-2.26,1.07c-.72.41-1.43.85-2.14,1.3s-1.42.9-2.11,1.38c-1.41,1-2.76,2-4.12,3.09Z"/><path class="cls-7" d="M425.26,625.68c3.95,0,4-6.14,0-6.14s-3.95,6.14,0,6.14Z"/><path class="cls-7" d="M420.57,528.53c3.94,0,3.95-6.14,0-6.14s-4,6.14,0,6.14Z"/><path class="cls-7" d="M428.62,530.46a1.53,1.53,0,0,0,0-3.06,1.53,1.53,0,0,0,0,3.06Z"/><path class="cls-13" d="M301.26,11.54c3.45-5.15,7.95-10.17,13.86-11.3,6.62-1.27,13.33,2.86,17.36,8.5s5.9,12.62,7.69,19.41c2.11,8,1.51,20.1,6.41,26.83,5.8,8,29.07,5.18,38.71,5.83,12.83.88,36.62,4.33,29.55,23.88-5.52,15.24-23.15,25.44-36.22,32.44-10.4,5.57-10.87,10.26-5.92,21.65,4.25,9.75,7.46,23,5.49,33.67-1.33,7.23-2.82,19.63-9.71,23.29-4.22,2.23-9.31,1.06-13.88-.23-6-1.7-12.08-3.57-17.46-6.85-4.39-2.67-8.23-6.22-12.5-9.1-9.37-6.31-21.21-5.39-30.41,1.16S276,200.8,263.32,198.86C254,197.44,248,187,247.64,177.21s3.42-19.21,6.78-28.39c1.61-4.42,3.16-9.17,2.2-13.79-1.12-5.41-5.39-9.36-9.26-13.12a180.45,180.45,0,0,1-26.79-33c-11.72-18.47,7.14-25.15,21.84-27a201.64,201.64,0,0,1,28.23-1.08c3.6.06,7.36.52,10.95.25,7.18-.54,5.53-1.07,5.76-8.42a71.85,71.85,0,0,1,2.26-14.52A83.12,83.12,0,0,1,301.26,11.54Z"/><path class="cls-17" d="M297.45,11.53c3.46-5.15,8-10.17,13.87-11.3,6.62-1.27,13.33,2.85,17.35,8.5s5.9,12.61,7.7,19.41c2.11,8,1.51,20.1,6.41,26.83,5.8,8,29.07,5.18,38.71,5.83,12.83.88,36.62,4.33,29.55,23.88-5.52,15.24-23.16,25.44-36.22,32.44-10.4,5.57-10.87,10.26-5.92,21.65,4.24,9.75,7.46,23,5.49,33.67-1.33,7.23-2.82,19.63-9.71,23.28-4.22,2.24-9.31,1.07-13.88-.22-6-1.71-12.08-3.57-17.47-6.85-4.39-2.67-8.22-6.22-12.49-9.1-9.37-6.31-21.21-5.39-30.41,1.16s-18.22,20.08-30.91,18.14c-9.29-1.42-15.3-11.83-15.68-21.65s3.42-19.21,6.78-28.39c1.61-4.42,3.16-9.17,2.2-13.79-1.13-5.41-5.39-9.36-9.26-13.12a180.45,180.45,0,0,1-26.79-33c-11.72-18.48,7.14-25.15,21.84-27a201.64,201.64,0,0,1,28.23-1.08c3.6,0,7.36.52,10.94.25,7.19-.54,5.54-1.07,5.77-8.42a71.85,71.85,0,0,1,2.26-14.52A83.32,83.32,0,0,1,297.45,11.53Z"/><path class="cls-18" d="M298,15.5c3.32-4.92,7.64-9.71,13.33-10.79,6.37-1.21,12.83,2.72,16.7,8.12s5.67,12,7.4,18.53c2,7.59,1.45,19.19,6.16,25.62,5.58,7.62,28,4.94,37.23,5.57,12.35.83,35.23,4.13,28.42,22.79-5.3,14.56-22.26,24.3-34.83,31-10,5.32-10.46,9.8-5.69,20.68,4.52,10.33,13,59.44-9.85,57.24-2.82-.27-5.29-2-7.86-3.17-3-1.43-6.25-2.27-9.26-3.69-4.85-2.3-8.93-6-13.46-8.93a46.62,46.62,0,0,0-16.58-6.61c-20.31-3.81-29.06,25.43-48.2,22.53-8.94-1.36-14.72-11.3-15.08-20.67s3.29-18.35,6.52-27.12c1.55-4.22,3-8.75,2.12-13.17-1.09-5.15-5.19-8.93-8.91-12.52A173.07,173.07,0,0,1,220.43,89.4c-11.27-17.64,6.87-24,21-25.81a193.84,193.84,0,0,1,27.15-1c3.46,0,7.08.49,10.53.23,6.91-.52,5.32-1,5.55-8a68.27,68.27,0,0,1,2.16-13.86A79.4,79.4,0,0,1,298,15.5Z"/><g class="cls-19"><path class="cls-7" d="M256,64c5.49-.08,10.94,1.37,16.12,0,4.63-1.24,10.35-.94,14.64-3.22a2.65,2.65,0,0,0,.87-.65,3.54,3.54,0,0,0,.33-2.64c-.89-7.45-.67-15.57,1.76-22.88,2.48-7.49,7.83-13,11.1-20.09,2.64-5.68,8-7.46,13.66-7.8a16.75,16.75,0,0,1,6.46.56c3.48,1.2,6.21,4.35,7.94,7.92a50.42,50.42,0,0,1,3.47,11.51l3.23,14.78a41.3,41.3,0,0,0,2.95,9.7c3,5.93,8.53,9.69,14.27,12s11.79,3.35,17.59,5.42c2.54.91,5.56,3,4.93,5.94-.42,1.94-2.3,2.94-4,3.66a117.55,117.55,0,0,1-19.68,6.74c-7.48,1.71-15.12,2.29-22.74,2.87l-17.05,1.29c-5.56.42-11.12.84-16.7.83-5.05,0-10.09-.39-15.13-.76l-22.85-1.7c-10.61,0-20.37-3.52-30.63-5.21a14.07,14.07,0,0,1-3.9-1,4.91,4.91,0,0,1-2.67-3c-2.26-8.36,8.86-10.73,14.46-11.65,5.82-.94,11.71-1.28,17.47-2.21A27.48,27.48,0,0,1,256,64Z"/></g><path class="cls-7" d="M292,28.32a41.23,41.23,0,0,1,5.11-10.74,51.74,51.74,0,0,1,7.7-9.16,26.45,26.45,0,0,1,5-3.77,13.33,13.33,0,0,1,6.39-1.85,9.32,9.32,0,0,1,6.24,2.39,6.74,6.74,0,0,1,2.35,5.69,7,7,0,0,0-3.59-4,7.78,7.78,0,0,0-4.75-.72c-3.16.57-6,2.86-8.66,5.38s-5.39,5.28-8,8.08S294.69,25.38,292,28.32Z"/><path class="cls-7" d="M277.15,71.42v-.26a1.63,1.63,0,1,0-3.26,0v.26a1.63,1.63,0,1,0,3.26,0Z"/><path class="cls-7" d="M365.31,67A55.62,55.62,0,0,1,377,65.73a79,79,0,0,1,11.7.79c1.93.29,3.86.62,5.77,1a26.73,26.73,0,0,1,5.87,1.86,12.65,12.65,0,0,1,2.74,1.76,9.61,9.61,0,0,1,2.12,2.52,7,7,0,0,1,.73,6A7.51,7.51,0,0,0,403.51,75a8.94,8.94,0,0,0-2.05-1.46,13.21,13.21,0,0,0-2.38-.93,38.12,38.12,0,0,0-5.34-1l-5.66-.8q-5.65-.81-11.33-1.69C373,68.51,369.16,67.9,365.31,67Z"/><path class="cls-7" d="M218.47,75a20.68,20.68,0,0,1,5.87-5.32,27.93,27.93,0,0,1,7.28-3.17,27.5,27.5,0,0,1,7.87-1,20.27,20.27,0,0,1,7.76,1.61c-2.6.71-5,1.22-7.43,1.79s-4.73,1.14-7.06,1.78-4.64,1.32-7,2.06S221.07,74.27,218.47,75Z"/><path class="cls-13" d="M129.23,82.69c2.77-4.2,6.39-8.28,11.14-9.2,5.32-1,10.72,2.32,13.95,6.92s4.75,10.27,6.19,15.8c1.69,6.48,1.21,16.37,5.15,21.85,4.67,6.5,23.37,4.22,31.12,4.75,10.32.71,29.44,3.53,23.75,19.44-4.43,12.42-18.61,20.72-29.11,26.42-8.36,4.53-8.74,8.35-4.76,17.63,3.41,7.94,6,18.73,4.42,27.42-1.08,5.89-2.27,16-7.81,19-3.4,1.82-7.48.87-11.16-.19-4.84-1.38-9.71-2.9-14-5.57-3.53-2.18-6.61-5.07-10-7.41-7.53-5.14-17.05-4.39-24.44.94s-14.65,16.35-24.85,14.77c-7.47-1.15-12.3-9.63-12.6-17.63s2.74-15.64,5.44-23.12c1.3-3.6,2.55-7.46,1.77-11.23-.9-4.4-4.33-7.62-7.44-10.68a146.76,146.76,0,0,1-21.54-26.85c-9.42-15.05,5.75-20.48,17.56-22a159.37,159.37,0,0,1,22.7-.88c2.89,0,5.91.42,8.79.2,5.78-.44,4.45-.87,4.64-6.86a59.69,59.69,0,0,1,1.81-11.82A68.36,68.36,0,0,1,129.23,82.69Z"/><path class="cls-17" d="M126.17,82.68c2.78-4.2,6.39-8.28,11.15-9.2,5.32-1,10.71,2.32,14,6.92s4.74,10.27,6.19,15.8c1.69,6.48,1.21,16.37,5.15,21.85,4.66,6.5,23.37,4.22,31.11,4.75,10.32.71,29.45,3.53,23.76,19.44C213,154.66,198.87,163,188.36,168.66c-8.36,4.53-8.74,8.35-4.75,17.63,3.41,7.94,6,18.73,4.41,27.42-1.07,5.89-2.27,16-7.81,19-3.39,1.82-7.48.87-11.16-.19-4.84-1.38-9.71-2.9-14-5.57-3.53-2.18-6.61-5.07-10-7.41-7.53-5.14-17-4.39-24.45.94s-14.64,16.35-24.85,14.77c-7.47-1.15-12.3-9.63-12.6-17.63s2.75-15.64,5.45-23.12c1.3-3.59,2.54-7.46,1.77-11.23-.91-4.4-4.33-7.62-7.45-10.68A146.71,146.71,0,0,1,61.31,145.7c-9.42-15,5.74-20.48,17.56-22a159.18,159.18,0,0,1,22.69-.88c2.89,0,5.91.42,8.8.2,5.77-.44,4.44-.87,4.64-6.86a58.25,58.25,0,0,1,1.81-11.82A68.11,68.11,0,0,1,126.17,82.68Z"/><path class="cls-18" d="M126.64,85.91c2.67-4,6.15-7.91,10.72-8.79,5.12-1,10.31,2.22,13.42,6.62s4.56,9.8,5.95,15.08c1.63,6.19,1.17,15.63,5,20.87,4.49,6.2,22.48,4,29.93,4.53,9.93.68,28.32,3.37,22.85,18.57-4.27,11.85-17.9,19.78-28,25.22-8,4.33-8.4,8-4.57,16.84,3.64,8.41,10.45,48.4-7.92,46.61-2.26-.22-4.25-1.58-6.31-2.58-2.42-1.17-5-1.85-7.45-3C156.3,224,153,221,149.38,218.6a37.15,37.15,0,0,0-13.33-5.38c-16.32-3.1-23.36,20.71-38.75,18.34-7.18-1.1-11.82-9.19-12.12-16.83s2.65-14.94,5.24-22.08c1.25-3.43,2.45-7.13,1.71-10.72-.87-4.2-4.17-7.28-7.17-10.2a140.8,140.8,0,0,1-20.71-25.64c-9.06-14.37,5.52-19.56,16.89-21a153,153,0,0,1,21.83-.84c2.78,0,5.68.4,8.46.19,5.55-.42,4.28-.83,4.46-6.55a56.07,56.07,0,0,1,1.74-11.29A65,65,0,0,1,126.64,85.91Z"/><g class="cls-19"><path class="cls-7" d="M92.81,125.38c4.41-.07,8.8,1.11,13,0,3.73-1,8.32-.76,11.77-2.62a2.13,2.13,0,0,0,.7-.53,2.91,2.91,0,0,0,.26-2.15,44.22,44.22,0,0,1,1.42-18.63c2-6.1,6.29-10.63,8.92-16.36,2.12-4.62,6.41-6.07,11-6.35a13.21,13.21,0,0,1,5.2.46c2.8,1,5,3.54,6.38,6.45A41.58,41.58,0,0,1,154.19,95l2.59,12a34.4,34.4,0,0,0,2.38,7.9c2.38,4.83,6.86,7.89,11.47,9.76s9.48,2.72,14.14,4.41c2,.74,4.47,2.48,4,4.84-.34,1.58-1.85,2.39-3.2,3a93.67,93.67,0,0,1-15.81,5.48,121.37,121.37,0,0,1-18.29,2.34l-13.7,1.05c-4.47.35-9,.69-13.43.68-4.06,0-8.11-.32-12.16-.62l-18.37-1.38c-8.53,0-16.38-2.87-24.63-4.25a10.92,10.92,0,0,1-3.13-.85A4,4,0,0,1,63.87,137c-1.81-6.82,7.12-8.75,11.63-9.49,4.68-.77,9.41-1,14-1.81A23.64,23.64,0,0,1,92.81,125.38Z"/></g><path class="cls-7" d="M121.79,96.35a30.09,30.09,0,0,1,3.82-8.91,38.66,38.66,0,0,1,6.14-7.55,21.22,21.22,0,0,1,4.09-3.12,11,11,0,0,1,5.35-1.52,7.56,7.56,0,0,1,5.2,2.12,5.46,5.46,0,0,1,1.74,4.78,5.65,5.65,0,0,0-3-3.05,6,6,0,0,0-3.68-.44c-2.4.52-4.56,2.34-6.71,4.38s-4.33,4.25-6.44,6.48S124.1,94.05,121.79,96.35Z"/><path class="cls-7" d="M110.17,131.44v-.21a1.63,1.63,0,1,0-3.26,0v.21a1.63,1.63,0,1,0,3.26,0Z"/><path class="cls-7" d="M180.72,127.83a39,39,0,0,1,9.44-1.33,55.4,55.4,0,0,1,9.46.57c1.57.23,3.12.51,4.66.87a20.1,20.1,0,0,1,4.78,1.61,10.53,10.53,0,0,1,2.24,1.52,8.16,8.16,0,0,1,1.69,2.16,5.69,5.69,0,0,1,.38,5,6.19,6.19,0,0,0-2.09-3.73,8.38,8.38,0,0,0-3.5-1.78,33.47,33.47,0,0,0-4.23-.73l-4.55-.62c-3-.44-6.05-.93-9.09-1.47A90.16,90.16,0,0,1,180.72,127.83Z"/><path class="cls-7" d="M62.68,134.33a14.94,14.94,0,0,1,4.56-4.6,20.41,20.41,0,0,1,5.87-2.68,19.89,19.89,0,0,1,6.42-.74,14.72,14.72,0,0,1,6.28,1.63c-2.1.74-4,1.24-5.94,1.77l-5.6,1.52-5.58,1.58C66.79,133.34,64.86,133.9,62.68,134.33Z"/><path class="cls-20" d="M479.39,78.1c2.77-4.19,6.39-8.28,11.14-9.2,5.33-1,10.72,2.33,14,6.93s4.75,10.27,6.19,15.8c1.69,6.48,1.21,16.37,5.15,21.85,4.67,6.5,23.37,4.22,31.12,4.75,10.32.71,29.44,3.52,23.75,19.44-4.43,12.41-18.61,20.71-29.11,26.42-8.36,4.53-8.74,8.35-4.76,17.63,3.41,7.94,6,18.72,4.42,27.41-1.08,5.89-2.27,16-7.81,19-3.4,1.82-7.48.86-11.16-.19-4.84-1.39-9.71-2.9-14-5.57-3.53-2.18-6.61-5.07-10.05-7.42-7.53-5.14-17-4.39-24.44,1s-14.64,16.35-24.85,14.77c-7.47-1.15-12.3-9.63-12.6-17.63s2.75-15.64,5.44-23.12c1.3-3.6,2.55-7.47,1.78-11.23-.91-4.4-4.34-7.62-7.45-10.68a146.76,146.76,0,0,1-21.54-26.85c-9.41-15,5.75-20.49,17.56-22a157.92,157.92,0,0,1,22.7-.88c2.89,0,5.91.42,8.79.2,5.78-.45,4.45-.87,4.64-6.86A59.57,59.57,0,0,1,470,99.76,68.41,68.41,0,0,1,479.39,78.1Z"/><path class="cls-20" d="M476.33,78.09c2.78-4.19,6.39-8.27,11.15-9.2,5.32-1,10.71,2.33,13.95,6.93s4.74,10.27,6.19,15.8c1.69,6.48,1.21,16.37,5.15,21.85,4.66,6.5,23.37,4.22,31.11,4.75,10.32.71,29.45,3.53,23.76,19.44-4.44,12.41-18.61,20.72-29.12,26.42-8.35,4.53-8.74,8.35-4.75,17.63,3.41,7.94,6,18.72,4.41,27.41-1.07,5.89-2.27,16-7.81,19-3.39,1.82-7.48.87-11.15-.19-4.85-1.38-9.72-2.9-14.05-5.57-3.52-2.18-6.61-5.07-10-7.41-7.53-5.14-17.05-4.4-24.45.94S456,232.21,445.83,230.63c-7.46-1.15-12.3-9.63-12.6-17.63s2.75-15.64,5.45-23.12c1.3-3.6,2.54-7.46,1.77-11.23-.9-4.4-4.33-7.62-7.45-10.68a147.13,147.13,0,0,1-21.53-26.85c-9.42-15.05,5.74-20.49,17.56-22a157.72,157.72,0,0,1,22.69-.88c2.89,0,5.91.42,8.8.2,5.77-.44,4.45-.87,4.64-6.86A58.25,58.25,0,0,1,467,99.75,68.16,68.16,0,0,1,476.33,78.09Z"/><path class="cls-20" d="M476.8,81.33c2.67-4,6.15-7.91,10.72-8.79,5.12-1,10.31,2.22,13.42,6.61s4.56,9.81,5.95,15.09c1.63,6.19,1.17,15.63,4.95,20.87,4.49,6.2,22.48,4,29.93,4.53,9.93.68,28.32,3.37,22.85,18.56-4.27,11.86-17.9,19.79-28,25.23-8,4.33-8.41,8-4.58,16.84,3.64,8.41,10.45,48.4-7.91,46.61-2.27-.22-4.26-1.59-6.32-2.58-2.42-1.17-5-1.85-7.45-3-3.9-1.87-7.18-4.9-10.82-7.27a37.1,37.1,0,0,0-13.32-5.38c-16.33-3.11-23.37,20.71-38.75,18.34-7.19-1.1-11.83-9.19-12.12-16.83s2.64-14.94,5.23-22.08c1.25-3.43,2.45-7.13,1.71-10.72-.87-4.2-4.17-7.28-7.16-10.2a140.43,140.43,0,0,1-20.72-25.64c-9.06-14.37,5.53-19.56,16.89-21a153,153,0,0,1,21.83-.84c2.78,0,5.69.4,8.46.19,5.55-.42,4.28-.83,4.46-6.55A56,56,0,0,1,467.79,102,65.2,65.2,0,0,1,476.8,81.33Z"/><g class="cls-19"><path class="cls-20" d="M443,120.8c4.4-.07,8.79,1.11,12.95,0,3.73-1,8.32-.77,11.77-2.62a2.28,2.28,0,0,0,.7-.53,3,3,0,0,0,.27-2.15,44.06,44.06,0,0,1,1.41-18.63c2-6.1,6.3-10.63,8.92-16.36,2.12-4.62,6.41-6.08,11-6.35a13.18,13.18,0,0,1,5.19.46c2.8,1,5,3.54,6.38,6.44a42.2,42.2,0,0,1,2.8,9.38l2.58,12a34.4,34.4,0,0,0,2.38,7.9c2.38,4.83,6.86,7.89,11.47,9.75s9.48,2.73,14.14,4.42c2.05.74,4.47,2.47,4,4.83-.34,1.59-1.85,2.4-3.2,3a92.83,92.83,0,0,1-15.81,5.49,121.2,121.2,0,0,1-18.29,2.34l-13.7,1.05c-4.47.34-8.95.69-13.43.68-4.06,0-8.11-.32-12.16-.62l-18.37-1.38c-8.53,0-16.38-2.87-24.63-4.25a10.94,10.94,0,0,1-3.13-.86,4,4,0,0,1-2.15-2.43c-1.81-6.81,7.12-8.74,11.63-9.48,4.68-.77,9.41-1,14-1.81A23.66,23.66,0,0,1,443,120.8Z"/></g><path class="cls-20" d="M472,91.77a63,63,0,0,1,11.2-14.64c2.34-2.26,5-4.4,8.14-4.74s6.64,1.79,7,5.18"/><path class="cls-20" d="M458.7,126.86v-.21"/><path class="cls-20" d="M530.88,123.25a132.72,132.72,0,0,1,23.27,2.15,15.91,15.91,0,0,1,6.43,2.22,6.53,6.53,0,0,1,2.95,6"/><path class="cls-20" d="M412.84,129.75a35.85,35.85,0,0,1,23.13-6.4"/></g></g></svg>