<svg xmlns="http://www.w3.org/2000/svg" viewBox="0 0 369.37 185.72"><defs><style>.cls-1{fill:#889eda;}.cls-2{fill:#d2d7f7;}.cls-3{fill:#db7e55;}.cls-4{fill:#e9b40c;}.cls-5{fill:#ffa902;}.cls-6{opacity:0.39;}.cls-7{fill:#fec715;}.cls-8{font-size:91.44px;fill:#f95c00;font-family:BerlinSansFBDemi-Bold, Berlin Sans FB Demi;font-weight:700;letter-spacing:0.03em;}.cls-9{fill:#fff;}.cls-10{opacity:0.22;}</style></defs><title>start-button</title><g id="katman_2" data-name="katman 2"><g id="katman_2-2" data-name="katman 2"><path class="cls-1" d="M24.28,31.36C14.82,50.2-4.32,97.52,8.84,151.51a26.48,26.48,0,0,0,22.33,20.2c57.93,7.12,249.81,27.87,316.62-.5A27.23,27.23,0,0,0,364,149.7c5.16-38.16,16.29-146-24.18-137.67a20.93,20.93,0,0,1-5.81.26c-29.88-2.2-232.86-16.11-295.22,6A26.17,26.17,0,0,0,24.28,31.36Z"/><path class="cls-2" d="M19.91,25.41C10.46,44.25-8.69,91.57,4.47,145.56a26.5,26.5,0,0,0,22.34,20.2c57.92,7.12,249.8,27.87,316.62-.5a27.24,27.24,0,0,0,16.17-21.51c5.17-38.16,16.3-146-24.17-137.66a21.34,21.34,0,0,1-5.81.25c-29.88-2.2-232.87-16.11-295.22,6A26.16,26.16,0,0,0,19.91,25.41Z"/><path class="cls-3" d="M65,157.83c-22.86-4.88-40-25.38-41.53-50.07-2-32,5.84-72.51,55.06-82.56C163,8,333.58,6.25,340.08,25.2c4.93,14.38,22,48.59,15.08,86.84-4,22-20.29,39.07-41,43.34C268.36,164.83,168,179.83,65,157.83Z"/><path class="cls-4" d="M61.88,154.69c-22.86-4.84-40-25.16-41.52-49.63-2-31.75,5.83-71.86,55.06-81.82,84.46-17.08,255-18.79,261.52,0,4.93,14.25,22,48.16,15.08,86.07-4,21.76-20.28,38.72-41,42.95C265.22,161.63,164.86,176.49,61.88,154.69Z"/><path class="cls-5" d="M57.59,153.27c-22.87-4.86-40-25.28-41.53-49.87-2-31.89,5.83-72.2,55.06-82.2,84.46-17.17,255-18.88,261.52,0,4.93,14.32,22,48.38,15.09,86.47-4,21.86-20.29,38.91-41,43.16C260.92,160.24,160.56,175.17,57.59,153.27Z"/><g class="cls-6"><path class="cls-7" d="M24.14,127.06c6.65,11.49,17.49,22,27.31,23.32,46.28,6,92.91,11.28,139.78,10.66,21.41-.28,43-.95,64.31-1.88a169.5,169.5,0,0,0,60.09-13.76c10.3-4.49,20.56-10.53,25.33-19.83,1-2,1.81-4.11,3.58-5.57q-34.92-3.24-70.09-3.32c-59.22-.12-119.62,6.43-176.88-7.05-12.42-2.92-24.57-6.77-37.09-9.37C52,98.5,43.35,97.32,34.72,96.14,13.73,93.27,14.88,111.07,24.14,127.06Z"/></g><text class="cls-8" transform="translate(102.73 124.79) scale(0.65 1)">START</text><path class="cls-9" d="M22.94,67.19a54.26,54.26,0,0,1,8-18.32A56.48,56.48,0,0,1,37.46,41a52.46,52.46,0,0,1,8-6.49,72.91,72.91,0,0,1,9-5A71.23,71.23,0,0,1,63.75,26c3.15-1,6.34-1.85,9.57-2.59a82.12,82.12,0,0,1,9.87-1.78l.2.53a82.25,82.25,0,0,1-8.72,5c-3,1.51-6,2.88-9,4.16s-6.14,2.36-9.16,3.4a52.08,52.08,0,0,0-8.73,3.72A48.26,48.26,0,0,0,40,43.79a52.25,52.25,0,0,0-6.78,6.77,55.72,55.72,0,0,0-9.72,16.78Z"/><path class="cls-9" d="M342.06,109.08a40.56,40.56,0,0,1-1.27,8.85l-.63,2.17-.72,2.15-.87,2.11-1,2.08c-.34.68-.7,1.36-1,2.06l-1.08,2.06a20.76,20.76,0,0,1-1.29,1.92,16.81,16.81,0,0,1-1.58,1.69,16.57,16.57,0,0,1-8.3,4.31L324,138a49.83,49.83,0,0,1,4.43-7.58,18,18,0,0,1,1.23-1.64c.41-.54.89-1,1.36-1.54l1.42-1.52c.45-.53.89-1.07,1.31-1.63l1.2-1.71,1.12-1.78,1.09-1.82,1-1.87a55.67,55.67,0,0,0,3.35-8Z"/><g class="cls-10"><path class="cls-9" d="M23.21,59.49c9.72-3.84,15.56-14.28,25.53-18.7S69.65,35,80.29,35.05c60.66.29,116.47,39.28,177.11,41A149.67,149.67,0,0,0,343,51.77c-4.78-11.16-10.21-23.09-20.38-28.9-5.25-3-11.27-4-17.17-4.9a402,402,0,0,0-60.82-4.18c-10.43.08-20.86.56-31.28,1.05L87.47,20.69c-9.26.43-18.63.88-27.5,3.73C43.45,29.72,29.6,43.64,23.71,60.88"/></g><g class="cls-10"><path class="cls-9" d="M288.29,131c9.4,1.58,18.78,3.85,28.31,3.58s19.55-3.52,25.19-10.88c-1.32,10.72-10.12,19.57-20.35,24.1s-21.77,5.41-33,5.71c-24.16.64-48.52-1.13-72.35,2.7-7.9,1.27-15.72,3.15-23.72,3.6a133.39,133.39,0,0,1-15.09-.29l-36.8-2.1c8.5.48,26.51-8.88,35-12.27,11.08-4.4,21.81-8.69,33.57-11.47A201.08,201.08,0,0,1,288.29,131Z"/></g><path class="cls-9" d="M41.61,56a45.33,45.33,0,0,1,8.6-9.27,24.14,24.14,0,0,1,5.24-3.68,16.7,16.7,0,0,1,6.26-1.61l.1.26a41.7,41.7,0,0,1-5,3.8c-1.66,1.17-3.56,2-5.29,3.05s-3.39,2.29-5,3.57a58,58,0,0,0-4.7,4.07Z"/><path class="cls-9" d="M316.5,143.87c2.71,0,2.72-4.22,0-4.22s-2.72,4.22,0,4.22Z"/><path class="cls-9" d="M310.81,25.82c2.72,0,2.72-4.22,0-4.22s-2.71,4.22,0,4.22Z"/><path class="cls-9" d="M320.56,29a1.05,1.05,0,0,0,0-2.1,1.05,1.05,0,0,0,0,2.1Z"/></g></g></svg>