<svg xmlns="http://www.w3.org/2000/svg" viewBox="0 0 936.92 285.43"><defs><style>.cls-1{fill:#fafbfb;}.cls-2{fill:#000072;}.cls-3{opacity:0.3;}.cls-4{fill:#fff;}.cls-5{fill:#0d5963;}.cls-6{fill:#ffc200;}.cls-7{fill:#70533e;}.cls-8{fill:#f46cb0;}.cls-9{opacity:0.2;}.cls-10{fill:#ed2a84;}.cls-11{fill:#91142f;}.cls-12{opacity:0.35;}.cls-13{fill:#f9c32b;}.cls-14{fill:#f7ed34;}</style></defs><title>vurulmus-cat</title><g id="katman_2" data-name="katman 2"><g id="katman_1-2" data-name="katman 1"><path class="cls-1" d="M183.44,181.45c-1.42-3.59-3.31-6.14-7.09-3.79-6.15,3.82-.56,14.7.74,19.6,2.08,7.8,3.77,16.43-1.74,23.41-9.22,11.67-28.42,7.87-37.95-1.35-3.85-3.72-7.05-9-6.57-14.62.24-2.82.9-6.32,4.35-6.28,5.16.05,3.1,4.27,4.06,7.19,2.62,7.91,18,16.06,24.71,8.6,4.32-4.81-1.43-13.68-3.16-18.3-3.89-10.33-5.34-21.38,2.47-30.1,10.24-11.44,26.32-9.79,35.57,2.13,2.84,3.66,5.23,7.83,3.49,12.65C199.3,188.92,187.22,189.51,183.44,181.45Z"/><path class="cls-2" d="M159,228.34a32.69,32.69,0,0,1-21.91-8.73c-4.67-4.52-7.11-10-6.68-15,.26-3.09,1-6.64,4.68-6.64h.06c4,0,4.08,2.57,4.13,4.81a9.2,9.2,0,0,0,.31,2.66c1.56,4.73,7.91,9.63,14.15,10.94,4.16.87,7.67,0,9.88-2.48,3.29-3.66.34-10-1.81-14.67-.55-1.18-1.07-2.29-1.42-3.23-4.93-13.1-4.09-23.08,2.55-30.5a22.48,22.48,0,0,1,17.65-7.87c7,.24,13.77,3.9,18.52,10,2.79,3.59,5.38,8,3.54,13a10.72,10.72,0,0,1-19.6.89v0c-1-2.59-2-3.92-3.25-4.32a3.85,3.85,0,0,0-3.26.72c-4.71,2.92-2.1,10.34-.2,15.76.46,1.31.86,2.45,1.11,3.39,2.07,7.77,3.8,16.65-1.81,23.76-3.48,4.41-8.6,7-14.81,7.37C160.24,228.32,159.64,228.34,159,228.34Zm-23.9-29.53c-3,0-3.66,3-3.91,5.92-.57,6.73,4.32,12.25,6.45,14.31a32.16,32.16,0,0,0,23.12,8.46c6-.4,10.91-2.85,14.25-7.08,5.39-6.82,3.78-15.13,1.67-23.06-.24-.92-.64-2-1.09-3.34-1.88-5.35-4.72-13.44.52-16.69a4.6,4.6,0,0,1,3.92-.8c1.88.62,3,2.87,3.74,4.76a9.94,9.94,0,0,0,18.15-.83c1.71-4.72-.78-8.86-3.43-12.28-4.61-5.94-11.14-9.48-17.92-9.72a21.69,21.69,0,0,0-17,7.62c-6.42,7.18-7.21,16.89-2.4,29.7.35.9.86,2,1.4,3.17,2.25,4.84,5.32,11.48,1.69,15.53-2.41,2.68-6.19,3.65-10.63,2.72-6.49-1.36-13.1-6.5-14.74-11.46a10.38,10.38,0,0,1-.35-2.9c-.05-2.32-.09-4-3.34-4Z"/><g class="cls-3"><path class="cls-2" d="M198.83,167.94c-.18-.23-.36-.44-.55-.66a6.82,6.82,0,0,1-4.21,6.06c-7.62,3.75-14.66-7.94-23.31-1.43A12.84,12.84,0,0,0,165.81,182c-.33,19.38,15.89,32.17-2.52,32.9-7,6.29-21.51-1.59-24-9.26-1-2.92,1.1-7.14-4.06-7.19-3.45,0-4.11,3.46-4.35,6.28-.48,5.57,2.72,10.9,6.57,14.62,9.53,9.22,28.73,13,37.95,1.35,5.51-7,3.82-15.61,1.74-23.41-1.3-4.9-6.89-15.78-.74-19.6,3.78-2.35,5.67.2,7.09,3.79,3.78,8.06,15.86,7.47,18.88-.86C204.06,175.77,201.67,171.6,198.83,167.94Z"/></g><path d="M159.05,230.45a34.8,34.8,0,0,1-23.39-9.33c-5.14-5-7.81-11-7.33-16.64s2.85-8.57,6.84-8.57c6.1.07,6.2,4.83,6.25,6.87a8.61,8.61,0,0,0,.2,2.05c1.31,3.95,7.19,8.4,12.59,9.53a12.78,12.78,0,0,0,2.6.29,6.74,6.74,0,0,0,5.27-2.11c2.36-2.63-.36-8.49-2.16-12.37-.57-1.24-1.1-2.38-1.48-3.37-5.23-13.92-4.26-24.6,2.95-32.66a24.65,24.65,0,0,1,18.44-8.59l.87,0c7.65.27,15,4.22,20.11,10.84,2.95,3.8,6.06,9,3.86,15a12.46,12.46,0,0,1-11.41,8.22h-.63a12.45,12.45,0,0,1-11.46-7.17l-.06-.13c-1-2.44-1.65-3-1.91-3.08l-.47-.22-.1.24a4.65,4.65,0,0,0-1,.47c-3.27,2-.89,8.79.68,13.27.46,1.3.89,2.52,1.16,3.55,2.2,8.26,4,17.74-2.19,25.61-3.86,4.89-9.51,7.71-16.33,8.17-.64,0-1.29.06-1.94.06Zm-23.93-29.53c-1,0-1.56,1.19-1.8,4-.49,5.83,3.9,10.76,5.82,12.61a30.1,30.1,0,0,0,19.94,7.92c.53,0,1,0,1.57-.05a17.27,17.27,0,0,0,12.74-6.28c4.78-6.05,3.26-13.8,1.28-21.21-.22-.83-.61-2-1-3.15-2-5.65-5.29-15.07,1.39-19.22a7.6,7.6,0,0,1,4-1.28,5.62,5.62,0,0,1,1.72.27c2.69.89,4.08,3.63,5,5.91a7.61,7.61,0,0,0,7,4.25H193a7.57,7.57,0,0,0,6.93-4.93c1.11-3.07.24-6-3.11-10.26-4.22-5.45-10.17-8.69-16.33-8.91h-.66a19.72,19.72,0,0,0-14.73,6.92c-5.94,6.63-6.57,15.39-2,27.55.32.84.81,1.91,1.33,3,2.36,5.08,5.91,12.74,1.35,17.83a11.74,11.74,0,0,1-9,3.77,17.89,17.89,0,0,1-3.63-.39c-7.26-1.52-14.43-7.17-16.31-12.87a11.74,11.74,0,0,1-.46-3.51,13.4,13.4,0,0,0-.08-1.49l-.06-.35-.35-.07a4.22,4.22,0,0,0-.77-.06Z"/><path class="cls-4" d="M179.83,156.05l.85,0c7.5.26,14.69,4.14,19.73,10.64,2.88,3.71,5.91,8.72,3.79,14.57a12,12,0,0,1-11,7.89l-.61,0a11.84,11.84,0,0,1-11-6.88.61.61,0,0,1,0-.12c-.77-1.92-1.5-3.05-2.18-3.35l-1-.43-.2.52a6,6,0,0,0-.83.43c-3.61,2.24-1.25,9,.47,13.87.45,1.28.88,2.5,1.15,3.51,2.17,8.14,4,17.48-2.11,25.17-3.77,4.77-9.29,7.53-16,8-.62,0-1.26.06-1.9.06A34.32,34.32,0,0,1,136,220.76c-5-4.85-7.63-10.77-7.17-16.23s2.59-8.12,6.37-8.12c4.92.05,5.65,3.25,5.72,6.39a8.14,8.14,0,0,0,.23,2.18c1.37,4.17,7.31,8.69,12.95,9.87a13.22,13.22,0,0,0,2.71.3,7.25,7.25,0,0,0,5.65-2.28c2.57-2.87-.12-8.67-2.1-12.93-.55-1.2-1.08-2.34-1.45-3.32-5.16-13.72-4.22-24.24,2.86-32.14a24.11,24.11,0,0,1,18.06-8.43m-23,63.11a17.62,17.62,0,0,1-3.53-.38c-7.1-1.49-14.11-7-15.94-12.54a11.31,11.31,0,0,1-.43-3.37,12.8,12.8,0,0,0-.09-1.55l-.11-.7-.69-.13a5.15,5.15,0,0,0-.83-.07h-.07c-1.68,0-2.1,2.14-2.29,4.45-.52,6,4,11.11,6,13a30.61,30.61,0,0,0,20.29,8.06c.54,0,1.08,0,1.61-.05a17.8,17.8,0,0,0,13.09-6.46c4.93-6.24,3.38-14.12,1.38-21.66-.23-.85-.63-2-1.06-3.22-1.93-5.48-5.15-14.65,1.19-18.59a7.09,7.09,0,0,1,3.72-1.21,4.9,4.9,0,0,1,1.56.25c2.5.82,3.82,3.44,4.7,5.62v.06a8,8,0,0,0,7.4,4.5h.37a8,8,0,0,0,7.37-5.26c1.18-3.25.29-6.27-3.18-10.74-4.31-5.56-10.4-8.88-16.71-9.1h-.68a20.25,20.25,0,0,0-15.11,7.09c-6.07,6.78-6.73,15.7-2.09,28.06.32.85.82,1.93,1.35,3.07,2.3,4.95,5.77,12.43,1.43,17.27a11.22,11.22,0,0,1-8.63,3.61m23-64.11A25.1,25.1,0,0,0,161,163.81C153.67,172,152.67,182.87,158,197c.39,1,.93,2.19,1.5,3.41,1.74,3.76,4.38,9.44,2.24,11.83a6.35,6.35,0,0,1-4.9,1.94,12.26,12.26,0,0,1-2.5-.28c-5.25-1.09-11-5.39-12.21-9.2a7.68,7.68,0,0,1-.18-1.9c0-2-.16-7.29-6.71-7.36h0c-3,0-6.7,1.54-7.34,9-.49,5.76,2.24,12,7.48,17A35.39,35.39,0,0,0,159.05,231c.66,0,1.32,0,2-.06,7-.47,12.74-3.36,16.69-8.36,6.36-8.06,4.52-17.67,2.29-26.05-.28-1-.72-2.28-1.18-3.58-1.51-4.33-3.81-10.87-.89-12.69a2.7,2.7,0,0,1,1.07-.46s.66.32,1.65,2.81a1.22,1.22,0,0,0,.07.17,12.92,12.92,0,0,0,11.91,7.46l.65,0a13,13,0,0,0,11.86-8.55c2.28-6.31-.9-11.61-3.94-15.52-5.22-6.74-12.69-10.76-20.48-11l-.89,0Zm-23,65.11a12.18,12.18,0,0,0,9.37-3.94c4.79-5.33,1.15-13.18-1.26-18.37-.52-1.12-1-2.18-1.32-3-4.5-12-3.9-20.57,1.9-27a19.16,19.16,0,0,1,14.36-6.76h.64c6,.21,11.83,3.39,16,8.71,3.22,4.16,4.07,6.91,3,9.79a7.07,7.07,0,0,1-6.48,4.6h-.32a7.06,7.06,0,0,1-6.5-3.93c-1-2.41-2.44-5.25-5.31-6.2a6,6,0,0,0-1.87-.3,8.09,8.09,0,0,0-4.25,1.36c-7,4.36-3.63,14-1.6,19.78.41,1.19.81,2.32,1,3.14,1.94,7.29,3.45,14.9-1.2,20.78a16.8,16.8,0,0,1-12.37,6.08c-.51,0-1,.05-1.54.05a29.56,29.56,0,0,1-19.59-7.78c-1.87-1.8-6.15-6.59-5.67-12.21.29-3.43,1-3.53,1.3-3.53h0a3.28,3.28,0,0,1,.68.06,12.38,12.38,0,0,1,.08,1.42,12.44,12.44,0,0,0,.48,3.65c1.93,5.85,9.26,11.65,16.69,13.21a18.23,18.23,0,0,0,3.73.4Z"/><path class="cls-1" d="M21,175.07l9.7,47.49c-4.16,1.63-7.68,5.43-6.79,13.86H52.57l11.58-61.35Z"/><path class="cls-2" d="M52.9,236.82H23.56l0-.36c-.76-7.19,1.51-12,6.72-14.14l-9.72-47.65h44.1l-.09.47ZM24.27,236h28l11.42-60.57H21.48l9.67,47.35-.31.12C25.86,224.88,23.65,229.29,24.27,236Z"/><g class="cls-3"><path class="cls-2" d="M20.26,177.23l19.65,48c-4.15,1.62-10.16,3.1-9.27,11.54l9-.32H58.71l11.57-61.35Z"/></g><path d="M52.57,239.43H23.91a3,3,0,0,1-3-2.69c-1-9.2,2.88-13.68,6.37-15.82l-9.24-45.25a3,3,0,1,1,5.89-1.2L33.64,222a3,3,0,0,1-1.85,3.4c-2.16.85-4.87,2.61-5,8.06h23.3L58,191.69a3,3,0,0,1,5.91,1.11L55.53,237A3,3,0,0,1,52.57,239.43Z"/><path class="cls-1" d="M85.76,124.28s4.68,19.63,23.32,23.73,47.49,20.58,35.56,63.19-75.91-6.48-75.91-6.48-40.22,8.87-54.61-23.86S38.12,93.26,85.76,124.28Z"/><g class="cls-3"><ellipse class="cls-2" cx="59.87" cy="133.74" rx="38.95" ry="32.2" transform="translate(-7.45 3.59) rotate(-3.24)"/></g><g class="cls-3"><path class="cls-2" d="M101,192.53c-3.6,2.48-8,10.85-8,10.85s-4-4.32-46.11-9.39c-24-2.89-32.69-14.94-35.75-24.76a36.54,36.54,0,0,0,2.9,11.63c14.39,32.73,54.61,23.86,54.61,23.86s21.84,16.75,42.38,22.19C87,210.46,104.39,190.21,101,192.53Z"/></g><circle class="cls-5" cx="61.52" cy="115.67" r="40.56" transform="translate(-63.77 77.38) rotate(-45)"/><path d="M122.79,231.58c-21.54,0-48.93-19.33-54.8-23.66a69.54,69.54,0,0,1-21.64.11c-16.57-2.62-28.67-11.6-35-26-8.15-18.51-1-43.75,16.62-58.71,17.06-14.49,38.71-15.07,59.41-1.6a3,3,0,0,1,1.28,1.82c.19.79,4.56,17.87,21,21.5,7.1,1.56,24.68,6.95,34.39,23.13,7.09,11.83,8.25,26.57,3.42,43.8-2.66,9.49-7.95,15.62-15.73,18.21A28.41,28.41,0,0,1,122.79,231.58ZM68.73,201.72a3,3,0,0,1,1.83.62c.38.29,38.39,29.17,59.35,22.18,5.85-2,9.72-6.57,11.84-14.13,4.36-15.58,3.42-28.73-2.8-39.09-8.5-14.18-24.18-19-30.52-20.35-17.67-3.9-23.84-20.11-25.26-24.76-18-11.3-36.66-10.68-51.29,1.75-15.42,13.09-22,35.8-15,51.71,5.5,12.52,15.68,20.07,30.24,22.42a63.44,63.44,0,0,0,21-.28A2.79,2.79,0,0,1,68.73,201.72Z"/><path d="M72,157.31a42.93,42.93,0,1,1,32.47-41.44h0A43,43,0,0,1,72,157.31ZM52.22,78.61a38.23,38.23,0,1,0,9.48-1.14A38.26,38.26,0,0,0,52.22,78.61Zm49.86,37.25h0Z"/><g class="cls-3"><path class="cls-2" d="M62.38,74.94a40.56,40.56,0,0,0-39,28.83c8.12,1.3,15.8,3.61,22.67,9.13C59,123.28,64.73,139.57,68.5,155.57a40.56,40.56,0,0,0-6.12-80.63Z"/></g><circle class="cls-6" cx="48.22" cy="150.67" r="10.06" transform="translate(-70.04 45.59) rotate(-30.63)"/><path class="cls-2" d="M48.22,161.12a10.45,10.45,0,1,1,10.12-7.85A10.44,10.44,0,0,1,48.22,161.12Zm0-20.11a9.66,9.66,0,1,0,9.36,12.06h0a9.68,9.68,0,0,0-7-11.76A9.92,9.92,0,0,0,48.22,141Z"/><g class="cls-3"><path class="cls-2" d="M54.53,143.23a11.71,11.71,0,0,0-1-.69,10,10,0,0,1-15.1,10,10.06,10.06,0,1,0,16.14-9.29Z"/></g><path d="M48.22,163.73a12.91,12.91,0,0,1-3.24-.41,13.06,13.06,0,1,1,15.89-9.41h0A13.07,13.07,0,0,1,48.22,163.73Zm0-20.11a7.05,7.05,0,1,0,6.83,8.8h0a7,7,0,0,0-6.83-8.8Z"/><path d="M45.72,161.59l-.29,0a1.19,1.19,0,0,1-.85-1.44l2.5-9.74a1.18,1.18,0,1,1,2.28.59l-2.49,9.74A1.19,1.19,0,0,1,45.72,161.59Z"/><path class="cls-1" d="M106,47,75.65,58a46.74,46.74,0,0,0-33.92.48l0,0L9.86,46.56a5.05,5.05,0,0,0-6.79,4.32c-.75,8.81-.77,25,6.61,39.24l0,0a46.09,46.09,0,0,0-3.87,17.62c-.12,24.53,23.75,36,53.27,36.15s53.5-11.11,53.61-35.65A47.6,47.6,0,0,0,107.42,87c5.82-13.24,5.9-27.54,5.29-35.63A5,5,0,0,0,106,47Z"/><path class="cls-7" d="M106,48,75.65,59a49.41,49.41,0,0,0-9.3-2.4,34.21,34.21,0,0,0,46.23,49.37A49.24,49.24,0,0,0,107.42,88c5.82-13.24,5.9-27.54,5.29-35.63A5,5,0,0,0,106,48Z"/><path class="cls-8" d="M17.47,60a2.62,2.62,0,0,0-3.53,2.24c-.37,4.35-.39,12.17,2.91,19.29.17.36.34.73.53,1.09h0a19.07,19.07,0,0,1,1.25-2.69A32.26,32.26,0,0,1,34,66.14h0Z"/><path class="cls-2" d="M17.21,83.08,17,82.77q-.29-.55-.54-1.11c-3.38-7.29-3.29-15.33-2.94-19.48a3,3,0,0,1,4.06-2.58L34.73,66l-.55.53A31.86,31.86,0,0,0,19,80.08a18.81,18.81,0,0,0-1.23,2.63l-.05.17ZM16,60.26a2.25,2.25,0,0,0-1.69,2c-.34,4.07-.42,12,2.88,19.08,0,.1.09.2.14.3.2-.47.51-1.13.95-1.93A32.57,32.57,0,0,1,33,66.17L17.33,60.34A2.18,2.18,0,0,0,16,60.26Z"/><g class="cls-9"><path class="cls-2" d="M23,61.79a1.75,1.75,0,0,0-2.48,1.28,26.48,26.48,0,0,0,.79,13c.09.25.18.5.29.76h0a12.54,12.54,0,0,1,1-1.71,21.53,21.53,0,0,1,11.06-8.25h0Z"/></g><path d="M17.77,84.11a1.6,1.6,0,0,1-1.79-.8c-.2-.38-.38-.77-.56-1.15-3.49-7.54-3.41-15.82-3-20.08A4.18,4.18,0,0,1,18,58.5l16.56,6.16a1.56,1.56,0,0,1,1,1.12,1.61,1.61,0,0,1-.4,1.44,1.82,1.82,0,0,1-.51.36A30.72,30.72,0,0,0,20,80.65a17.2,17.2,0,0,0-1.14,2.44A1.58,1.58,0,0,1,18,84Zm-1.46-22.7a.9.9,0,0,0-.31.13,1.06,1.06,0,0,0-.49.81,39.67,39.67,0,0,0,1.93,16.47A33.51,33.51,0,0,1,30.11,66.35L16.92,61.44h0A1,1,0,0,0,16.31,61.41Z"/><path class="cls-10" d="M100.11,59.05a2.62,2.62,0,0,1,3.5,2.29c.31,4.35.23,12.17-3.15,19.24-.18.36-.35.73-.54,1.08h0A18,18,0,0,0,98.68,79,32.19,32.19,0,0,0,83.48,65h0Z"/><path class="cls-2" d="M100.1,82.16l-.5-.2-.07-.18a19.82,19.82,0,0,0-1.19-2.64,31.92,31.92,0,0,0-15-13.77l-.1-.08-.47-.44.59-.22L100,58.68a3,3,0,0,1,2.66.31A3,3,0,0,1,104,61.31c.3,4.15.28,12.19-3.19,19.44-.18.37-.35.74-.55,1.1ZM84.49,65.05A32.56,32.56,0,0,1,99,78.77c.43.8.73,1.46.93,1.94l.14-.3c3.39-7.08,3.41-15,3.11-19a2.23,2.23,0,0,0-3-1.94Z"/><g class="cls-9"><path class="cls-2" d="M94.93,60.26a1.87,1.87,0,0,1,2.65,1.39,28.24,28.24,0,0,1-.94,13.92c-.1.27-.2.54-.31.81h0a13.2,13.2,0,0,0-1-1.84,23,23,0,0,0-11.78-8.91h0Z"/></g><path d="M100.3,83.19a1.58,1.58,0,0,1-1-.07,1.65,1.65,0,0,1-.92-1,16.93,16.93,0,0,0-1.1-2.44A30.73,30.73,0,0,0,82.82,66.44a1.37,1.37,0,0,1-.42-.29,1.57,1.57,0,0,1,.54-2.63l16.64-6h0a4.18,4.18,0,0,1,5.59,3.65c.31,4.27.29,12.55-3.3,20-.18.38-.36.77-.57,1.15A1.57,1.57,0,0,1,100.3,83.19ZM87.39,65.27A33.53,33.53,0,0,1,99.9,77.9,39.78,39.78,0,0,0,102,61.45a1.07,1.07,0,0,0-.48-.81,1,1,0,0,0-.92-.11Z"/><path d="M82.56,145a95.21,95.21,0,0,1-23.46,2.58c-34.66-.16-56.13-15.07-56-38.91A47.68,47.68,0,0,1,6.67,91.25C-.51,76.59-.4,60.23.32,51.65A7.82,7.82,0,0,1,10.82,45L41.74,56.49A49.4,49.4,0,0,1,75.65,56L105,45.43h0a7.8,7.8,0,0,1,10.43,6.77c.57,7.56.64,22.07-5,35.75a50,50,0,0,1,5,21.28C115.39,127.09,103.23,139.83,82.56,145ZM12,89.56a2.7,2.7,0,0,1,.27,2.61,43,43,0,0,0-3.65,16.55c-.05,10.65,4.73,19,14.22,24.87,8.91,5.5,21.47,8.45,36.31,8.52s27.44-2.76,36.4-8.17c9.54-5.77,14.4-14.09,14.45-24.74a44.85,44.85,0,0,0-5-20,2.75,2.75,0,0,1,0-2.33c5.68-12.93,5.61-27,5.06-34.31a2.29,2.29,0,0,0-3.07-2L76.59,61.55a2.76,2.76,0,0,1-1.88,0,43.94,43.94,0,0,0-32,.45,2.76,2.76,0,0,1-2.27-.11L8.9,50.14a2.29,2.29,0,0,0-3.09,2C5.12,60.26,5,75.91,12,89.56Z"/><path class="cls-11" d="M45.72,116.77a2,2,0,0,0-.29.84c-.26,2.37,3.92,4.77,9.32,5.35s10-.89,10.24-3.26a2.1,2.1,0,0,0-.11-.89Z"/><path d="M62.52,106.79c.07,2.82-4.63,6.87-7.45,6.95s-7.15-3.74-7.23-6.56,4.14-3.58,7-3.65S62.44,104,62.52,106.79Z"/><path class="cls-4" d="M59.35,106.48c0,.5-1,.94-2.24,1s-2.27-.35-2.28-.85,1-.94,2.24-1S59.34,106,59.35,106.48Z"/><path class="cls-2" d="M58.51,107.3a4.76,4.76,0,0,1-1.39.22,4.31,4.31,0,0,1-1.64-.23c-.46-.17-.72-.41-.73-.69s.24-.53.69-.73a4.33,4.33,0,0,1,1.62-.31c1.31,0,2.35.37,2.37.92h0C59.44,106.81,59.08,107.1,58.51,107.3Zm-2.79-1.38-.22.08c-.39.17-.61.39-.6.6s.23.41.63.56a4.44,4.44,0,0,0,1.58.22c1.19,0,2.18-.44,2.17-.9h0c0-.45-1-.81-2.21-.78A4.54,4.54,0,0,0,55.72,105.92Z"/><path class="cls-1" d="M68.1,114.42c-.2,2.18-2.95,6-6.77,5.58s-6.77-2.41-6.56-4.58c-.21,2.17-3.48,3.63-7.3,3.27s-5.82-4.58-5.61-6.75"/><path d="M68,114.09a5,5,0,0,1-.24,2.42,7.91,7.91,0,0,1-1.18,2.24,7.15,7.15,0,0,1-2,1.79,6.51,6.51,0,0,1-2.73.88,13,13,0,0,1-1.37,0c-.43,0-.86-.07-1.3-.14a10.5,10.5,0,0,1-2.6-.75,7.54,7.54,0,0,1-2.47-1.68,5.06,5.06,0,0,1-1-1.48,4.59,4.59,0,0,1-.38-2,2,2,0,1,1,3.93.13v.1h0a4.48,4.48,0,0,1-.62,2,5.58,5.58,0,0,1-1.17,1.35,7.6,7.6,0,0,1-2.67,1.36,10.38,10.38,0,0,1-2.67.42,11.42,11.42,0,0,1-1.31,0,12.82,12.82,0,0,1-1.35-.19,6.62,6.62,0,0,1-2.6-1.21,7.32,7.32,0,0,1-1.76-2,7.56,7.56,0,0,1-.89-2.38,5,5,0,0,1,.07-2.43,7.59,7.59,0,0,0,2.33,3.61,5,5,0,0,0,3.28,1.37,6.19,6.19,0,0,0,.93,0c.33,0,.66-.06,1-.13a9.15,9.15,0,0,0,1.8-.5,4.31,4.31,0,0,0,1.34-.79.92.92,0,0,0,.39-.58l3.92.24a1,1,0,0,0,.32.63,4.37,4.37,0,0,0,1.23.95,9,9,0,0,0,1.73.72c.31.11.63.17,1,.25a7.78,7.78,0,0,0,.92.16,5,5,0,0,0,3.43-1A7.56,7.56,0,0,0,68,114.09Z"/><line x1="23.82" y1="111.95" x2="14.17" y2="111.46"/><path d="M23.76,113.07l-9.59-1.61,9.71-.64a1.13,1.13,0,0,1,.15,2.26A1.22,1.22,0,0,1,23.76,113.07Z"/><line x1="24.65" y1="117.42" x2="15.75" y2="121.16"/><path d="M25.09,118.46l-9.34,2.7,8.47-4.78a1.14,1.14,0,0,1,1.54.44,1.12,1.12,0,0,1-.43,1.54A1.22,1.22,0,0,1,25.09,118.46Z"/><line x1="27.77" y1="122" x2="21.35" y2="129.22"/><path d="M28.61,122.75l-7.26,6.47,5.58-8a1.14,1.14,0,0,1,1.86,1.31A1.09,1.09,0,0,1,28.61,122.75Z"/><line x1="89.66" y1="115.23" x2="99.31" y2="115.72"/><path d="M89.72,114.11l9.59,1.61-9.7.64a1.13,1.13,0,1,1,.11-2.25Z"/><line x1="88.29" y1="120.6" x2="96.78" y2="125.2"/><path d="M88.83,119.61l8,5.59-9-3.61a1.13,1.13,0,0,1,.84-2.1A.9.9,0,0,1,88.83,119.61Z"/><line x1="84.73" y1="124.85" x2="90.4" y2="132.67"/><path d="M85.64,124.19l4.76,8.48-6.58-7.16A1.14,1.14,0,0,1,85.49,124,1.07,1.07,0,0,1,85.64,124.19Z"/><path d="M101.28,192.88a33.52,33.52,0,0,0-5.35,7.91,20,20,0,0,0-2.09,8.54,15.88,15.88,0,0,0,.56,4.13,19.17,19.17,0,0,0,1.49,3.91,45,45,0,0,0,4.85,7.38l0,0a3,3,0,0,1-4.39,4.1,25.47,25.47,0,0,1-6.41-8.8,10.64,10.64,0,0,1-.52-1.32c-.16-.45-.33-.89-.46-1.35a27.11,27.11,0,0,1-.58-2.82,19.72,19.72,0,0,1,0-5.74,21.72,21.72,0,0,1,4.45-10,25.89,25.89,0,0,1,7.88-6.71.44.44,0,0,1,.59.18.42.42,0,0,1-.06.49Z"/><path class="cls-1" d="M45.12,184,53,222.56c-4.15,1.63-7.67,5.43-6.78,13.86H74.88l8.33-44.17Z"/><path d="M45.56,183.85c1.26,3.1,2.3,6.24,3.3,9.39s1.88,6.32,2.7,9.5,1.6,6.38,2.33,9.59,1.41,6.41,2,9.64v0a3,3,0,0,1-1.84,3.34,8.72,8.72,0,0,0-2.62,1.56,7,7,0,0,0-1.71,2.4,10.52,10.52,0,0,0-.8,3.19,21.13,21.13,0,0,0,0,3.64l-2.77-2.49c2.39,0,4.78,0,7.16,0l7.17-.05,14.33-.17-2.94,2.44q1-5.53,2.06-11.05l1.11-5.51,1.19-5.49c.79-3.66,1.67-7.31,2.73-10.92a92.93,92.93,0,0,1,3.73-10.74.46.46,0,0,1,.62-.24.45.45,0,0,1,.28.41,91.15,91.15,0,0,1-.43,11.36c-.33,3.75-.84,7.46-1.44,11.16l-.9,5.55-1,5.54q-1,5.52-2.11,11V237a3,3,0,0,1-2.93,2.38l-14.33-.17-7.17-.05c-2.38,0-4.77,0-7.16,0a2.77,2.77,0,0,1-2.77-2.49,26.54,26.54,0,0,1-.1-4.73,17,17,0,0,1,1.12-4.92,12.81,12.81,0,0,1,3-4.46,14.12,14.12,0,0,1,4.46-2.82l-1.83,3.37c-.69-3.21-1.32-6.43-1.91-9.66S47,207,46.55,203.77s-.89-6.52-1.24-9.81-.59-6.58-.64-9.92a.47.47,0,0,1,.45-.48A.47.47,0,0,1,45.56,183.85Z"/><path class="cls-1" d="M144,212.74s-6.72,21-14.9,23.68H83.51s-8-31,32.41-13.25"/><path d="M146.06,215.59c-.76,2.26-1.58,4.34-2.5,6.46a65.35,65.35,0,0,1-3.07,6.23,38.08,38.08,0,0,1-4,5.93,19.44,19.44,0,0,1-2.73,2.71A11.94,11.94,0,0,1,130,239a2.54,2.54,0,0,1-.85.15H85.5a2.75,2.75,0,0,1-2.66-2.08c-.12-.52-.19-.88-.28-1.31s-.14-.82-.2-1.24q-.17-1.23-.24-2.49a20.7,20.7,0,0,1,.34-5.17,13.46,13.46,0,0,1,2.17-5.19A11.12,11.12,0,0,1,89.19,218a13.66,13.66,0,0,1,5.33-1.17,20.65,20.65,0,0,1,5,.5,29.86,29.86,0,0,1,8.74,3.47.94.94,0,0,1,.34,1.28,1,1,0,0,1-.92.46h0a84.78,84.78,0,0,0-8.68-.79,15.08,15.08,0,0,0-7.31,1.32,6.45,6.45,0,0,0-2.22,2,8.82,8.82,0,0,0-1.27,3,16.31,16.31,0,0,0-.38,3.76q0,1,.12,2c0,.33.08.66.14,1s.11.68.16.89l-2.68-2.08h43.61l-.87.14a10,10,0,0,0,4-3.16,33.83,33.83,0,0,0,3.43-5.07c1-1.84,2-3.76,2.82-5.73s1.65-4,2.31-6v0a2.75,2.75,0,1,1,5.22,1.75Z"/><g class="cls-3"><path d="M90.74,218.42c-10.65,3.45-6.88,18-6.88,18h45.62c6.05-2,11.3-14,13.63-20.1A33.57,33.57,0,0,0,145,211.2a74.24,74.24,0,0,0,2.66-14.77C129.17,222.44,134.11,227.93,90.74,218.42Z"/></g><g class="cls-12"><path d="M53,222.56c-4.15,1.63-7.67,5.43-6.78,13.86H74.88l5.2-27.55C74.93,216.62,66.57,223.1,53,222.56Z"/></g><path d="M58.53,225.68a5.33,5.33,0,0,0-1.07,2.48,10.24,10.24,0,0,0-.14,2.65,17.87,17.87,0,0,0,.39,2.61L58,234.7l.39,1.26,0,0a2.09,2.09,0,0,1-4,1.26,2.47,2.47,0,0,1-.09-.76l.09-1.51c0-.5.12-1,.17-1.5a19.92,19.92,0,0,1,.66-3,11.48,11.48,0,0,1,1.22-2.75A5.82,5.82,0,0,1,58.53,225.68Z"/><path d="M66,226.53a14.13,14.13,0,0,0-.92,5.07,12.24,12.24,0,0,0,.23,2.44,13.68,13.68,0,0,0,.63,2.26,2.22,2.22,0,0,1-4.18,1.5,2.07,2.07,0,0,1-.13-.88v0a17.1,17.1,0,0,1,.42-3,15.87,15.87,0,0,1,4-7.37Z"/><path d="M33.06,227a4.63,4.63,0,0,0-.93,2.16A9,9,0,0,0,32,231.5a14.46,14.46,0,0,0,.34,2.27l.29,1.12L33,236v.05a1.82,1.82,0,1,1-3.48,1.1,1.9,1.9,0,0,1-.08-.66l.07-1.32c0-.44.1-.88.15-1.32a17.6,17.6,0,0,1,.57-2.59,10.16,10.16,0,0,1,1.06-2.41A5.07,5.07,0,0,1,33.06,227Z"/><path d="M40.14,227.15a13.16,13.16,0,0,0-.85,4.74,12.16,12.16,0,0,0,.22,2.28,11.94,11.94,0,0,0,.6,2.11,2.08,2.08,0,1,1-3.91,1.41,2,2,0,0,1-.12-.82v0a16.13,16.13,0,0,1,.38-2.8,14.71,14.71,0,0,1,.85-2.58A14.08,14.08,0,0,1,40.14,227.15Z"/><g class="cls-9"><path d="M105.91,49.06,75.6,60a47.26,47.26,0,0,0-16.12-3c-.43,0-6.86.59-7.29.6,20.51,4.83,42.21,18,47.48,36.78,7.25,25.86-1.6,34.43-14.18,47.91,16.17-5,27.1-15.54,27.18-32.08a47.64,47.64,0,0,0-5.3-21.19c5.82-13.24,5.9-27.54,5.29-35.62A5.06,5.06,0,0,0,105.91,49.06Z"/></g><path d="M55.65,117.62a2.1,2.1,0,0,1-.62.16A2,2,0,0,1,52.9,116l-.52-5.72a2,2,0,1,1,3.91-.36l.52,5.72A2,2,0,0,1,55.65,117.62Z"/><path d="M94.86,225.3a5.09,5.09,0,0,0-1,2.34,9.45,9.45,0,0,0-.12,2.49,15.69,15.69,0,0,0,.36,2.46l.31,1.21.37,1.19,0,0A2,2,0,0,1,91,236.22a2.17,2.17,0,0,1-.09-.71l.09-1.42c0-.48.11-1,.16-1.42a18.76,18.76,0,0,1,.62-2.79,10.62,10.62,0,0,1,1.15-2.6A5.4,5.4,0,0,1,94.86,225.3Z"/><path d="M101.89,226.1a13.18,13.18,0,0,0-.87,4.78,12.38,12.38,0,0,0,.21,2.3,13.39,13.39,0,0,0,.6,2.13,2.09,2.09,0,0,1-3.94,1.42,2,2,0,0,1-.12-.84v0a15.45,15.45,0,0,1,.39-2.82,15.05,15.05,0,0,1,3.73-6.94Z"/><circle cx="35.61" cy="96.25" r="8"/><circle class="cls-4" cx="37.62" cy="93.26" r="2"/><ellipse class="cls-4" cx="32.37" cy="98.8" rx="1" ry="1.5" transform="matrix(0.92, -0.38, 0.38, 0.92, -35.17, 19.75)"/><circle cx="79.54" cy="96.49" r="8"/><circle class="cls-4" cx="76.52" cy="94.52" r="2"/><ellipse class="cls-4" cx="83.52" cy="97.57" rx="1" ry="1.5" transform="translate(-1.1 0.95) rotate(-0.65)"/><ellipse class="cls-4" cx="448.37" cy="283.95" rx="1" ry="1.5" transform="translate(-49.73 100.77) rotate(-12.15)"/><path class="cls-1" d="M424.9,181.45c-1.31-3.59-3-6.14-6.54-3.79-5.68,3.82-.52,14.7.68,19.6,1.92,7.8,3.48,16.43-1.61,23.41-8.51,11.67-26.23,7.87-35-1.35-3.55-3.72-6.5-9-6.06-14.62.22-2.82.84-6.32,4-6.28,4.76.05,2.86,4.27,3.75,7.19,2.41,7.91,16.63,16.06,22.8,8.6,4-4.81-1.31-13.68-2.91-18.3-3.59-10.33-4.93-21.38,2.28-30.1,9.46-11.44,24.3-9.79,32.84,2.13,2.62,3.66,4.83,7.83,3.22,12.65A9.26,9.26,0,0,1,424.9,181.45Z"/><path class="cls-2" d="M402.37,228.34a29,29,0,0,1-20.23-8.73c-4.31-4.52-6.56-10-6.17-15,.24-3.09,1-6.64,4.33-6.64h.05c3.71,0,3.76,2.57,3.81,4.81a10.39,10.39,0,0,0,.28,2.66c1.45,4.73,7.31,9.63,13.07,10.94,3.84.87,7.08,0,9.13-2.48,3-3.66.31-10-1.68-14.67-.51-1.18-1-2.29-1.31-3.23C399.1,183,399.87,173,406,165.55c4.39-5.31,10.19-8.1,16.3-7.87,6.48.24,12.71,3.9,17.1,10,2.57,3.59,5,8,3.27,13a9.69,9.69,0,0,1-8.79,6.83,9.53,9.53,0,0,1-9.31-5.94v0c-.94-2.59-1.87-3.92-3-4.32a3.34,3.34,0,0,0-3,.72c-4.35,2.92-1.94,10.34-.18,15.76.42,1.31.79,2.45,1,3.39,1.91,7.77,3.51,16.65-1.67,23.76A17.93,17.93,0,0,1,404,228.28C403.49,228.32,402.93,228.34,402.37,228.34ZM380.3,198.81c-2.77,0-3.38,3-3.61,5.92-.53,6.73,4,12.25,6,14.31,5.34,5.6,13.92,9,21.34,8.46a17.26,17.26,0,0,0,13.16-7.08c5-6.82,3.49-15.13,1.54-23.06-.23-.92-.59-2-1-3.34-1.73-5.35-4.35-13.44.48-16.69a4,4,0,0,1,3.63-.8c1.73.62,2.75,2.87,3.44,4.76a8.8,8.8,0,0,0,8.62,5.49,9,9,0,0,0,8.14-6.32c1.58-4.72-.72-8.86-3.17-12.28-4.25-5.94-10.28-9.48-16.54-9.72-5.9-.23-11.5,2.48-15.74,7.62-5.93,7.18-6.66,16.89-2.21,29.7.31.9.79,2,1.28,3.17,2.08,4.84,4.92,11.48,1.57,15.53-2.23,2.68-5.72,3.65-9.81,2.72-6-1.36-12.1-6.5-13.62-11.46a11.17,11.17,0,0,1-.32-2.9c0-2.32-.08-4-3.09-4Z"/><g class="cls-3"><path class="cls-2" d="M439.11,167.94c-.16-.23-.34-.44-.5-.66a6.87,6.87,0,0,1-3.89,6.06c-7,3.75-13.54-7.94-21.52-1.43A13.23,13.23,0,0,0,408.63,182c-.31,19.38,14.67,32.17-2.33,32.9-6.45,6.29-19.86-1.59-22.2-9.26-.89-2.92,1-7.14-3.75-7.19-3.18,0-3.8,3.46-4,6.28-.44,5.57,2.51,10.9,6.06,14.62,8.81,9.22,26.53,13,35,1.35,5.09-7,3.53-15.61,1.61-23.41-1.2-4.9-6.36-15.78-.68-19.6,3.49-2.35,5.23.2,6.54,3.79a9.26,9.26,0,0,0,17.43-.86C443.94,175.77,441.73,171.6,439.11,167.94Z"/></g><path d="M402.38,230.47a30.85,30.85,0,0,1-21.57-9.32c-4.74-5-7.21-11-6.76-16.67s2.61-8.59,6.29-8.59c5.61.07,5.71,4.84,5.75,6.89a9.09,9.09,0,0,0,.18,2c1.21,3.95,6.64,8.4,11.63,9.53a11.15,11.15,0,0,0,2.42.29,6,6,0,0,0,4.89-2.12c2.16-2.61-.34-8.45-2-12.31-.53-1.24-1-2.38-1.36-3.39-4.84-13.93-4-24.62,2.72-32.7,4.58-5.53,10.61-8.58,17-8.58l.8,0c7.05.27,13.81,4.22,18.54,10.83,2.73,3.82,5.61,9,3.57,15.09A11.63,11.63,0,0,1,434,189.69h-.59a11.44,11.44,0,0,1-10.55-7.17l-.06-.14c-.85-2.34-1.47-2.93-1.76-3.07l-.46-.22-.1.25a3.4,3.4,0,0,0-.9.47c-3,2-.9,8.49.63,13.22.42,1.3.82,2.52,1.08,3.56,2,8.27,3.72,17.76-2,25.65a19.81,19.81,0,0,1-15.05,8.16c-.59,0-1.19.06-1.78.06Zm-22.09-29.53c-1,0-1.45,1.15-1.68,4-.45,5.81,3.6,10.74,5.36,12.59a26.75,26.75,0,0,0,18.44,7.92c.49,0,1,0,1.46,0a15.58,15.58,0,0,0,11.78-6.28c4.4-6,3-13.78,1.18-21.18-.21-.83-.57-2-1-3.16-1.83-5.65-4.89-15.08,1.29-19.24a6.6,6.6,0,0,1,3.65-1.28,4.71,4.71,0,0,1,1.57.27c2.48.89,3.77,3.63,4.61,5.92a7,7,0,0,0,6.45,4.24h.32a7.05,7.05,0,0,0,6.42-4.93c1-3.05.21-5.91-2.87-10.22-3.9-5.44-9.4-8.69-15.1-8.91h-.61c-5.1,0-9.94,2.46-13.63,6.93-5.47,6.62-6.05,15.36-1.84,27.5.29.85.77,2,1.23,3,2.18,5.09,5.47,12.77,1.24,17.87a10.38,10.38,0,0,1-8.28,3.77,15.18,15.18,0,0,1-3.34-.39c-6.7-1.52-13.32-7.17-15.05-12.88a12.31,12.31,0,0,1-.42-3.51,13.6,13.6,0,0,0-.09-1.5l-.05-.33-.32-.06a3.68,3.68,0,0,0-.73-.07Z"/><path class="cls-4" d="M421.57,156l.78,0c6.9.26,13.52,4.14,18.17,10.63,2.67,3.72,5.48,8.76,3.5,14.65a11.13,11.13,0,0,1-10.08,7.9h-.56a10.85,10.85,0,0,1-10.11-6.87s0-.08,0-.12c-.7-1.91-1.38-3-2-3.34l-.93-.45-.22.53a6.13,6.13,0,0,0-.79.45c-3.3,2.22-1.13,8.9.45,13.77.42,1.29.81,2.51,1.06,3.52,2,8.17,3.68,17.53-2,25.25a19.35,19.35,0,0,1-14.71,8c-.57,0-1.16.06-1.74.06a30.33,30.33,0,0,1-21.23-9.17c-4.65-4.87-7.07-10.81-6.64-16.3s2.39-8.15,5.85-8.15c4.5,0,5.18,3.27,5.24,6.43a8.93,8.93,0,0,0,.2,2.15c1.27,4.16,6.76,8.68,12,9.86a11.29,11.29,0,0,0,2.51.3,6.57,6.57,0,0,0,5.27-2.29c2.35-2.84-.12-8.6-1.94-12.84-.51-1.2-1-2.34-1.34-3.32-4.77-13.76-3.91-24.31,2.65-32.24,4.48-5.42,10.38-8.41,16.62-8.41M400.32,219.2a14.72,14.72,0,0,1-3.23-.38c-6.55-1.48-13-7-14.71-12.55a12.34,12.34,0,0,1-.39-3.4,15,15,0,0,0-.09-1.54l-.1-.66-.66-.13a3.74,3.74,0,0,0-.78-.08h-.07c-1.59,0-2,2.12-2.15,4.42-.48,6,3.68,11.05,5.49,13a27.22,27.22,0,0,0,18.78,8.07c.5,0,1,0,1.49-.05A16,16,0,0,0,416,219.37c4.53-6.21,3.11-14.06,1.27-21.57-.21-.85-.58-2-1-3.21-1.78-5.51-4.77-14.73,1.11-18.68a6.11,6.11,0,0,1,3.38-1.2,4.26,4.26,0,0,1,1.41.24c2.29.82,3.51,3.44,4.32,5.63v0l0,0a7.35,7.35,0,0,0,6.87,4.5h.35a7.51,7.51,0,0,0,6.84-5.25c1.08-3.22.26-6.21-2.93-10.66-4-5.56-9.62-8.89-15.47-9.11h-.64c-5.24,0-10.21,2.52-14,7.1-5.59,6.76-6.2,15.65-1.92,28,.29.85.75,1.93,1.24,3.06,2.13,5,5.35,12.5,1.31,17.38a9.92,9.92,0,0,1-7.91,3.59m21.25-64.15c-6.55,0-12.69,3.1-17.37,8.76-6.78,8.21-7.7,19.06-2.81,33.16.36,1,.86,2.19,1.38,3.41,1.61,3.76,4,9.44,2.07,11.83a5.64,5.64,0,0,1-4.53,1.94,10.42,10.42,0,0,1-2.3-.28c-4.85-1.09-10.12-5.39-11.28-9.2a9,9,0,0,1-.16-1.9c0-2-.15-7.29-6.19-7.36h0c-2.75,0-6.18,1.54-6.77,9-.46,5.76,2.06,12,6.9,17A31.36,31.36,0,0,0,402.39,231c.61,0,1.21,0,1.81-.06a20.28,20.28,0,0,0,15.41-8.36c5.88-8.06,4.17-17.67,2.11-26.05-.26-1-.66-2.28-1.08-3.58-1.4-4.33-3.52-10.87-.82-12.69a2.31,2.31,0,0,1,1-.46s.61.32,1.52,2.81c0,.06.05.11.07.17a11.89,11.89,0,0,0,11,7.46l.61,0a12.1,12.1,0,0,0,10.95-8.55c2.1-6.31-.84-11.61-3.64-15.52-4.82-6.74-11.71-10.76-18.91-11l-.82,0Zm-21.25,65.11a10.87,10.87,0,0,0,8.65-3.94c4.42-5.33,1.06-13.18-1.17-18.37-.48-1.12-.93-2.18-1.22-3-4.15-12-3.59-20.57,1.76-27,3.61-4.38,8.3-6.76,13.25-6.76h.6c5.55.21,10.92,3.39,14.73,8.71,3,4.16,3.76,6.91,2.8,9.79a6.57,6.57,0,0,1-6,4.6h-.3a6.43,6.43,0,0,1-6-3.93c-.89-2.41-2.26-5.25-4.91-6.2a5.12,5.12,0,0,0-1.73-.3,7,7,0,0,0-3.92,1.36c-6.48,4.36-3.35,14-1.48,19.78.38,1.19.75,2.32.95,3.14,1.79,7.29,3.18,14.9-1.1,20.78a15.09,15.09,0,0,1-11.43,6.08c-.47,0-.94.05-1.42.05a26.21,26.21,0,0,1-18.09-7.78c-1.72-1.8-5.67-6.59-5.23-12.21.27-3.43.93-3.53,1.2-3.53h0a2.8,2.8,0,0,1,.63.06,12.49,12.49,0,0,1,.07,1.42,13.05,13.05,0,0,0,.45,3.65c1.78,5.85,8.55,11.65,15.4,13.21a15.63,15.63,0,0,0,3.45.4Z"/><path class="cls-1" d="M266.73,175.07l9.7,47.49c-4.15,1.63-7.67,5.43-6.78,13.86h28.66l11.57-61.35Z"/><path class="cls-2" d="M298.64,236.82H269.29l0-.36c-.76-7.19,1.5-12,6.72-14.14l-9.73-47.65h44.11l-.09.47ZM270,236h28l11.43-60.57h-42.2l9.67,47.35-.3.12C271.59,224.88,269.39,229.29,270,236Z"/><g class="cls-3"><path class="cls-2" d="M266,177.23l19.66,48c-4.15,1.62-10.17,3.1-9.28,11.54l9-.32h19L316,175.07Z"/></g><path d="M298.31,239.43H269.65a3,3,0,0,1-3-2.69c-1-9.2,2.88-13.68,6.37-15.82l-9.24-45.25a3,3,0,1,1,5.89-1.2l9.7,47.49a3,3,0,0,1-1.85,3.4c-2.16.85-4.87,2.61-5,8.06h23.3l7.87-41.73a3,3,0,0,1,5.91,1.11L301.26,237A3,3,0,0,1,298.31,239.43Z"/><path class="cls-1" d="M331.49,124.28s4.69,19.63,23.32,23.73,47.49,20.58,35.56,63.19-75.9-6.48-75.9-6.48-40.22,8.87-54.62-23.86S283.86,93.26,331.49,124.28Z"/><g class="cls-3"><ellipse class="cls-2" cx="300.41" cy="133.48" rx="32.2" ry="38.95" transform="translate(131.41 415.44) rotate(-83.02)"/></g><g class="cls-3"><path class="cls-2" d="M346.77,192.53c-3.6,2.48-8,10.85-8,10.85s-4-4.32-46.1-9.39c-24-2.89-32.7-14.94-35.76-24.76a36.81,36.81,0,0,0,2.9,11.63c14.4,32.73,54.62,23.86,54.62,23.86s21.84,16.75,42.37,22.19C332.73,210.46,350.13,190.21,346.77,192.53Z"/></g><circle class="cls-5" cx="305.24" cy="115.99" r="40.56" transform="translate(-17.46 165.91) rotate(-29.6)"/><path d="M368.52,231.58c-21.54,0-48.93-19.33-54.8-23.66a69.47,69.47,0,0,1-21.63.11c-16.57-2.62-28.67-11.6-35-26-8.14-18.51-1-43.75,16.62-58.71,17.07-14.49,38.72-15.07,59.41-1.6a3,3,0,0,1,1.28,1.82c.2.79,4.56,17.87,21,21.5,7.1,1.56,24.67,6.95,34.38,23.13,7.1,11.83,8.25,26.57,3.43,43.8-2.66,9.49-7.95,15.62-15.73,18.21A28.47,28.47,0,0,1,368.52,231.58Zm-54-29.86a3,3,0,0,1,1.83.62c.38.29,38.39,29.17,59.34,22.18,5.85-2,9.72-6.57,11.84-14.13,4.36-15.58,3.42-28.73-2.79-39.09-8.51-14.18-24.18-19-30.53-20.35-17.66-3.9-23.83-20.11-25.25-24.76-18-11.3-36.66-10.68-51.3,1.75-15.41,13.09-22,35.8-15,51.71,5.51,12.52,15.69,20.07,30.25,22.42a63.34,63.34,0,0,0,21-.28A2.88,2.88,0,0,1,314.47,201.72Z"/><path d="M308.14,158.82a42.92,42.92,0,1,1,39.3-35h0A43,43,0,0,1,308.14,158.82Zm-5.48-80.95a38.23,38.23,0,1,0,9.53.56A38.29,38.29,0,0,0,302.66,77.87Zm42.46,45.51h0Z"/><g class="cls-3"><path class="cls-2" d="M313.31,76.06a40.59,40.59,0,0,0-43.52,21.45c7.76,2.72,14.91,6.36,20.7,13,10.89,12.51,13.67,29.57,14.54,46a40.56,40.56,0,0,0,8.28-80.44Z"/></g><circle class="cls-6" cx="293.96" cy="150.67" r="10.06" transform="translate(-35.75 170.8) rotate(-30.63)"/><path class="cls-2" d="M294,161.12a10.45,10.45,0,1,1,2.6-20.57,10.45,10.45,0,0,1-2.6,20.57ZM294,141a9.66,9.66,0,1,0,9.36,12.06h0a9.67,9.67,0,0,0-7-11.76A9.84,9.84,0,0,0,294,141Z"/><g class="cls-3"><path class="cls-2" d="M300.26,143.23a11.56,11.56,0,0,0-1-.69,10,10,0,0,1-15.1,10,10.06,10.06,0,1,0,16.13-9.29Z"/></g><path d="M294,163.73a13.05,13.05,0,1,1,12.66-9.82h0A13.08,13.08,0,0,1,294,163.73Zm0-20.11a7.05,7.05,0,1,0,6.83,8.8h0a7.07,7.07,0,0,0-5.08-8.58A7.11,7.11,0,0,0,294,143.62Z"/><path d="M291.46,161.59a1.43,1.43,0,0,1-.29,0,1.19,1.19,0,0,1-.85-1.44l2.49-9.74a1.18,1.18,0,0,1,2.29.59l-2.5,9.74A1.17,1.17,0,0,1,291.46,161.59Z"/><path class="cls-1" d="M361.15,56.31l-31.77,5.4a46.68,46.68,0,0,0-33.47-5.55h0L266.65,38.82a5.05,5.05,0,0,0-7.45,3c-2.29,8.53-5.19,24.47-.44,39.78l0,0a46.06,46.06,0,0,0-6.93,16.65c-4.47,24.13,17,39.66,46,45s54.62-1.45,59.08-25.57a47.71,47.71,0,0,0-1.46-21.8c8.07-12,10.69-26,11.52-34.11A5.05,5.05,0,0,0,361.15,56.31Z"/><path class="cls-7" d="M361,57.3,329.2,62.69a48.23,48.23,0,0,0-8.72-4,34.2,34.2,0,0,0,36.74,56.78,49.24,49.24,0,0,0-1.91-18.53c8.07-12,10.69-26.06,11.53-34.12A5.05,5.05,0,0,0,361,57.3Z"/><path class="cls-8" d="M271.77,53.36A2.63,2.63,0,0,0,267.9,55c-1.14,4.21-2.55,11.9-.56,19.49.1.39.2.78.32,1.16h0a18.38,18.38,0,0,1,1.71-2.42A32.16,32.16,0,0,1,287,62.37h0Z"/><path class="cls-2" d="M267.41,76.06l-.12-.34c-.13-.39-.23-.79-.33-1.18-2-7.77-.53-15.68.56-19.7a3,3,0,0,1,1.78-2A3,3,0,0,1,272,53l15.72,9.31-.63.42a31.88,31.88,0,0,0-17.37,10.68A18.79,18.79,0,0,0,268,75.79l-.09.16Zm2.88-22.67a2.45,2.45,0,0,0-.7.16,2.25,2.25,0,0,0-1.32,1.5c-1.06,3.94-2.54,11.69-.55,19.29,0,.11,0,.21.08.32.29-.43.71-1,1.28-1.73A32.56,32.56,0,0,1,286,62.22L271.57,53.7A2.25,2.25,0,0,0,270.29,53.39Z"/><g class="cls-9"><path class="cls-2" d="M276.84,56.12a1.75,1.75,0,0,0-2.67.83,26.33,26.33,0,0,0-1.53,13c0,.26.09.53.14.79h0a12.32,12.32,0,0,1,1.29-1.51A21.49,21.49,0,0,1,286.43,63h0Z"/></g><path d="M267.78,77.17a1.59,1.59,0,0,1-1.62-1.1c-.13-.41-.24-.82-.34-1.23-2.11-8-.55-16.17.56-20.3A4.19,4.19,0,0,1,272.57,52l15.2,9a1.57,1.57,0,0,1,.12,2.63,1.64,1.64,0,0,1-.55.26,30.71,30.71,0,0,0-16.73,10.27,19.26,19.26,0,0,0-1.56,2.19,1.54,1.54,0,0,1-1.06.78A.76.76,0,0,1,267.78,77.17Zm2.59-22.6a.88.88,0,0,0-.33.08,1.05,1.05,0,0,0-.63.7,39.76,39.76,0,0,0-1,16.56,33.56,33.56,0,0,1,14.68-10L271,54.72h0A1,1,0,0,0,270.37,54.57Z"/><path class="cls-10" d="M353.25,67.11a2.63,2.63,0,0,1,3,2.87c-.46,4.34-1.92,12-6.51,18.39-.23.32-.47.65-.72,1h0a18.57,18.57,0,0,0-.72-2.88A32.17,32.17,0,0,0,335.83,70h0Z"/><path class="cls-2" d="M349.15,89.86l-.46-.29,0-.19a18,18,0,0,0-.7-2.81,31.93,31.93,0,0,0-12.34-16.22l-.1-.09-.38-.51.63-.12,17.43-2.91A3,3,0,0,1,356.68,70c-.44,4.13-1.88,12-6.58,18.57-.24.33-.48.66-.73,1ZM336.82,70.25A32.64,32.64,0,0,1,348.7,86.33c.28.86.46,1.57.57,2.07l.19-.26c4.6-6.37,6-14.14,6.44-18.2a2.24,2.24,0,0,0-2.58-2.44Z"/><g class="cls-9"><path class="cls-2" d="M348,67.38a1.88,1.88,0,0,1,2.36,1.84,28.25,28.25,0,0,1-3.4,13.54c-.14.25-.29.5-.45.74h0a13.5,13.5,0,0,0-.7-2,23.11,23.11,0,0,0-10-10.86h0Z"/></g><path d="M349.16,90.91a1.58,1.58,0,0,1-1-.25,1.63,1.63,0,0,1-.73-1.12,16.58,16.58,0,0,0-.65-2.6,30.73,30.73,0,0,0-11.9-15.62,1.54,1.54,0,0,1-.36-.36,1.57,1.57,0,0,1,1-2.49L353,65.56h0a4.2,4.2,0,0,1,4.86,4.59c-.46,4.26-1.94,12.4-6.8,19.14-.25.34-.5.69-.77,1A1.58,1.58,0,0,1,349.16,90.91ZM339.63,71a33.47,33.47,0,0,1,10.08,14.65,39.6,39.6,0,0,0,5-15.81,1,1,0,0,0-.33-.89,1.06,1.06,0,0,0-.89-.27Z"/><path d="M320.74,148.61A94.53,94.53,0,0,1,297.19,147c-34.09-6.31-52.56-24.79-48.22-48.24a47.58,47.58,0,0,1,6.62-16.53c-4.46-15.7-1.46-31.78.78-40.09a7.79,7.79,0,0,1,11.51-4.7l28.39,16.8a49.43,49.43,0,0,1,33.45,5.57l30.79-5.23h0a7.81,7.81,0,0,1,9.06,8.51c-.78,7.54-3.28,21.84-11.27,34.3a50,50,0,0,1,1.18,21.83C356.23,136.79,342,147.17,320.74,148.61Zm-59.63-67.1a2.68,2.68,0,0,1-.2,2.61,43,43,0,0,0-6.53,15.65c-1.94,10.47,1.29,19.55,9.58,27,7.8,7,19.63,12.12,34.23,14.83s27.49,2.15,37.27-1.59c10.41-4,16.67-11.31,18.61-21.78a45,45,0,0,0-1.4-20.52,2.74,2.74,0,0,1,.36-2.31c7.88-11.71,10.32-25.62,11.07-32.86a2.31,2.31,0,0,0-.72-1.93,2.26,2.26,0,0,0-1.95-.59l-31.76,5.4a2.81,2.81,0,0,1-1.86-.34,44.57,44.57,0,0,0-14.45-5.44,45.08,45.08,0,0,0-17.08.21,2.75,2.75,0,0,1-2.22-.51l-29-17.16a2.27,2.27,0,0,0-2-.15,2.32,2.32,0,0,0-1.36,1.55C259.56,51.46,256.68,66.84,261.11,81.51Z"/><path d="M307.79,107.43c-.42,2.79-5.77,5.94-8.56,5.52s-6.38-5-6-7.74,4.71-2.78,7.49-2.36S308.22,104.64,307.79,107.43Z"/><path class="cls-4" d="M304.74,106.56c-.08.5-1.14.75-2.38.56s-2.18-.74-2.1-1.24,1.14-.75,2.38-.56S304.81,106.07,304.74,106.56Z"/><path class="cls-2" d="M303.76,107.22a4.83,4.83,0,0,1-1.41,0,4.39,4.39,0,0,1-1.57-.51c-.42-.25-.64-.54-.59-.81s.33-.49.8-.6a4.57,4.57,0,0,1,1.66,0c1.29.2,2.24.78,2.16,1.32h0C304.76,106.9,304.35,107.13,303.76,107.22Zm-2.5-1.85-.23,0c-.41.1-.67.27-.7.48s.16.45.52.66a4.38,4.38,0,0,0,1.52.5c1.18.18,2.23,0,2.3-.5h0c.06-.45-.87-1-2.05-1.16A4.8,4.8,0,0,0,301.26,105.37Z"/><path class="cls-1" d="M313.84,114.42c-.21,2.18-2.95,6-6.78,5.58s-6.76-2.41-6.55-4.58c-.21,2.17-3.48,3.63-7.31,3.27s-5.81-4.58-5.6-6.75"/><path d="M308.77,120.69a2.59,2.59,0,0,0,.3-1.5,4.25,4.25,0,0,0-.48-1.57,4.67,4.67,0,0,0-1.19-1.44,6,6,0,0,0-1.94-1,10.67,10.67,0,0,0-1-.26c-.34-.06-.69-.12-1-.15a10.47,10.47,0,0,0-2.17,0,6.76,6.76,0,0,0-2.25.56,4.07,4.07,0,0,0-1.07.71,2.56,2.56,0,0,0-.69,1.15c-.19.66.35,1.33,1.2,1.51a1.56,1.56,0,0,0,1.87-.88l0-.06h0a2.26,2.26,0,0,0-.1-1.29,3.21,3.21,0,0,0-.64-1,6,6,0,0,0-1.79-1.31,10.63,10.63,0,0,0-2-.74c-.34-.09-.68-.16-1-.22a10.32,10.32,0,0,0-1.08-.13,6.42,6.42,0,0,0-2.26.26,5.67,5.67,0,0,0-1.77.9,4.61,4.61,0,0,0-1.16,1.27,2.52,2.52,0,0,0-.43,1.48,5.47,5.47,0,0,1,2.53-1.75,5,5,0,0,1,2.82-.24c.19,0,.46.12.71.2l.73.25a9.25,9.25,0,0,1,1.3.63,3.39,3.39,0,0,1,.88.72c.21.24.19.37.19.43l3.09.56s.07-.17.37-.32a4,4,0,0,1,1.14-.35,10,10,0,0,1,1.49-.12c.26,0,.52,0,.78,0s.55,0,.75.07a5,5,0,0,1,4,3.69Z"/><line x1="269.56" y1="111.95" x2="259.91" y2="111.46"/><path d="M269.5,113.07l-9.59-1.61,9.7-.64a1.13,1.13,0,1,1,.15,2.26A1.11,1.11,0,0,1,269.5,113.07Z"/><line x1="270.39" y1="117.42" x2="261.48" y2="121.16"/><path d="M270.82,118.46l-9.34,2.7,8.47-4.78a1.14,1.14,0,0,1,1.12,2A1.3,1.3,0,0,1,270.82,118.46Z"/><line x1="273.51" y1="122" x2="267.09" y2="129.22"/><path d="M274.35,122.75l-7.26,6.47,5.57-8a1.14,1.14,0,0,1,1.86,1.31A1,1,0,0,1,274.35,122.75Z"/><line x1="335.4" y1="115.23" x2="345.04" y2="115.72"/><path d="M335.46,114.11l9.58,1.61-9.7.64a1.13,1.13,0,0,1-.15-2.26A1.22,1.22,0,0,1,335.46,114.11Z"/><line x1="334.02" y1="120.6" x2="342.52" y2="125.2"/><path d="M334.56,119.61l8,5.59-9-3.61a1.13,1.13,0,1,1,.84-2.1A1,1,0,0,1,334.56,119.61Z"/><line x1="330.47" y1="124.85" x2="336.13" y2="132.67"/><path d="M331.38,124.19l4.75,8.48-6.58-7.16a1.14,1.14,0,0,1,1.67-1.54A1.12,1.12,0,0,1,331.38,124.19Z"/><path d="M347,192.88a33.52,33.52,0,0,0-5.35,7.91,20,20,0,0,0-2.09,8.54,15.88,15.88,0,0,0,.56,4.13,19.74,19.74,0,0,0,1.48,3.91,44.46,44.46,0,0,0,4.86,7.38l0,0a3,3,0,0,1-4.39,4.1,25.62,25.62,0,0,1-6.42-8.8c-.19-.43-.37-.87-.52-1.32s-.32-.89-.45-1.35a22.75,22.75,0,0,1-.58-2.82,19.37,19.37,0,0,1,0-5.74,21.73,21.73,0,0,1,4.46-10,25.89,25.89,0,0,1,7.88-6.71.43.43,0,0,1,.58.18.42.42,0,0,1-.06.49Z"/><path class="cls-1" d="M290.85,184l7.89,38.61c-4.15,1.63-7.67,5.43-6.79,13.86h28.67L329,192.25Z"/><path d="M291.3,183.85c1.26,3.1,2.3,6.24,3.3,9.39s1.88,6.32,2.7,9.5,1.6,6.38,2.33,9.59,1.4,6.41,2,9.64v0a3,3,0,0,1-1.84,3.34,8.72,8.72,0,0,0-2.62,1.56,6.86,6.86,0,0,0-1.71,2.4,10.52,10.52,0,0,0-.8,3.19,21.11,21.11,0,0,0,0,3.64L292,233.64c2.39,0,4.78,0,7.17,0l7.16-.05,14.34-.17-2.95,2.44q1-5.53,2.06-11.05l1.12-5.51,1.19-5.49c.79-3.66,1.67-7.31,2.73-10.92a91.08,91.08,0,0,1,3.73-10.74.46.46,0,0,1,.62-.24.47.47,0,0,1,.28.41,91.14,91.14,0,0,1-.44,11.36c-.32,3.75-.84,7.46-1.43,11.16l-.9,5.55-1,5.54q-1,5.52-2.11,11l0,.06a2.94,2.94,0,0,1-2.92,2.38l-14.34-.17-7.16-.05c-2.39,0-4.78,0-7.17,0a2.78,2.78,0,0,1-2.77-2.49,27.51,27.51,0,0,1-.1-4.73,17.38,17.38,0,0,1,1.12-4.92,13,13,0,0,1,3-4.46,13.9,13.9,0,0,1,4.46-2.82l-1.84,3.37c-.68-3.21-1.31-6.43-1.91-9.66s-1.13-6.48-1.61-9.73-.9-6.52-1.24-9.81-.59-6.58-.65-9.92a.47.47,0,0,1,.9-.19Z"/><path class="cls-1" d="M389.77,212.74s-6.72,21-14.9,23.68H329.25s-8-31,32.41-13.25"/><path d="M391.8,215.59c-.76,2.26-1.58,4.34-2.5,6.46a67.82,67.82,0,0,1-3.07,6.23,38.08,38.08,0,0,1-4,5.93,20,20,0,0,1-2.73,2.71,11.94,11.94,0,0,1-3.73,2.11,2.58,2.58,0,0,1-.85.15H331.24a2.74,2.74,0,0,1-2.66-2.08c-.13-.52-.2-.88-.28-1.31s-.15-.82-.2-1.24q-.18-1.23-.24-2.49a20.7,20.7,0,0,1,.34-5.17,13.46,13.46,0,0,1,2.17-5.19,11.09,11.09,0,0,1,4.55-3.72,13.69,13.69,0,0,1,5.33-1.17,20.74,20.74,0,0,1,5,.5,30,30,0,0,1,8.74,3.47.94.94,0,0,1-.58,1.74h0a84.28,84.28,0,0,0-8.68-.79,15.06,15.06,0,0,0-7.3,1.32,6.27,6.27,0,0,0-2.22,2,8.82,8.82,0,0,0-1.27,3,15.78,15.78,0,0,0-.38,3.76q0,1,.12,2c0,.33.08.66.13,1s.12.68.17.89l-2.68-2.08h43.61l-.88.14a10,10,0,0,0,4-3.16,33.1,33.1,0,0,0,3.43-5.07,59.7,59.7,0,0,0,2.82-5.73c.85-1.95,1.66-4,2.31-6l0,0a2.75,2.75,0,1,1,5.22,1.75Z"/><g class="cls-3"><path d="M336.48,218.42c-10.66,3.45-6.88,18-6.88,18h45.62c6-2,11.3-14,13.62-20.1a33.56,33.56,0,0,0,1.89-5.12,74.24,74.24,0,0,0,2.66-14.77C374.9,222.44,379.85,227.93,336.48,218.42Z"/></g><g class="cls-12"><path d="M298.74,222.56c-4.15,1.63-7.67,5.43-6.79,13.86h28.67l5.19-27.55C320.67,216.62,312.3,223.1,298.74,222.56Z"/></g><path d="M304.27,225.68a5.35,5.35,0,0,0-1.08,2.48,10.24,10.24,0,0,0-.13,2.65,17.85,17.85,0,0,0,.38,2.61l.33,1.28.4,1.26,0,0a2.09,2.09,0,0,1-4,1.26,2,2,0,0,1-.09-.76l.09-1.51c.05-.5.11-1,.17-1.5a19.92,19.92,0,0,1,.66-3,11.86,11.86,0,0,1,1.21-2.75A5.85,5.85,0,0,1,304.27,225.68Z"/><path d="M311.71,226.53a13.9,13.9,0,0,0-.91,5.07A13,13,0,0,0,311,234a12.78,12.78,0,0,0,.64,2.26,2.23,2.23,0,1,1-4.31.62v0a17.09,17.09,0,0,1,.41-3,16.64,16.64,0,0,1,.91-2.77A15.29,15.29,0,0,1,311.71,226.53Z"/><path d="M278.8,227a4.53,4.53,0,0,0-.93,2.16,8.6,8.6,0,0,0-.12,2.32,14.46,14.46,0,0,0,.34,2.27l.29,1.12.35,1.11,0,.05a1.82,1.82,0,1,1-3.48,1.1,1.91,1.91,0,0,1-.09-.66l.08-1.32c0-.44.1-.88.15-1.32a16.4,16.4,0,0,1,.57-2.59,10.55,10.55,0,0,1,1-2.41A5,5,0,0,1,278.8,227Z"/><path d="M285.88,227.15a13.16,13.16,0,0,0-.85,4.74,12.16,12.16,0,0,0,.22,2.28,11.15,11.15,0,0,0,.6,2.11,2.08,2.08,0,0,1-3.91,1.41,2,2,0,0,1-.12-.82v0a16.13,16.13,0,0,1,.38-2.8,13.93,13.93,0,0,1,.85-2.58A14.08,14.08,0,0,1,285.88,227.15Z"/><g class="cls-9"><path d="M360.73,58.31,329,63.71a47.4,47.4,0,0,0-15.34-5.77c-.43-.07-6.85-.64-7.28-.7,19.32,8.39,38.35,25.18,40.2,44.62,2.55,26.73-7.68,33.59-22.45,44.64,16.8-2.1,29.43-10.49,32.44-26.76A47.66,47.66,0,0,0,355.08,98c8.07-12,10.69-26.06,11.52-34.12A5.06,5.06,0,0,0,360.73,58.31Z"/></g><path d="M298.46,116.86a1.93,1.93,0,0,1-.63,0,2,2,0,0,1-1.48-2.36l1.28-5.6a2,2,0,0,1,3.83.87l-1.28,5.61A2,2,0,0,1,298.46,116.86Z"/><path d="M340.6,225.3a5,5,0,0,0-1,2.34,9.45,9.45,0,0,0-.13,2.49,17,17,0,0,0,.36,2.46l.31,1.21.38,1.19v0a2,2,0,1,1-3.75,1.18,1.93,1.93,0,0,1-.09-.71l.09-1.42c0-.48.1-1,.16-1.42a16.55,16.55,0,0,1,.62-2.79,11,11,0,0,1,1.14-2.6A5.5,5.5,0,0,1,340.6,225.3Z"/><path d="M347.62,226.1a13.38,13.38,0,0,0-.86,4.78,11.58,11.58,0,0,0,.21,2.3,12.41,12.41,0,0,0,.6,2.13,2.09,2.09,0,0,1-1.26,2.68,2.12,2.12,0,0,1-2.69-1.26,2.44,2.44,0,0,1-.12-.84v0a15.45,15.45,0,0,1,.39-2.82,15.13,15.13,0,0,1,3.72-6.94Z"/><circle cx="283.18" cy="92.28" r="8"/><circle class="cls-4" cx="285.51" cy="90.68" r="1.3"/><circle cx="326.37" cy="100.31" r="8"/><circle class="cls-4" cx="323.86" cy="97.59" r="1.3"/><ellipse class="cls-4" cx="326.88" cy="104.78" rx="1.5" ry="1" transform="translate(62.55 323.77) rotate(-57.41)"/><path class="cls-13" d="M366.58,18.35c8.36,0,9.39,1.53,9.4,1.53h0s-.36,2.63-12.77,7.7a226.45,226.45,0,0,1-33.46,10.11c-15.36,3.51-30.3,5.6-39.95,5.6-8.36,0-9.4-1.53-9.41-1.53h0s.36-2.63,12.77-7.7A226.45,226.45,0,0,1,326.62,24c15.36-3.51,30.3-5.6,40-5.6m0-1.63c-9.48,0-24.14,2-40.32,5.65C299,28.6,277.74,37.43,278.8,42.1c.44,1.9,4.5,2.82,11,2.82,9.47,0,24.14-2,40.32-5.65,27.27-6.23,48.51-15.06,47.45-19.73-.43-1.9-4.49-2.82-11-2.82Z"/><path class="cls-13" d="M298.53,14.77v.55a230.5,230.5,0,0,1,34,3c29.18,4.56,48.85,12,48.26,15.77-.26,1.6-4.79,3.31-16.76,3.31a230.5,230.5,0,0,1-34-3c-29.18-4.56-48.85-12-48.26-15.77.25-1.6,4.79-3.31,16.75-3.31v-.55m0,0c-10.25,0-16.89,1.28-17.28,3.78-.74,4.73,21.07,12.07,48.71,16.39A231.39,231.39,0,0,0,364,38c10.26,0,16.9-1.27,17.29-3.78.74-4.73-21.07-12.07-48.71-16.39a231.39,231.39,0,0,0-34.1-3Z"/><polygon class="cls-14" points="281.62 24.44 286.31 21.98 285.41 27.2 289.2 30.89 283.96 31.66 281.62 36.4 279.27 31.66 274.03 30.89 277.82 27.2 276.93 21.98 281.62 24.44"/><polygon class="cls-14" points="365.2 8.41 367.74 6.96 367.34 9.85 369.5 11.82 366.63 12.34 365.43 14.99 364.05 12.43 361.15 12.11 363.17 10 362.58 7.14 365.2 8.41"/><polygon class="cls-14" points="319.39 4.03 323.99 1.4 323.28 6.65 327.2 10.21 321.99 11.15 319.81 15.98 317.3 11.32 312.04 10.74 315.7 6.91 314.63 1.73 319.39 4.03"/><path class="cls-1" d="M668.67,181.45c-1.35-3.59-3.14-6.14-6.73-3.79-5.83,3.82-.53,14.7.71,19.6,2,7.8,3.57,16.43-1.66,23.41-8.75,11.67-27,7.87-36-1.35-3.65-3.72-6.68-9-6.23-14.62.23-2.82.86-6.32,4.13-6.28,4.89.05,2.94,4.27,3.85,7.19,2.48,7.91,17.09,16.06,23.44,8.6,4.1-4.81-1.35-13.68-3-18.3-3.68-10.33-5.06-21.38,2.35-30.1,9.72-11.44,25-9.79,33.75,2.13,2.7,3.66,5,7.83,3.31,12.65A9.61,9.61,0,0,1,668.67,181.45Z"/><path class="cls-2" d="M645.51,228.34a30.17,30.17,0,0,1-20.79-8.73c-4.43-4.52-6.74-10-6.34-15,.25-3.09,1-6.64,4.44-6.64h.06c3.82,0,3.87,2.57,3.92,4.81a10,10,0,0,0,.29,2.66c1.48,4.73,7.51,9.63,13.43,10.94,3.94.87,7.27,0,9.37-2.48,3.12-3.66.32-10-1.72-14.67-.52-1.18-1-2.29-1.34-3.23-4.68-13.1-3.89-23.08,2.41-30.5,4.51-5.31,10.48-8.1,16.76-7.87,6.66.24,13.06,3.9,17.57,10,2.64,3.59,5.1,8,3.36,13a9.92,9.92,0,0,1-9,6.83,9.8,9.8,0,0,1-9.56-5.94v0c-1-2.59-1.92-3.92-3.09-4.32a3.5,3.5,0,0,0-3.09.72c-4.47,2.92-2,10.34-.19,15.76.44,1.31.82,2.45,1.06,3.39,2,7.77,3.6,16.65-1.72,23.76a18.6,18.6,0,0,1-14.06,7.37C646.66,228.32,646.09,228.34,645.51,228.34Zm-22.68-29.53c-2.85,0-3.47,3-3.71,5.92-.54,6.73,4.1,12.25,6.12,14.31a29.62,29.62,0,0,0,21.94,8.46,17.88,17.88,0,0,0,13.52-7.08c5.11-6.82,3.59-15.13,1.58-23.06-.23-.92-.6-2-1-3.34-1.79-5.35-4.48-13.44.49-16.69a4.2,4.2,0,0,1,3.73-.8c1.78.62,2.83,2.87,3.54,4.76a9.06,9.06,0,0,0,8.85,5.49,9.19,9.19,0,0,0,8.37-6.32c1.62-4.72-.74-8.86-3.25-12.28-4.37-5.94-10.57-9.48-17-9.72-6.06-.23-11.81,2.48-16.17,7.62-6.1,7.18-6.84,16.89-2.28,29.7.33.9.81,2,1.33,3.17,2.13,4.84,5,11.48,1.6,15.53-2.29,2.68-5.87,3.65-10.08,2.72-6.16-1.36-12.43-6.5-14-11.46a10.37,10.37,0,0,1-.33-2.9c0-2.32-.08-4-3.18-4Z"/><g class="cls-3"><path class="cls-2" d="M683.27,167.94c-.17-.23-.35-.44-.52-.66a6.83,6.83,0,0,1-4,6.06c-7.22,3.75-13.91-7.94-22.11-1.43a13.12,13.12,0,0,0-4.7,10.06c-.31,19.38,15.08,32.17-2.39,32.9-6.63,6.29-20.41-1.59-22.82-9.26-.91-2.92,1-7.14-3.85-7.19-3.27,0-3.9,3.46-4.13,6.28-.45,5.57,2.58,10.9,6.23,14.62,9,9.22,27.26,13,36,1.35,5.23-7,3.63-15.61,1.66-23.41-1.24-4.9-6.54-15.78-.71-19.6,3.59-2.35,5.38.2,6.73,3.79a9.61,9.61,0,0,0,17.91-.86C688.23,175.77,686,171.6,683.27,167.94Z"/></g><path d="M645.53,230.46a32.13,32.13,0,0,1-22.18-9.32c-4.88-5-7.41-11-7-16.66s2.7-8.58,6.48-8.58c5.77.06,5.87,4.84,5.92,6.88a7.9,7.9,0,0,0,.19,2c1.23,3.95,6.82,8.41,11.94,9.54a11.68,11.68,0,0,0,2.48.29,6.23,6.23,0,0,0,5-2.12c2.23-2.61-.35-8.46-2-12.33-.55-1.24-1-2.38-1.4-3.38-5-13.93-4.05-24.62,2.8-32.69,4.7-5.53,10.91-8.58,17.47-8.58h.83c7.24.27,14.19,4.22,19.06,10.84,2.81,3.81,5.76,9,3.67,15.07A11.9,11.9,0,0,1,678,189.68l-.6,0a11.81,11.81,0,0,1-10.85-7.17l0-.14c-.89-2.35-1.52-2.94-1.82-3.08l-.47-.22-.1.25a4,4,0,0,0-.91.47c-3.09,2-.93,8.5.65,13.24.41,1.23.83,2.5,1.1,3.55,2.09,8.27,3.82,17.75-2.09,25.64a20.53,20.53,0,0,1-15.48,8.16c-.6,0-1.22.06-1.83.06Zm-22.71-29.53c-1,0-1.49,1.19-1.72,4-.47,5.82,3.7,10.75,5.52,12.59a27.77,27.77,0,0,0,18.93,7.93c.51,0,1,0,1.5-.05a16.13,16.13,0,0,0,12.1-6.28c4.53-6,3.08-13.79,1.21-21.19-.21-.84-.58-2-1-3.16-1.88-5.65-5-15.08,1.32-19.23a7,7,0,0,1,3.76-1.29,5,5,0,0,1,1.62.28c2.55.89,3.88,3.63,4.75,5.91a7.14,7.14,0,0,0,6.61,4.24h.33a7.2,7.2,0,0,0,6.59-4.92c1-3.06.22-5.93-3-10.24-4-5.44-9.66-8.69-15.51-8.9l-.63,0c-5.23,0-10.2,2.46-14,6.93-5.62,6.62-6.22,15.37-1.89,27.52.31.85.79,2,1.27,3,2.23,5.08,5.61,12.75,1.27,17.85a10.79,10.79,0,0,1-8.52,3.77,16,16,0,0,1-3.43-.39c-6.89-1.52-13.69-7.17-15.48-12.87a12.36,12.36,0,0,1-.43-3.52,12.37,12.37,0,0,0-.08-1.49l-.06-.34-.33-.06a4.77,4.77,0,0,0-.74-.07Z"/><path class="cls-4" d="M665.24,156h.81c7.1.26,13.91,4.14,18.69,10.64,2.73,3.72,5.62,8.74,3.6,14.62A11.42,11.42,0,0,1,678,189.2h-.58a11.16,11.16,0,0,1-10.4-6.88,1.17,1.17,0,0,1-.05-.11c-.72-1.92-1.41-3-2.06-3.35l-1-.44-.21.53a5.06,5.06,0,0,0-.8.44c-3.4,2.23-1.17,8.92.46,13.8.42,1.29.83,2.51,1.09,3.52,2.06,8.16,3.77,17.51-2,25.23a20,20,0,0,1-15.12,8c-.59.05-1.2.07-1.8.07a31.62,31.62,0,0,1-21.83-9.18c-4.78-4.87-7.26-10.8-6.82-16.28s2.45-8.13,6-8.13c4.64.05,5.33,3.26,5.4,6.41a8.49,8.49,0,0,0,.21,2.16c1.31,4.17,6.94,8.68,12.31,9.87a12.59,12.59,0,0,0,2.58.29,6.74,6.74,0,0,0,5.39-2.28c2.43-2.85-.12-8.63-2-12.87-.52-1.2-1-2.34-1.38-3.33-4.9-13.74-4-24.28,2.72-32.2,4.61-5.43,10.68-8.41,17.1-8.41M643.4,219.18a15.13,15.13,0,0,1-3.33-.38c-6.73-1.48-13.37-7-15.11-12.54a12,12,0,0,1-.41-3.39,15,15,0,0,0-.09-1.54l-.1-.68-.67-.13a4,4,0,0,0-.8-.07h-.07c-1.62,0-2,2.12-2.2,4.42-.49,6,3.79,11.08,5.65,13a28.34,28.34,0,0,0,19.29,8.07c.51,0,1,0,1.52-.06a16.61,16.61,0,0,0,12.46-6.47c4.66-6.22,3.19-14.08,1.3-21.6-.22-.85-.59-2-1-3.21-1.83-5.5-4.9-14.71,1.14-18.65a6.45,6.45,0,0,1,3.49-1.21,4.27,4.27,0,0,1,1.46.25c2.36.82,3.62,3.44,4.45,5.63v0l0,0a7.54,7.54,0,0,0,7,4.5h.36a7.7,7.7,0,0,0,7-5.25c1.11-3.23.26-6.23-3-10.69-4.09-5.56-9.88-8.88-15.88-9.1h-.65c-5.38,0-10.48,2.52-14.37,7.1-5.74,6.76-6.37,15.66-2,28,.3.86.77,1.93,1.27,3.07,2.19,5,5.49,12.47,1.35,17.34a10.34,10.34,0,0,1-8.15,3.59m21.84-64.13c-6.72,0-13,3.1-17.84,8.76-7,8.21-7.92,19.06-2.89,33.16.36,1,.87,2.19,1.41,3.41,1.66,3.76,4.16,9.44,2.13,11.83a5.87,5.87,0,0,1-4.65,1.94,11,11,0,0,1-2.37-.28c-5-1.09-10.4-5.39-11.59-9.2a8.27,8.27,0,0,1-.17-1.9c0-2-.15-7.29-6.36-7.36h0c-2.82,0-6.36,1.54-7,9-.47,5.76,2.12,12,7.09,17A32.68,32.68,0,0,0,645.53,231c.62,0,1.25,0,1.87-.06a21,21,0,0,0,15.83-8.36c6-8.06,4.29-17.67,2.17-26.05-.26-1-.68-2.28-1.11-3.58-1.44-4.33-3.62-10.87-.85-12.69a2.54,2.54,0,0,1,1-.46s.63.32,1.57,2.81a1.22,1.22,0,0,0,.07.17,12.21,12.21,0,0,0,11.29,7.46l.63,0a12.38,12.38,0,0,0,11.25-8.55c2.16-6.31-.86-11.61-3.74-15.52-4.95-6.74-12-10.76-19.44-11l-.84,0ZM643.4,220.16a11.29,11.29,0,0,0,8.89-3.94c4.54-5.33,1.09-13.18-1.2-18.37-.49-1.12-1-2.18-1.25-3-4.27-12-3.69-20.57,1.8-27,3.72-4.38,8.54-6.76,13.63-6.76h.61c5.7.21,11.22,3.39,15.14,8.71,3.06,4.16,3.87,6.91,2.88,9.79a6.74,6.74,0,0,1-6.15,4.6h-.31a6.64,6.64,0,0,1-6.16-3.93c-.91-2.41-2.31-5.25-5-6.2a5.41,5.41,0,0,0-1.78-.3,7.33,7.33,0,0,0-4,1.36c-6.67,4.36-3.45,14-1.53,19.78.4,1.19.77,2.32,1,3.14,1.84,7.29,3.27,14.9-1.13,20.78A15.65,15.65,0,0,1,647,224.89c-.48,0-1,.05-1.45.05a27.31,27.31,0,0,1-18.6-7.78c-1.76-1.8-5.82-6.59-5.37-12.21.28-3.43.95-3.53,1.23-3.53h0a3,3,0,0,1,.65.06c0,.36.06,1,.07,1.42a12.72,12.72,0,0,0,.46,3.65c1.83,5.85,8.79,11.65,15.83,13.21a16.49,16.49,0,0,0,3.54.4Z"/><path class="cls-1" d="M509.07,175.07l9.7,47.49c-4.15,1.63-7.67,5.43-6.78,13.86h28.66l11.58-61.35Z"/><path class="cls-2" d="M541,236.82H511.64l0-.36c-.76-7.19,1.5-12,6.72-14.14l-9.73-47.65H552.7l-.09.47ZM512.35,236h28l11.42-60.57H509.56l9.66,47.35-.3.12C513.94,224.88,511.73,229.29,512.35,236Z"/><g class="cls-3"><path class="cls-2" d="M508.33,177.23l19.66,48c-4.15,1.62-10.17,3.1-9.28,11.54l9-.32h19l11.58-61.35Z"/></g><path d="M540.65,239.43H512a3,3,0,0,1-3-2.69c-1-9.2,2.88-13.68,6.37-15.82l-9.24-45.25a3,3,0,1,1,5.89-1.2l9.7,47.49a3,3,0,0,1-1.85,3.4c-2.16.85-4.87,2.61-5,8.06h23.3L546,191.69a3,3,0,0,1,5.91,1.11L543.6,237A3,3,0,0,1,540.65,239.43Z"/><path class="cls-1" d="M573.83,124.28s4.69,19.63,23.32,23.73,47.5,20.58,35.57,63.19-75.91-6.48-75.91-6.48-40.22,8.87-54.61-23.86S526.2,93.26,573.83,124.28Z"/><g class="cls-3"><ellipse class="cls-2" cx="547.95" cy="133.74" rx="38.95" ry="32.2" transform="translate(-6.68 31.15) rotate(-3.24)"/></g><g class="cls-3"><path class="cls-2" d="M589.11,192.53c-3.6,2.48-8,10.85-8,10.85s-4-4.32-46.1-9.39c-24-2.89-32.7-14.94-35.76-24.76a36.56,36.56,0,0,0,2.91,11.63c14.39,32.73,54.61,23.86,54.61,23.86s21.84,16.75,42.38,22.19C575.07,210.46,592.47,190.21,589.11,192.53Z"/></g><circle class="cls-5" cx="549.6" cy="115.67" r="40.56" transform="translate(79.18 422.5) rotate(-45)"/><path d="M610.86,231.58c-21.54,0-48.93-19.33-54.8-23.66a69.47,69.47,0,0,1-21.63.11c-16.57-2.62-28.67-11.6-35-26-8.14-18.51-1-43.75,16.62-58.71,17.07-14.49,38.72-15.07,59.41-1.6a2.94,2.94,0,0,1,1.28,1.82c.2.79,4.57,17.87,21,21.5,7.1,1.56,24.67,6.95,34.38,23.13,7.1,11.83,8.25,26.57,3.43,43.8-2.66,9.49-8,15.62-15.73,18.21A28.47,28.47,0,0,1,610.86,231.58Zm-54.05-29.86a3,3,0,0,1,1.83.62c.38.29,38.39,29.17,59.34,22.18,5.85-2,9.73-6.57,11.84-14.13,4.37-15.58,3.43-28.73-2.79-39.09-8.51-14.18-24.18-19-30.52-20.35-17.67-3.9-23.84-20.11-25.26-24.76-18-11.3-36.66-10.68-51.3,1.75-15.41,13.09-22,35.8-15,51.71,5.51,12.52,15.69,20.07,30.25,22.42a63.44,63.44,0,0,0,21-.28A2.73,2.73,0,0,1,556.81,201.72Z"/><path d="M560.05,157.31a42.93,42.93,0,1,1,32.47-41.44h0A43,43,0,0,1,560.05,157.31ZM540.3,78.61a38.23,38.23,0,1,0,9.48-1.14A38.26,38.26,0,0,0,540.3,78.61Zm49.86,37.25h0Z"/><g class="cls-3"><path class="cls-2" d="M550.46,74.94a40.56,40.56,0,0,0-39,28.83c8.12,1.3,15.8,3.61,22.67,9.13,12.93,10.38,18.7,26.67,22.47,42.67a40.56,40.56,0,0,0-6.12-80.63Z"/></g><circle class="cls-6" cx="536.3" cy="150.67" r="10.06" transform="translate(-1.94 294.27) rotate(-30.63)"/><path class="cls-2" d="M536.29,161.12a10.45,10.45,0,1,1,2.6-20.57,10.45,10.45,0,0,1-2.6,20.57Zm0-20.11a9.66,9.66,0,1,0,9.36,12.06h0a9.67,9.67,0,0,0-7-11.76A9.84,9.84,0,0,0,536.3,141Z"/><g class="cls-3"><path class="cls-2" d="M542.6,143.23a11.56,11.56,0,0,0-1-.69,10,10,0,0,1-15.1,10,10.06,10.06,0,1,0,16.13-9.29Z"/></g><path d="M536.29,163.73a12.89,12.89,0,0,1-3.23-.41A13.05,13.05,0,1,1,549,153.91h0A13.08,13.08,0,0,1,536.29,163.73Zm0-20.11a7.05,7.05,0,1,0,6.83,8.8h0a7,7,0,0,0-6.83-8.8Z"/><path d="M533.8,161.59l-.29,0a1.19,1.19,0,0,1-.85-1.44l2.49-9.74a1.18,1.18,0,0,1,2.29.59l-2.5,9.74A1.17,1.17,0,0,1,533.8,161.59Z"/><path class="cls-1" d="M594,47,563.73,58a46.74,46.74,0,0,0-33.92.48v0L497.94,46.56a5.07,5.07,0,0,0-6.8,4.32c-.74,8.81-.76,25,6.62,39.24l0,0a45.72,45.72,0,0,0-3.87,17.62c-.12,24.53,23.75,36,53.27,36.15s53.49-11.11,53.61-35.65A47.62,47.62,0,0,0,595.49,87c5.82-13.24,5.9-27.54,5.3-35.63A5.06,5.06,0,0,0,594,47Z"/><path class="cls-7" d="M594,48,563.73,59a49.41,49.41,0,0,0-9.3-2.4,34.21,34.21,0,0,0,46.23,49.37A49.06,49.06,0,0,0,595.49,88c5.82-13.24,5.9-27.54,5.3-35.63A5.06,5.06,0,0,0,594,48Z"/><path class="cls-8" d="M505.55,60A2.62,2.62,0,0,0,502,62.21c-.37,4.35-.39,12.17,2.91,19.29.17.36.34.73.52,1.09h0a19.07,19.07,0,0,1,1.25-2.69A32.23,32.23,0,0,1,522.1,66.14h0Z"/><path class="cls-2" d="M505.28,83.08l-.18-.31c-.18-.37-.36-.74-.53-1.11-3.38-7.29-3.29-15.33-2.94-19.48a3,3,0,0,1,4.06-2.58L522.81,66l-.55.53a32,32,0,0,0-15.2,13.58,19.34,19.34,0,0,0-1.22,2.63l-.06.17ZM504.1,60.26a2.38,2.38,0,0,0-.66.28,2.24,2.24,0,0,0-1,1.71c-.34,4.07-.43,12,2.87,19.08.05.1.1.2.14.3.21-.47.52-1.13,1-1.93a32.57,32.57,0,0,1,14.71-13.53l-15.68-5.83A2.18,2.18,0,0,0,504.1,60.26Z"/><g class="cls-9"><path class="cls-2" d="M511,61.79a1.75,1.75,0,0,0-2.48,1.28,26.24,26.24,0,0,0,.79,13c.09.25.18.5.28.76h0a12.11,12.11,0,0,1,1-1.71,21.48,21.48,0,0,1,11.06-8.25h0Z"/></g><path d="M505.85,84.11a1.6,1.6,0,0,1-1.79-.8c-.2-.38-.38-.77-.56-1.15-3.49-7.54-3.41-15.82-3.05-20.08a4.19,4.19,0,0,1,5.65-3.58l16.56,6.16a1.52,1.52,0,0,1,1,1.12,1.56,1.56,0,0,1-.4,1.44,1.64,1.64,0,0,1-.5.36A30.67,30.67,0,0,0,508.1,80.65,17.2,17.2,0,0,0,507,83.09a1.58,1.58,0,0,1-.91,1Zm-1.46-22.7a1,1,0,0,0-.32.13,1.05,1.05,0,0,0-.48.81,39.5,39.5,0,0,0,1.93,16.47,33.43,33.43,0,0,1,12.67-12.47L505,61.44h0A1,1,0,0,0,504.39,61.41Z"/><path class="cls-10" d="M588.18,59.05a2.62,2.62,0,0,1,3.5,2.29c.32,4.35.24,12.17-3.15,19.24-.17.36-.34.73-.54,1.08h0a19.46,19.46,0,0,0-1.22-2.7A32.18,32.18,0,0,0,571.55,65h0Z"/><path class="cls-2" d="M588.17,82.16l-.49-.2-.08-.18a17,17,0,0,0-1.19-2.64,31.89,31.89,0,0,0-15-13.77l-.11-.08-.46-.44.59-.22,16.64-5.95a3,3,0,0,1,2.66.31,3,3,0,0,1,1.37,2.32c.29,4.15.28,12.19-3.19,19.44-.18.37-.35.74-.55,1.1ZM572.56,65.05a32.6,32.6,0,0,1,14.55,13.72c.42.8.73,1.46.93,1.94,0-.1.09-.2.14-.3,3.39-7.08,3.4-15,3.11-19a2.23,2.23,0,0,0-3-1.94Z"/><g class="cls-9"><path class="cls-2" d="M583,60.26a1.88,1.88,0,0,1,2.65,1.39,28.24,28.24,0,0,1-.94,13.92c-.1.27-.2.54-.31.81h0a12,12,0,0,0-1-1.84,23,23,0,0,0-11.77-8.91h0Z"/></g><path d="M588.38,83.19a1.58,1.58,0,0,1-1-.07,1.62,1.62,0,0,1-.92-1,16.46,16.46,0,0,0-1.11-2.44A30.64,30.64,0,0,0,570.9,66.44a1.55,1.55,0,0,1-.43-.29,1.6,1.6,0,0,1-.46-1.47,1.56,1.56,0,0,1,1-1.16l16.63-6h0a4.19,4.19,0,0,1,5.6,3.65c.31,4.27.29,12.55-3.3,20-.18.38-.37.77-.57,1.15A1.62,1.62,0,0,1,588.38,83.19ZM575.46,65.27A33.5,33.5,0,0,1,588,77.9a39.58,39.58,0,0,0,2.13-16.45,1,1,0,0,0-.47-.81,1,1,0,0,0-.93-.11Z"/><path d="M570.64,145a95.27,95.27,0,0,1-23.46,2.58c-34.67-.16-56.13-15.07-56-38.91a47.7,47.7,0,0,1,3.59-17.45c-7.18-14.66-7.07-31-6.35-39.6A7.81,7.81,0,0,1,498.9,45l30.92,11.51a49.37,49.37,0,0,1,33.9-.45L593.1,45.43h0a7.81,7.81,0,0,1,10.43,6.77c.57,7.56.64,22.07-5,35.75a49.87,49.87,0,0,1,5,21.28C603.47,127.09,591.31,139.83,570.64,145ZM500.05,89.56a2.7,2.7,0,0,1,.27,2.61,42.82,42.82,0,0,0-3.65,16.55c-.05,10.65,4.73,19,14.22,24.87,8.91,5.5,21.46,8.45,36.31,8.52s27.43-2.76,36.4-8.17c9.54-5.77,14.4-14.09,14.45-24.74a45,45,0,0,0-5-20,2.75,2.75,0,0,1,0-2.33c5.68-12.93,5.61-27,5.06-34.31a2.3,2.3,0,0,0-3.07-2l-30.3,10.94a2.79,2.79,0,0,1-1.89,0,43.91,43.91,0,0,0-32,.45,2.76,2.76,0,0,1-2.27-.11L497,50.14a2.29,2.29,0,0,0-3.09,2C493.2,60.26,493.09,75.91,500.05,89.56Z"/><path d="M550.59,106.79c.08,2.82-4.63,6.87-7.44,6.95s-7.16-3.74-7.23-6.56,4.14-3.58,7-3.65S550.52,104,550.59,106.79Z"/><path class="cls-4" d="M547.43,106.48c0,.5-1,.94-2.24,1s-2.27-.35-2.29-.85,1-.94,2.24-1S547.42,106,547.43,106.48Z"/><path class="cls-2" d="M546.59,107.3a4.78,4.78,0,0,1-1.4.22,4.29,4.29,0,0,1-1.63-.23c-.46-.17-.72-.41-.73-.69s.24-.53.69-.73a4.33,4.33,0,0,1,1.62-.31c1.31,0,2.35.37,2.36.92h0C547.51,106.81,547.15,107.1,546.59,107.3Zm-2.8-1.38-.21.08c-.39.17-.61.39-.6.6s.23.41.63.56a4.4,4.4,0,0,0,1.58.22c1.19,0,2.18-.44,2.17-.9h0c0-.45-1-.81-2.22-.78A4.65,4.65,0,0,0,543.79,105.92Z"/><path class="cls-1" d="M556.18,114.42c-.21,2.18-2.95,6-6.78,5.58s-6.76-2.41-6.55-4.58c-.21,2.17-3.48,3.63-7.3,3.27s-5.82-4.58-5.61-6.75"/><path d="M553.71,118.88a2.49,2.49,0,0,0-.13-1.52,4.2,4.2,0,0,0-.88-1.38,5,5,0,0,0-1.54-1.06,5.93,5.93,0,0,0-2.15-.45c-.41,0-.74,0-1.09,0a9.27,9.27,0,0,0-1,.14,10,10,0,0,0-2.09.57,7.22,7.22,0,0,0-2,1.16,4.18,4.18,0,0,0-.83,1,2.55,2.55,0,0,0-.35,1.29c0,.69.7,1.19,1.57,1.13a1.58,1.58,0,0,0,1.56-1.36v-.07h0a2.27,2.27,0,0,0-.45-1.22,3.62,3.62,0,0,0-.9-.81,6.44,6.44,0,0,0-2.09-.76,10.06,10.06,0,0,0-2.11-.16q-.52,0-1,.06c-.34.05-.67.09-1.08.18a6.47,6.47,0,0,0-2.1.87,5.58,5.58,0,0,0-1.45,1.36,4.64,4.64,0,0,0-.77,1.54,2.5,2.5,0,0,0,0,1.53,5.42,5.42,0,0,1,1.95-2.37,4.87,4.87,0,0,1,2.64-1,5.91,5.91,0,0,1,.74,0c.26,0,.52,0,.77,0a8.37,8.37,0,0,1,1.42.25,3.24,3.24,0,0,1,1,.45c.27.17.29.3.3.35l3.13-.3c0-.06,0-.19.26-.42a4.41,4.41,0,0,1,1-.65,9.81,9.81,0,0,1,1.39-.52c.25-.08.5-.13.76-.2s.54-.11.74-.13a4.5,4.5,0,0,1,2.7.47A4.58,4.58,0,0,1,553.71,118.88Z"/><line x1="511.9" y1="111.95" x2="502.25" y2="111.46"/><path d="M511.84,113.07l-9.59-1.61,9.7-.64a1.13,1.13,0,1,1-.11,2.25Z"/><line x1="512.73" y1="117.42" x2="503.82" y2="121.16"/><path d="M513.16,118.46l-9.34,2.7,8.47-4.78a1.15,1.15,0,0,1,1.55.44,1.13,1.13,0,0,1-.43,1.54A1.09,1.09,0,0,1,513.16,118.46Z"/><line x1="515.85" y1="122" x2="509.43" y2="129.22"/><path d="M516.69,122.75l-7.26,6.47,5.58-8a1.13,1.13,0,0,1,1.85,1.31A1,1,0,0,1,516.69,122.75Z"/><line x1="577.74" y1="115.23" x2="587.39" y2="115.72"/><path d="M577.8,114.11l9.59,1.61-9.71.64a1.13,1.13,0,0,1-.15-2.26A1.22,1.22,0,0,1,577.8,114.11Z"/><line x1="576.37" y1="120.6" x2="584.86" y2="125.2"/><path d="M576.9,119.61l8,5.59-9-3.61a1.13,1.13,0,1,1,.84-2.1A1,1,0,0,1,576.9,119.61Z"/><line x1="572.81" y1="124.85" x2="578.47" y2="132.67"/><path d="M573.72,124.19l4.75,8.48-6.58-7.16a1.14,1.14,0,0,1,1.67-1.54A1.12,1.12,0,0,1,573.72,124.19Z"/><path d="M589.36,192.88a33.52,33.52,0,0,0-5.35,7.91,20,20,0,0,0-2.09,8.54,15.88,15.88,0,0,0,.56,4.13,19.74,19.74,0,0,0,1.48,3.91,44.46,44.46,0,0,0,4.86,7.38l0,0a3,3,0,0,1-4.39,4.1,25.47,25.47,0,0,1-6.41-8.8,12.53,12.53,0,0,1-.53-1.32c-.15-.45-.32-.89-.45-1.35a22.75,22.75,0,0,1-.58-2.82,19.37,19.37,0,0,1,0-5.74,21.73,21.73,0,0,1,4.46-10,25.89,25.89,0,0,1,7.88-6.71.43.43,0,0,1,.58.18.44.44,0,0,1-.05.49Z"/><path class="cls-1" d="M533.19,184l7.89,38.61c-4.15,1.63-7.67,5.43-6.78,13.86H563l8.33-44.17Z"/><path d="M533.64,183.85c1.26,3.1,2.3,6.24,3.3,9.39s1.88,6.32,2.7,9.5,1.6,6.38,2.33,9.59,1.4,6.41,2,9.64v0a3,3,0,0,1-1.84,3.34,8.72,8.72,0,0,0-2.62,1.56,6.86,6.86,0,0,0-1.71,2.4,10.52,10.52,0,0,0-.8,3.19,21.13,21.13,0,0,0,0,3.64l-2.77-2.49c2.38,0,4.77,0,7.16,0l7.17-.05,14.33-.17-3,2.44q1-5.53,2.06-11.05l1.12-5.51,1.19-5.49c.79-3.66,1.67-7.31,2.73-10.92a91.08,91.08,0,0,1,3.73-10.74.46.46,0,0,1,.62-.24.47.47,0,0,1,.28.41,91.14,91.14,0,0,1-.44,11.36c-.32,3.75-.84,7.46-1.43,11.16l-.9,5.55-1,5.54q-1,5.52-2.11,11V237a3,3,0,0,1-2.93,2.38l-14.33-.17-7.17-.05c-2.39,0-4.78,0-7.16,0a2.76,2.76,0,0,1-2.77-2.49,26.53,26.53,0,0,1-.11-4.73,17.38,17.38,0,0,1,1.12-4.92,13,13,0,0,1,3-4.46,14,14,0,0,1,4.46-2.82l-1.83,3.37c-.69-3.21-1.32-6.43-1.92-9.66s-1.13-6.48-1.61-9.73-.9-6.52-1.24-9.81-.59-6.58-.65-9.92a.47.47,0,0,1,.9-.19Z"/><path class="cls-1" d="M632.11,212.74s-6.72,21-14.9,23.68H571.59s-8-31,32.41-13.25"/><path d="M634.14,215.59c-.76,2.26-1.58,4.34-2.5,6.46a67.82,67.82,0,0,1-3.07,6.23,38.08,38.08,0,0,1-4,5.93,20,20,0,0,1-2.73,2.71,11.94,11.94,0,0,1-3.73,2.11,2.54,2.54,0,0,1-.85.15H573.58a2.74,2.74,0,0,1-2.66-2.08c-.13-.52-.2-.88-.28-1.31s-.14-.82-.2-1.24q-.18-1.23-.24-2.49a20.7,20.7,0,0,1,.34-5.17,13.46,13.46,0,0,1,2.17-5.19,11.09,11.09,0,0,1,4.55-3.72,13.7,13.7,0,0,1,5.34-1.17,20.7,20.7,0,0,1,5,.5,30,30,0,0,1,8.74,3.47.94.94,0,0,1-.58,1.74h0a84.71,84.71,0,0,0-8.69-.79,15.06,15.06,0,0,0-7.3,1.32,6.36,6.36,0,0,0-2.22,2,8.82,8.82,0,0,0-1.27,3,15.78,15.78,0,0,0-.38,3.76q0,1,.12,2c0,.33.08.66.13,1s.12.68.17.89l-2.68-2.08h43.61l-.87.14a10,10,0,0,0,4-3.16,33.88,33.88,0,0,0,3.44-5.07c1-1.84,2-3.76,2.82-5.73s1.65-4,2.3-6l0,0a2.75,2.75,0,1,1,5.22,1.75Z"/><g class="cls-3"><path d="M578.82,218.42c-10.66,3.45-6.88,18-6.88,18h45.62c6.05-2,11.3-14,13.62-20.1a32.53,32.53,0,0,0,1.89-5.12,74.24,74.24,0,0,0,2.66-14.77C617.24,222.44,622.19,227.93,578.82,218.42Z"/></g><g class="cls-12"><path d="M541.08,222.56c-4.15,1.63-7.67,5.43-6.78,13.86H563l5.19-27.55C563,216.62,554.64,223.1,541.08,222.56Z"/></g><path d="M546.61,225.68a5.23,5.23,0,0,0-1.07,2.48,9.82,9.82,0,0,0-.14,2.65,17.85,17.85,0,0,0,.38,2.61l.33,1.28.4,1.26,0,0a2.09,2.09,0,0,1-4,1.26,2.2,2.2,0,0,1-.09-.76l.09-1.51c.05-.5.11-1,.17-1.5a19.92,19.92,0,0,1,.66-3,11.48,11.48,0,0,1,1.22-2.75A5.82,5.82,0,0,1,546.61,225.68Z"/><path d="M554.06,226.53a13.92,13.92,0,0,0-.92,5.07,13,13,0,0,0,.22,2.44,12.78,12.78,0,0,0,.64,2.26,2.22,2.22,0,0,1-4.18,1.5,2.07,2.07,0,0,1-.13-.88v0a17.09,17.09,0,0,1,.41-3,15.79,15.79,0,0,1,.92-2.77A14.93,14.93,0,0,1,554.06,226.53Z"/><path d="M521.14,227a4.53,4.53,0,0,0-.93,2.16,8.6,8.6,0,0,0-.12,2.32,15.74,15.74,0,0,0,.34,2.27l.29,1.12.35,1.11,0,.05a1.82,1.82,0,0,1-3.48,1.1,1.69,1.69,0,0,1-.08-.66l.07-1.32c0-.44.1-.88.15-1.32a16.4,16.4,0,0,1,.57-2.59,10.16,10.16,0,0,1,1.06-2.41A4.91,4.91,0,0,1,521.14,227Z"/><path d="M528.22,227.15a13.16,13.16,0,0,0-.85,4.74,12.16,12.16,0,0,0,.22,2.28,11.94,11.94,0,0,0,.6,2.11,2.08,2.08,0,0,1-3.91,1.41,2,2,0,0,1-.12-.82v0a16.13,16.13,0,0,1,.38-2.8,14.71,14.71,0,0,1,.85-2.58A14.08,14.08,0,0,1,528.22,227.15Z"/><g class="cls-9"><path d="M594,49.06,563.68,60a47.3,47.3,0,0,0-16.12-3c-.44,0-6.86.59-7.29.6,20.5,4.83,42.21,18,47.48,36.78,7.25,25.86-1.6,34.43-14.18,47.91,16.16-5,27.1-15.54,27.18-32.08a47.66,47.66,0,0,0-5.31-21.19c5.82-13.24,5.9-27.54,5.3-35.62A5.07,5.07,0,0,0,594,49.06Z"/></g><path d="M543.73,117.62a2.1,2.1,0,0,1-.62.16A2,2,0,0,1,541,116l-.52-5.72a2,2,0,1,1,3.92-.36l.52,5.72A2,2,0,0,1,543.73,117.62Z"/><path d="M582.94,225.3a5,5,0,0,0-1,2.34,9.45,9.45,0,0,0-.13,2.49,17,17,0,0,0,.36,2.46l.32,1.21.37,1.19,0,0a2,2,0,1,1-3.76,1.18,1.93,1.93,0,0,1-.09-.71l.09-1.42c0-.48.1-1,.16-1.42a18.76,18.76,0,0,1,.62-2.79,11,11,0,0,1,1.14-2.6A5.5,5.5,0,0,1,582.94,225.3Z"/><path d="M590,226.1a13.38,13.38,0,0,0-.86,4.78,11.58,11.58,0,0,0,.21,2.3,12.41,12.41,0,0,0,.6,2.13,2.09,2.09,0,0,1-3.94,1.42,2,2,0,0,1-.12-.84v0a15.45,15.45,0,0,1,.39-2.82A15.13,15.13,0,0,1,590,226.1Z"/><circle cx="523.68" cy="96.25" r="8"/><circle class="cls-4" cx="520.7" cy="93.26" r="1.3"/><ellipse class="cls-4" cx="525.45" cy="100.8" rx="1" ry="1.5" transform="translate(1.18 207.57) rotate(-22.37)"/><circle cx="567.62" cy="96.49" r="8"/><circle class="cls-4" cx="569.66" cy="93.26" r="1.3"/><ellipse class="cls-4" cx="565.91" cy="100.8" rx="1.5" ry="1" transform="translate(257.31 585.75) rotate(-67.63)"/><path class="cls-13" d="M506.76,13.22h0c9.48,0,22.81,1.52,36.59,4.17a220.09,220.09,0,0,1,33,8.74c12.28,4.53,12.74,7.06,12.75,7.06h0s-1.14,1.89-11.81,1.89c-9.48,0-22.81-1.52-36.59-4.16a220,220,0,0,1-33.05-8.75C495.42,17.65,495,15.12,495,15.12h0s1.14-1.9,11.81-1.9m0-1.59c-7.94,0-13,1-13.37,3.17-.89,4.6,20.18,12.51,47.06,17.68,14.46,2.78,27.65,4.19,36.89,4.19,7.94,0,13-1,13.37-3.17.88-4.6-20.19-12.51-47.06-17.68-14.46-2.77-27.65-4.19-36.89-4.19Z"/><path class="cls-13" d="M580.52,16.4c11.43,0,12.73,2.1,12.85,2.74.71,3.69-18.27,11.61-46.64,17.06-13.84,2.66-27.25,4.18-36.79,4.18-11.44,0-12.73-2.09-12.85-2.74-.71-3.69,18.27-11.6,46.64-17,13.84-2.66,27.25-4.19,36.79-4.19m0-.53c-9.24,0-22.43,1.42-36.89,4.19-26.88,5.17-47.95,13.08-47.06,17.68.41,2.13,5.43,3.17,13.37,3.17,9.24,0,22.43-1.41,36.89-4.19C573.7,31.55,594.77,23.64,593.89,19c-.41-2.12-5.43-3.17-13.37-3.17Z"/><polygon class="cls-14" points="527.98 32.64 532.57 30.23 531.69 35.33 535.4 38.95 530.27 39.69 527.98 44.34 525.69 39.69 520.56 38.95 524.27 35.33 523.39 30.23 527.98 32.64"/><polygon class="cls-14" points="546.16 7.25 548.74 5.9 548.25 8.77 550.33 10.8 547.45 11.22 546.16 13.83 544.88 11.22 542 10.8 544.08 8.77 543.59 5.9 546.16 7.25"/><polygon class="cls-14" points="508.4 1.51 511.27 0 510.72 3.2 513.05 5.47 509.83 5.94 508.4 8.85 506.96 5.94 503.75 5.47 506.07 3.2 505.52 0 508.4 1.51"/><path class="cls-1" d="M915.59,181.45c-1.35-3.59-3.14-6.14-6.73-3.79-5.83,3.82-.53,14.7.71,19.6,2,7.8,3.58,16.43-1.65,23.41-8.75,11.67-27,7.87-36-1.35-3.65-3.72-6.68-9-6.23-14.62.23-2.82.86-6.32,4.13-6.28,4.9.05,2.94,4.27,3.86,7.19,2.48,7.91,17.09,16.06,23.43,8.6,4.11-4.81-1.34-13.68-3-18.3-3.69-10.33-5.06-21.38,2.34-30.1,9.72-11.44,25-9.79,33.75,2.13,2.7,3.66,5,7.83,3.31,12.65A9.61,9.61,0,0,1,915.59,181.45Z"/><path class="cls-2" d="M892.43,228.34a30.15,30.15,0,0,1-20.78-8.73c-4.44-4.52-6.75-10-6.35-15,.25-3.09,1-6.64,4.45-6.64h0c3.82,0,3.87,2.57,3.92,4.81a10,10,0,0,0,.29,2.66c1.48,4.73,7.51,9.63,13.43,10.94,3.95.87,7.28,0,9.38-2.48,3.12-3.66.32-10-1.73-14.67-.52-1.18-1-2.29-1.34-3.23-4.68-13.1-3.89-23.08,2.41-30.5,4.52-5.31,10.48-8.1,16.76-7.87,6.66.24,13.06,3.9,17.57,10,2.64,3.59,5.11,8,3.36,13a9.91,9.91,0,0,1-9,6.83,9.81,9.81,0,0,1-9.57-5.94v0c-1-2.59-1.92-3.92-3.09-4.32a3.5,3.5,0,0,0-3.09.72c-4.46,2.92-2,10.34-.19,15.76.44,1.31.82,2.45,1.06,3.39,2,7.77,3.61,16.65-1.72,23.76a18.57,18.57,0,0,1-14.06,7.37C893.58,228.32,893,228.34,892.43,228.34Zm-22.68-29.53c-2.84,0-3.47,3-3.71,5.92-.54,6.73,4.1,12.25,6.12,14.31a29.63,29.63,0,0,0,21.94,8.46,17.87,17.87,0,0,0,13.52-7.08c5.12-6.82,3.59-15.13,1.59-23.06-.24-.92-.61-2-1-3.34-1.78-5.35-4.48-13.44.5-16.69a4.18,4.18,0,0,1,3.72-.8c1.78.62,2.83,2.87,3.54,4.76a9.06,9.06,0,0,0,8.85,5.49,9.19,9.19,0,0,0,8.37-6.32c1.62-4.72-.73-8.86-3.25-12.28-4.37-5.94-10.57-9.48-17-9.72-6.06-.23-11.81,2.48-16.17,7.62-6.1,7.18-6.84,16.89-2.27,29.7.32.9.8,2,1.32,3.17,2.13,4.84,5.05,11.48,1.6,15.53-2.28,2.68-5.87,3.65-10.08,2.72-6.16-1.36-12.43-6.5-14-11.46a10.76,10.76,0,0,1-.33-2.9c-.05-2.32-.08-4-3.17-4Z"/><g class="cls-3"><path class="cls-2" d="M930.19,167.94c-.16-.23-.34-.44-.51-.66a6.84,6.84,0,0,1-4,6.06c-7.23,3.75-13.91-7.94-22.12-1.43A13.07,13.07,0,0,0,898.87,182c-.32,19.38,15.07,32.17-2.39,32.9-6.63,6.29-20.42-1.59-22.82-9.26-.92-2.92,1-7.14-3.86-7.19-3.27,0-3.9,3.46-4.13,6.28-.45,5.57,2.58,10.9,6.23,14.62,9.05,9.22,27.27,13,36,1.35,5.23-7,3.62-15.61,1.65-23.41-1.24-4.9-6.54-15.78-.71-19.6,3.59-2.35,5.38.2,6.73,3.79a9.61,9.61,0,0,0,17.91-.86C935.16,175.77,932.89,171.6,930.19,167.94Z"/></g><path d="M892.45,230.46a32.13,32.13,0,0,1-22.18-9.32c-4.87-5-7.41-11-6.95-16.66s2.69-8.58,6.47-8.58c5.78.06,5.88,4.84,5.92,6.88a8.31,8.31,0,0,0,.19,2c1.24,3.94,6.82,8.4,12,9.53a11.52,11.52,0,0,0,2.47.29,6.23,6.23,0,0,0,5-2.12c2.23-2.61-.34-8.46-2.05-12.33-.54-1.24-1-2.38-1.4-3.38-5-13.93-4-24.62,2.8-32.69,4.7-5.53,10.91-8.58,17.48-8.58H913c7.25.27,14.2,4.22,19.06,10.84,2.81,3.81,5.76,9,3.67,15.07a11.9,11.9,0,0,1-10.81,8.22l-.6,0a11.81,11.81,0,0,1-10.86-7.17l-.06-.15c-.87-2.33-1.5-2.92-1.8-3.07l-.47-.22-.1.25a3.82,3.82,0,0,0-.92.47c-3.09,2-.84,8.77.65,13.24.43,1.3.84,2.53,1.1,3.55,2.09,8.27,3.82,17.75-2.09,25.64a20.53,20.53,0,0,1-15.48,8.16q-.9.06-1.83.06Zm-22.7-29.53c-1,0-1.5,1.19-1.72,4-.47,5.82,3.69,10.75,5.51,12.59a27.79,27.79,0,0,0,18.94,7.93c.5,0,1,0,1.49-.05a16.13,16.13,0,0,0,12.1-6.28c4.53-6,3.09-13.79,1.22-21.19-.21-.84-.59-2-1-3.16-1.88-5.65-5-15.08,1.32-19.23a7,7,0,0,1,3.76-1.29,5,5,0,0,1,1.62.28c2.56.89,3.88,3.63,4.75,5.91a7.16,7.16,0,0,0,6.62,4.24h.32a7.2,7.2,0,0,0,6.59-4.92c1.05-3.06.22-5.93-2.95-10.24-4-5.44-9.66-8.69-15.51-8.9l-.63,0a18.35,18.35,0,0,0-14,6.93c-5.63,6.62-6.23,15.37-1.89,27.52.29.83.76,1.9,1.26,3,2.24,5.08,5.62,12.75,1.28,17.85a10.81,10.81,0,0,1-8.52,3.77,16,16,0,0,1-3.44-.39c-6.89-1.52-13.69-7.17-15.48-12.87a12.73,12.73,0,0,1-.43-3.52,13.4,13.4,0,0,0-.08-1.49l0-.34-.34-.06a4.76,4.76,0,0,0-.73-.07Z"/><path class="cls-4" d="M912.16,156H913c7.1.26,13.91,4.14,18.69,10.64,2.74,3.72,5.62,8.74,3.6,14.62a11.42,11.42,0,0,1-10.38,7.9h-.57a11.16,11.16,0,0,1-10.41-6.88,1.17,1.17,0,0,1,0-.11c-.72-1.92-1.41-3-2.06-3.35l-.95-.44-.2.53a4.71,4.71,0,0,0-.81.44c-3.4,2.23-1.17,8.92.46,13.8.43,1.29.83,2.51,1.09,3.52,2.06,8.16,3.77,17.51-2,25.23a20,20,0,0,1-15.12,8c-.59.05-1.2.07-1.8.07a31.63,31.63,0,0,1-21.83-9.18c-4.78-4.87-7.26-10.8-6.82-16.28s2.46-8.13,6-8.13c4.64.05,5.34,3.26,5.4,6.41a9,9,0,0,0,.21,2.16c1.31,4.17,7,8.68,12.31,9.87a12.59,12.59,0,0,0,2.58.29,6.77,6.77,0,0,0,5.4-2.28c2.42-2.85-.13-8.63-2-12.88-.52-1.2-1-2.33-1.37-3.32-4.91-13.74-4-24.28,2.71-32.2,4.61-5.43,10.68-8.41,17.1-8.41m-21.83,63.15a15.15,15.15,0,0,1-3.34-.38c-6.73-1.48-13.37-7-15.11-12.54a12,12,0,0,1-.41-3.39,12.63,12.63,0,0,0-.09-1.54l-.1-.68-.67-.13a3.91,3.91,0,0,0-.8-.07h-.06c-1.63,0-2,2.12-2.21,4.42-.48,6,3.79,11.08,5.65,13a28.34,28.34,0,0,0,19.29,8.07c.51,0,1,0,1.53-.06a16.59,16.59,0,0,0,12.45-6.47c4.66-6.22,3.2-14.08,1.3-21.6-.22-.85-.59-2-1-3.21-1.84-5.5-4.9-14.71,1.13-18.65a6.47,6.47,0,0,1,3.49-1.21,4.27,4.27,0,0,1,1.46.25c2.37.82,3.62,3.44,4.45,5.63l0,0v0a7.55,7.55,0,0,0,7,4.5h.35a7.7,7.7,0,0,0,7-5.25c1.11-3.23.27-6.23-3-10.69-4.1-5.56-9.89-8.88-15.89-9.1h-.65a18.86,18.86,0,0,0-14.37,7.1c-5.74,6.76-6.37,15.66-2,28,.3.86.77,1.93,1.28,3.07,2.18,5,5.49,12.47,1.34,17.34a10.33,10.33,0,0,1-8.14,3.59m21.83-64.13c-6.72,0-13,3.1-17.84,8.76-7,8.21-7.92,19.06-2.89,33.16.37,1,.88,2.19,1.41,3.41,1.66,3.76,4.16,9.44,2.13,11.83a5.86,5.86,0,0,1-4.65,1.94,11.07,11.07,0,0,1-2.37-.28c-5-1.09-10.39-5.39-11.59-9.2a8.35,8.35,0,0,1-.16-1.9c-.05-2-.16-7.29-6.37-7.36h0c-2.83,0-6.36,1.54-7,9-.46,5.76,2.12,12,7.09,17A32.68,32.68,0,0,0,892.45,231c.63,0,1.25,0,1.87-.06a21,21,0,0,0,15.83-8.36c6-8.06,4.29-17.67,2.17-26.05-.26-1-.67-2.28-1.11-3.58-1.44-4.33-3.62-10.87-.84-12.69a2.42,2.42,0,0,1,1-.46s.62.32,1.56,2.81a1.22,1.22,0,0,0,.07.17,12.22,12.22,0,0,0,11.3,7.46l.62,0a12.38,12.38,0,0,0,11.25-8.55c2.17-6.31-.86-11.61-3.73-15.52-5-6.74-12.05-10.76-19.44-11l-.85,0Zm-21.83,65.11a11.3,11.3,0,0,0,8.89-3.94c4.54-5.33,1.08-13.18-1.2-18.37-.5-1.12-1-2.18-1.25-3-4.27-12-3.7-20.57,1.8-27,3.71-4.38,8.53-6.76,13.62-6.76h.62c5.7.21,11.21,3.39,15.13,8.71,3.06,4.16,3.87,6.91,2.88,9.79a6.73,6.73,0,0,1-6.15,4.6h-.3a6.64,6.64,0,0,1-6.17-3.93c-.91-2.41-2.31-5.25-5-6.2a5.41,5.41,0,0,0-1.78-.3,7.36,7.36,0,0,0-4,1.36c-6.66,4.36-3.45,14-1.53,19.78.4,1.19.78,2.32,1,3.14,1.84,7.29,3.27,14.9-1.13,20.78a15.63,15.63,0,0,1-11.74,6.08c-.48,0-1,.05-1.46.05a27.28,27.28,0,0,1-18.59-7.78c-1.77-1.8-5.83-6.59-5.38-12.21.28-3.43,1-3.53,1.24-3.53h0a2.94,2.94,0,0,1,.65.06c.05.36.07,1,.08,1.42a12.69,12.69,0,0,0,.45,3.65c1.83,5.85,8.79,11.65,15.83,13.21a16.51,16.51,0,0,0,3.55.4Z"/><path class="cls-1" d="M756,175.07l9.7,47.49c-4.16,1.63-7.68,5.43-6.79,13.86h28.66l11.58-61.35Z"/><path class="cls-2" d="M787.9,236.82H758.56l0-.36c-.76-7.19,1.51-12,6.72-14.14l-9.72-47.65h44.1l-.09.47ZM759.27,236h28l11.42-60.57H756.48l9.67,47.35-.31.12C760.86,224.88,758.65,229.29,759.27,236Z"/><g class="cls-3"><path class="cls-2" d="M755.26,177.23l19.65,48c-4.15,1.62-10.16,3.1-9.27,11.54l9-.32h19.05l11.57-61.35Z"/></g><path d="M787.57,239.43H758.91a3,3,0,0,1-3-2.69c-1-9.2,2.88-13.68,6.37-15.82l-9.24-45.25a3,3,0,1,1,5.89-1.2l9.7,47.49a3,3,0,0,1-1.85,3.4c-2.16.85-4.87,2.61-5,8.06h23.3L793,191.69a3,3,0,0,1,5.91,1.11L790.53,237A3,3,0,0,1,787.57,239.43Z"/><path class="cls-1" d="M820.76,124.28s4.68,19.63,23.32,23.73,47.49,20.58,35.56,63.19-75.91-6.48-75.91-6.48-40.22,8.87-54.61-23.86S773.12,93.26,820.76,124.28Z"/><g class="cls-3"><ellipse class="cls-2" cx="796.44" cy="133.58" rx="38.95" ry="32.2" transform="translate(-9.93 89.59) rotate(-6.4)"/></g><g class="cls-3"><path class="cls-2" d="M836,192.53c-3.6,2.48-7.95,10.85-7.95,10.85s-4-4.32-46.11-9.39c-24-2.89-32.69-14.94-35.75-24.76a36.54,36.54,0,0,0,2.9,11.63c14.39,32.73,54.61,23.86,54.61,23.86s21.84,16.75,42.38,22.19C822,210.46,839.39,190.21,836,192.53Z"/></g><circle class="cls-5" cx="797.09" cy="115.45" r="40.56" transform="translate(151.83 597.44) rotate(-45)"/><path d="M857.79,231.58c-21.54,0-48.93-19.33-54.8-23.66a69.54,69.54,0,0,1-21.64.11c-16.57-2.62-28.67-11.6-35-26-8.15-18.51-1-43.75,16.62-58.71,17.06-14.49,38.71-15.07,59.41-1.6a3,3,0,0,1,1.28,1.82c.19.79,4.56,17.87,21,21.5,7.1,1.56,24.68,6.95,34.39,23.13,7.09,11.83,8.25,26.57,3.42,43.8-2.66,9.49-7.95,15.62-15.73,18.21A28.41,28.41,0,0,1,857.79,231.58Zm-54.06-29.86a3,3,0,0,1,1.83.62c.38.29,38.39,29.17,59.35,22.18,5.85-2,9.72-6.57,11.84-14.13,4.36-15.58,3.42-28.73-2.8-39.09-8.5-14.18-24.18-19-30.52-20.35-17.67-3.9-23.84-20.11-25.26-24.76-18-11.3-36.66-10.68-51.29,1.75-15.42,13.09-22,35.8-15,51.71,5.5,12.52,15.68,20.07,30.24,22.42a63.44,63.44,0,0,0,21-.28A2.79,2.79,0,0,1,803.73,201.72Z"/><path d="M809.82,156.45A42.92,42.92,0,1,1,840,113.29h0A43,43,0,0,1,809.82,156.45ZM785.76,79a38.24,38.24,0,1,0,9.41-1.66A38.28,38.28,0,0,0,785.76,79Zm51.84,34.45h0Z"/><g class="cls-3"><path class="cls-2" d="M795.7,74.74a40.57,40.57,0,0,0-37.37,30.93c8.18.85,16,2.74,23.14,7.87,13.49,9.65,20.14,25.6,24.79,41.37A40.56,40.56,0,0,0,795.7,74.74Z"/></g><circle class="cls-6" cx="783.22" cy="150.67" r="10.06" transform="translate(32.52 420.08) rotate(-30.63)"/><path class="cls-2" d="M783.22,161.12a10.45,10.45,0,1,1,10.12-7.85A10.44,10.44,0,0,1,783.22,161.12Zm0-20.11a9.66,9.66,0,1,0,9.36,12.06h0a9.68,9.68,0,0,0-7-11.76A9.92,9.92,0,0,0,783.22,141Z"/><g class="cls-3"><path class="cls-2" d="M789.53,143.23a11.71,11.71,0,0,0-1-.69,10,10,0,0,1-15.1,10,10.06,10.06,0,1,0,16.14-9.29Z"/></g><path d="M783.22,163.73a12.91,12.91,0,0,1-3.24-.41,13.06,13.06,0,1,1,15.89-9.41h0A13.07,13.07,0,0,1,783.22,163.73Zm0-20.11a7.05,7.05,0,1,0,6.83,8.8h0a7,7,0,0,0-6.83-8.8Z"/><path d="M780.72,161.59l-.29,0a1.19,1.19,0,0,1-.85-1.44l2.5-9.74a1.18,1.18,0,1,1,2.28.59l-2.49,9.74A1.19,1.19,0,0,1,780.72,161.59Z"/><path class="cls-1" d="M837.67,44.45,808,57.05a46.69,46.69,0,0,0-33.84,2.35v0L741.7,49.3A5.06,5.06,0,0,0,735.15,54c-.26,8.83.62,25,8.77,38.81l0,0a46.06,46.06,0,0,0-2.9,17.8c1.24,24.51,25.71,34.65,55.19,33.16s52.8-14,51.56-38.55a47.61,47.61,0,0,0-6.46-20.86c5.08-13.54,4.37-27.82,3.32-35.86A5.07,5.07,0,0,0,837.67,44.45Z"/><path class="cls-7" d="M837.73,45.45l-29.66,12.6a47.94,47.94,0,0,0-9.42-1.88,34.21,34.21,0,0,0,48.89,46.74,49.44,49.44,0,0,0-6.15-17.59c5.08-13.54,4.37-27.83,3.32-35.86A5,5,0,0,0,837.73,45.45Z"/><path class="cls-8" d="M750,62.27a2.62,2.62,0,0,0-3.4,2.43c-.13,4.36.28,12.17,4,19.1.19.35.38.7.59,1h0a17.34,17.34,0,0,1,1.1-2.75,32.15,32.15,0,0,1,14.6-14.59h0Z"/><path class="cls-2" d="M751.05,85.35l-.2-.3c-.21-.35-.4-.71-.59-1.07-3.78-7.09-4.14-15.13-4-19.29a3,3,0,0,1,3.91-2.8l17.45,5.42-.52.55a31.93,31.93,0,0,0-14.42,14.41A18.93,18.93,0,0,0,751.58,85l0,.18ZM748.6,62.64A2.17,2.17,0,0,0,748,63a2.24,2.24,0,0,0-.94,1.76c-.12,4.08.23,12,3.92,18.9a2.69,2.69,0,0,0,.16.29c.18-.48.45-1.16.84-2A32.53,32.53,0,0,1,765.9,67.6l-16-5A2.2,2.2,0,0,0,748.6,62.64Z"/><g class="cls-9"><path class="cls-2" d="M755.61,63.78a1.75,1.75,0,0,0-2.41,1.42,26.47,26.47,0,0,0,1.51,13c.1.25.21.5.33.74h0a12.44,12.44,0,0,1,.89-1.77,21.59,21.59,0,0,1,10.6-8.85h0Z"/></g><path d="M751.67,86.35a1.6,1.6,0,0,1-1.84-.7c-.21-.37-.41-.74-.61-1.11-3.91-7.34-4.28-15.61-4.16-19.88a4.21,4.21,0,0,1,5.44-3.9L767.38,66a1.56,1.56,0,0,1,.72,2.53,1.61,1.61,0,0,1-.48.38,30.72,30.72,0,0,0-13.9,13.87,16.77,16.77,0,0,0-1,2.49,1.59,1.59,0,0,1-.86,1ZM749,63.76a1,1,0,0,0-.31.15,1.07,1.07,0,0,0-.44.84,39.47,39.47,0,0,0,2.84,16.34,33.51,33.51,0,0,1,12-13.15l-13.44-4.17h0A1,1,0,0,0,749,63.76Z"/><path class="cls-10" d="M832.49,56.79a2.63,2.63,0,0,1,3.63,2.09c.55,4.33.9,12.14-2.09,19.39q-.22.56-.48,1.11h0a18.2,18.2,0,0,0-1.37-2.63,32.17,32.17,0,0,0-15.95-13.08h0Z"/><path class="cls-2" d="M833.76,79.87l-.51-.18-.08-.18A17.56,17.56,0,0,0,831.84,77,31.91,31.91,0,0,0,816.07,64L816,64l-.49-.42.59-.25,16.28-6.86a3,3,0,0,1,2.67.16,3,3,0,0,1,1.5,2.24c.52,4.13,1,12.16-2.11,19.59-.16.38-.32.75-.49,1.13ZM817.23,63.65a32.54,32.54,0,0,1,15.28,12.89,21.31,21.31,0,0,1,1,1.89c0-.11.09-.21.13-.31,3-7.26,2.57-15.14,2.06-19.19a2.24,2.24,0,0,0-1.11-1.66,2.21,2.21,0,0,0-2-.12Z"/><g class="cls-9"><path class="cls-2" d="M827.4,58.28a1.88,1.88,0,0,1,2.72,1.24,28.22,28.22,0,0,1-.17,14c-.09.27-.17.55-.27.82h0a13.28,13.28,0,0,0-1.15-1.78,23.13,23.13,0,0,0-12.25-8.25h0Z"/></g><path d="M834,80.88a1.57,1.57,0,0,1-1,0,1.62,1.62,0,0,1-1-.93,17.73,17.73,0,0,0-1.24-2.38,30.68,30.68,0,0,0-15.19-12.44,1.65,1.65,0,0,1-.44-.26,1.6,1.6,0,0,1-.54-1.44,1.56,1.56,0,0,1,.94-1.22l16.28-6.86h0a4.21,4.21,0,0,1,5.8,3.34c.54,4.24,1,12.51-2.19,20.19-.17.39-.33.78-.51,1.17A1.56,1.56,0,0,1,834,80.88ZM820.14,63.7a33.53,33.53,0,0,1,13.19,11.92,39.71,39.71,0,0,0,1.23-16.54,1.1,1.1,0,0,0-.53-.79,1,1,0,0,0-.93,0Z"/><path d="M819.72,143.6a94.73,94.73,0,0,1-23.29,3.88c-34.61,1.75-56.87-12-58.07-35.77A47.48,47.48,0,0,1,741,94.1c-8-14.25-8.78-30.59-8.52-39.19a7.8,7.8,0,0,1,10.11-7.24l31.51,9.78a49.35,49.35,0,0,1,33.83-2.32l28.74-12.21h0a7.81,7.81,0,0,1,10.79,6.18c1,7.52,1.86,22-3,36a50.06,50.06,0,0,1,6.2,21C851.51,123.89,840.07,137.28,819.72,143.6ZM746.18,92.11a2.7,2.7,0,0,1,.41,2.59,43,43,0,0,0-2.73,16.73c.54,10.64,5.77,18.73,15.57,24,9.2,5,21.9,7.25,36.73,6.5s27.23-4.26,35.88-10.17c9.21-6.28,13.61-14.86,13.07-25.49A44.85,44.85,0,0,0,839,86.68a2.76,2.76,0,0,1-.18-2.33C843.77,71.13,842.93,57,842,49.82A2.29,2.29,0,0,0,838.8,48l-29.65,12.6a2.82,2.82,0,0,1-1.88.1,43.91,43.91,0,0,0-31.89,2.21,2.73,2.73,0,0,1-2.27,0l-32.17-10a2.25,2.25,0,0,0-2,.32,2.28,2.28,0,0,0-1,1.82C737.72,63.24,738.48,78.87,746.18,92.11Z"/><path d="M797.59,106.53c.23,2.81-4.24,7.12-7.05,7.35s-7.35-3.34-7.58-6.15,3.94-3.8,6.75-4S797.36,103.72,797.59,106.53Z"/><path class="cls-4" d="M794.42,106.39c0,.51-.93,1-2.18,1.1s-2.29-.22-2.33-.73.93-1,2.18-1.09S794.38,105.89,794.42,106.39Z"/><path class="cls-2" d="M793.62,107.26a4.7,4.7,0,0,1-1.38.3,4.47,4.47,0,0,1-1.64-.14c-.47-.14-.74-.38-.77-.65s.21-.55.65-.77a4.52,4.52,0,0,1,1.6-.4c1.31-.11,2.37.24,2.41.79h0C794.52,106.72,794.18,107,793.62,107.26ZM790.76,106l-.21.09c-.38.19-.59.42-.57.63s.26.4.66.52a4.41,4.41,0,0,0,1.59.14c1.19-.1,2.16-.57,2.12-1h0c0-.45-1.07-.76-2.26-.66A4.65,4.65,0,0,0,790.76,106Z"/><path class="cls-1" d="M803.59,113.85c-.08,2.17-2.61,6.09-6.46,5.94s-6.88-2-6.79-4.22c-.09,2.18-3.27,3.82-7.11,3.67s-6.06-4.25-6-6.43"/><path d="M801.37,118.43a2.47,2.47,0,0,0-.21-1.51,4.17,4.17,0,0,0-1-1.33,4.8,4.8,0,0,0-1.59-1,5.71,5.71,0,0,0-2.18-.33c-.41,0-.73,0-1.08.09s-.69.12-1,.2a10.53,10.53,0,0,0-2.05.69,7.33,7.33,0,0,0-1.95,1.27,3.75,3.75,0,0,0-.77,1,2.49,2.49,0,0,0-.28,1.31,1.32,1.32,0,0,0,1.63,1,1.57,1.57,0,0,0,1.48-1.45v-.06h0a2.24,2.24,0,0,0-.51-1.19,3.18,3.18,0,0,0-.94-.75,6.31,6.31,0,0,0-2.13-.65,10,10,0,0,0-2.12,0c-.35,0-.7.07-1,.12s-.67.12-1.07.24a6.28,6.28,0,0,0-2,1,5.75,5.75,0,0,0-1.37,1.43,4.62,4.62,0,0,0-.68,1.58,2.51,2.51,0,0,0,.08,1.54,5.45,5.45,0,0,1,1.81-2.48,4.89,4.89,0,0,1,2.59-1.15,7.19,7.19,0,0,1,.74,0c.26,0,.52,0,.77,0a9,9,0,0,1,1.43.17,3.44,3.44,0,0,1,1.07.39c.28.16.31.29.32.34l3.1-.48a.65.65,0,0,1,.25-.42,4,4,0,0,1,1-.71,9.58,9.58,0,0,1,1.37-.6c.24-.09.49-.16.75-.24a7.23,7.23,0,0,1,.72-.17,4.51,4.51,0,0,1,2.73.32A4.6,4.6,0,0,1,801.37,118.43Z"/><line x1="759.24" y1="113.81" x2="749.58" y2="113.86"/><path d="M759.25,114.94l-9.67-1.08,9.66-1.17a1.13,1.13,0,0,1,1.26,1,1.15,1.15,0,0,1-1,1.27A1.13,1.13,0,0,1,759.25,114.94Z"/><line x1="760.38" y1="119.24" x2="751.69" y2="123.46"/><path d="M760.87,120.25l-9.18,3.21,8.19-5.24a1.14,1.14,0,0,1,1.57.35,1.12,1.12,0,0,1-.35,1.56A1,1,0,0,1,760.87,120.25Z"/><line x1="763.74" y1="123.64" x2="757.73" y2="131.2"/><path d="M764.62,124.34l-6.89,6.86,5.13-8.26a1.13,1.13,0,1,1,1.93,1.19A1.2,1.2,0,0,1,764.62,124.34Z"/><line x1="825.17" y1="113.46" x2="834.82" y2="113.41"/><path d="M825.16,112.34l9.66,1.07-9.65,1.18a1.13,1.13,0,1,1,0-2.25Z"/><line x1="824.09" y1="118.9" x2="832.82" y2="123.03"/><path d="M824.57,117.88l8.25,5.15-9.21-3.11a1.13,1.13,0,0,1,.72-2.15A1.33,1.33,0,0,1,824.57,117.88Z"/><line x1="820.77" y1="123.34" x2="826.86" y2="130.83"/><path d="M821.65,122.63l5.21,8.2-7-6.78a1.14,1.14,0,0,1,0-1.61,1.13,1.13,0,0,1,1.6,0A1.2,1.2,0,0,1,821.65,122.63Z"/><path d="M836.28,192.88a33.52,33.52,0,0,0-5.35,7.91,20,20,0,0,0-2.09,8.54,15.88,15.88,0,0,0,.56,4.13,19.17,19.17,0,0,0,1.49,3.91,45,45,0,0,0,4.85,7.38l0,0a3,3,0,0,1-4.39,4.1,25.47,25.47,0,0,1-6.41-8.8,10.64,10.64,0,0,1-.52-1.32c-.16-.45-.33-.89-.46-1.35a27.11,27.11,0,0,1-.58-2.82,19.72,19.72,0,0,1,.05-5.74,21.72,21.72,0,0,1,4.45-10,25.89,25.89,0,0,1,7.88-6.71.44.44,0,0,1,.59.18.42.42,0,0,1-.06.49Z"/><path class="cls-1" d="M780.12,184,788,222.56c-4.15,1.63-7.67,5.43-6.78,13.86h28.66l8.33-44.17Z"/><path d="M780.56,183.85c1.26,3.1,2.3,6.24,3.3,9.39s1.88,6.32,2.7,9.5,1.6,6.38,2.33,9.59,1.41,6.41,2,9.64v0a3,3,0,0,1-1.84,3.34,8.72,8.72,0,0,0-2.62,1.56,7,7,0,0,0-1.71,2.4,10.52,10.52,0,0,0-.8,3.19,21.13,21.13,0,0,0,0,3.64l-2.77-2.49c2.39,0,4.78,0,7.16,0l7.17-.05,14.33-.17-2.94,2.44q1-5.53,2.06-11.05l1.11-5.51,1.19-5.49c.79-3.66,1.67-7.31,2.73-10.92a92.93,92.93,0,0,1,3.73-10.74.46.46,0,0,1,.62-.24.45.45,0,0,1,.28.41,91.15,91.15,0,0,1-.43,11.36c-.33,3.75-.84,7.46-1.44,11.16l-.9,5.55-1,5.54q-1,5.52-2.11,11V237a3,3,0,0,1-2.93,2.38l-14.33-.17-7.17-.05c-2.38,0-4.77,0-7.16,0a2.77,2.77,0,0,1-2.77-2.49,26.54,26.54,0,0,1-.1-4.73,17,17,0,0,1,1.12-4.92,12.81,12.81,0,0,1,3-4.46,14.12,14.12,0,0,1,4.46-2.82l-1.83,3.37c-.69-3.21-1.32-6.43-1.91-9.66s-1.14-6.48-1.62-9.73-.89-6.52-1.24-9.81-.59-6.58-.64-9.92a.47.47,0,0,1,.45-.48A.47.47,0,0,1,780.56,183.85Z"/><path class="cls-1" d="M879,212.74s-6.72,21-14.9,23.68H818.51s-8-31,32.41-13.25"/><path d="M881.06,215.59c-.76,2.26-1.58,4.34-2.5,6.46a65.35,65.35,0,0,1-3.07,6.23,38.08,38.08,0,0,1-4,5.93,19.44,19.44,0,0,1-2.73,2.71A11.94,11.94,0,0,1,865,239a2.54,2.54,0,0,1-.85.15H820.5a2.75,2.75,0,0,1-2.66-2.08c-.12-.52-.19-.88-.28-1.31s-.14-.82-.2-1.24q-.17-1.23-.24-2.49a20.7,20.7,0,0,1,.34-5.17,13.46,13.46,0,0,1,2.17-5.19,11.12,11.12,0,0,1,4.56-3.72,13.66,13.66,0,0,1,5.33-1.17,20.65,20.65,0,0,1,5,.5,29.86,29.86,0,0,1,8.74,3.47.94.94,0,0,1,.34,1.28,1,1,0,0,1-.92.46h0a84.78,84.78,0,0,0-8.68-.79,15.08,15.08,0,0,0-7.31,1.32,6.45,6.45,0,0,0-2.22,2,8.82,8.82,0,0,0-1.27,3,16.31,16.31,0,0,0-.38,3.76q0,1,.12,2c0,.33.08.66.14,1s.11.68.16.89l-2.68-2.08h43.61l-.87.14a10,10,0,0,0,4-3.16,33.83,33.83,0,0,0,3.43-5.07c1-1.84,2-3.76,2.82-5.73s1.65-4,2.31-6v0a2.75,2.75,0,1,1,5.22,1.75Z"/><g class="cls-3"><path d="M825.74,218.42c-10.65,3.45-6.88,18-6.88,18h45.62c6-2,11.3-14,13.63-20.1A33.57,33.57,0,0,0,880,211.2a74.24,74.24,0,0,0,2.66-14.77C864.17,222.44,869.11,227.93,825.74,218.42Z"/></g><g class="cls-12"><path d="M788,222.56c-4.15,1.63-7.67,5.43-6.78,13.86h28.66l5.2-27.55C809.93,216.62,801.57,223.1,788,222.56Z"/></g><path d="M793.53,225.68a5.33,5.33,0,0,0-1.07,2.48,10.24,10.24,0,0,0-.14,2.65,17.87,17.87,0,0,0,.39,2.61l.33,1.28.39,1.26,0,0a2.09,2.09,0,0,1-4,1.26,2.47,2.47,0,0,1-.09-.76l.09-1.51c0-.5.12-1,.17-1.5a19.92,19.92,0,0,1,.66-3,11.48,11.48,0,0,1,1.22-2.75A5.82,5.82,0,0,1,793.53,225.68Z"/><path d="M801,226.53a14.13,14.13,0,0,0-.92,5.07,12.24,12.24,0,0,0,.23,2.44,13.68,13.68,0,0,0,.63,2.26,2.22,2.22,0,1,1-4.18,1.5,2.07,2.07,0,0,1-.13-.88v0a17.1,17.1,0,0,1,.42-3,15.87,15.87,0,0,1,4-7.37Z"/><path d="M768.06,227a4.63,4.63,0,0,0-.93,2.16,9,9,0,0,0-.11,2.32,14.46,14.46,0,0,0,.34,2.27l.29,1.12L768,236v.05a1.82,1.82,0,1,1-3.48,1.1,1.9,1.9,0,0,1-.08-.66l.07-1.32c0-.44.1-.88.15-1.32a17.6,17.6,0,0,1,.57-2.59,10.16,10.16,0,0,1,1.06-2.41A5.07,5.07,0,0,1,768.06,227Z"/><path d="M775.14,227.15a13.16,13.16,0,0,0-.85,4.74,12.16,12.16,0,0,0,.22,2.28,11.94,11.94,0,0,0,.6,2.11,2.08,2.08,0,1,1-3.91,1.41,2,2,0,0,1-.12-.82v0a16.13,16.13,0,0,1,.38-2.8,14.71,14.71,0,0,1,.85-2.58A14.08,14.08,0,0,1,775.14,227.15Z"/><g class="cls-9"><path d="M837.74,46.5,808.08,59.1A47.22,47.22,0,0,0,791.82,57c-.43,0-6.81,1-7.24,1,20.74,3.7,43.13,15.63,49.43,34.11,8.67,25.42.3,34.46-11.51,48.62,15.86-5.93,26.2-17,25.37-33.53a47.8,47.8,0,0,0-6.47-20.87c5.08-13.54,4.37-27.82,3.32-35.86A5.05,5.05,0,0,0,837.74,46.5Z"/></g><path d="M791.34,117.72a2.08,2.08,0,0,1-.61.2,2,2,0,0,1-2.23-1.66l-.84-5.69a2,2,0,0,1,1.66-2.23,2,2,0,0,1,2.23,1.66l.84,5.69A2,2,0,0,1,791.34,117.72Z"/><path d="M829.86,225.3a5.09,5.09,0,0,0-1,2.34,9.45,9.45,0,0,0-.12,2.49,15.69,15.69,0,0,0,.36,2.46l.31,1.21.37,1.19,0,0a2,2,0,1,1-3.76,1.18,2.17,2.17,0,0,1-.09-.71l.09-1.42c0-.48.11-1,.16-1.42a18.76,18.76,0,0,1,.62-2.79,10.62,10.62,0,0,1,1.15-2.6A5.4,5.4,0,0,1,829.86,225.3Z"/><path d="M836.89,226.1a13.18,13.18,0,0,0-.87,4.78,12.38,12.38,0,0,0,.21,2.3,13.39,13.39,0,0,0,.6,2.13,2.09,2.09,0,1,1-3.94,1.42,2,2,0,0,1-.12-.84v0a15.45,15.45,0,0,1,.39-2.82,15.05,15.05,0,0,1,3.73-6.94Z"/><circle cx="770.15" cy="97.49" r="8"/><circle class="cls-4" cx="766.05" cy="97.39" r="1.3"/><ellipse class="cls-4" cx="775.16" cy="99.15" rx="1" ry="1.5" transform="translate(32.96 343.8) rotate(-25.53)"/><circle cx="814.02" cy="95.31" r="8"/><circle class="cls-4" cx="818.95" cy="95.24" r="1.3"/><ellipse class="cls-4" cx="810.55" cy="98.54" rx="1.5" ry="1" transform="translate(450.82 831.54) rotate(-70.79)"/><path class="cls-13" d="M804.16,16.54c15.22,0,19.41,2.14,19.68,2.86,0,0-.59,2.33-12.28,5.65a204.1,204.1,0,0,1-31.17,5.74,228.78,228.78,0,0,1-25.22,1.56c-15.21,0-19.41-2.15-19.67-2.87,0,0,.59-2.33,12.28-5.64A204.1,204.1,0,0,1,779,18.1a228.75,228.75,0,0,1,25.21-1.56m0-1.48a230.11,230.11,0,0,0-25.38,1.57c-25.2,2.87-45.24,8.69-44.75,13,.31,2.71,8.69,4.18,21.14,4.18a230.14,230.14,0,0,0,25.39-1.57c25.2-2.87,45.24-8.69,44.74-13-.3-2.72-8.68-4.19-21.14-4.19Z"/><path class="cls-13" d="M746.44,6.48V7h0c8.74,0,23.09,2.49,38.41,6.67,25.83,7.05,42.81,15.71,41.89,19.07-.15.55-1.16,1.82-7.36,1.82-8.74,0-23.1-2.49-38.41-6.67a202.31,202.31,0,0,1-30.65-10.74c-8.84-4.12-11.61-7-11.25-8.33.15-.55,1.17-1.82,7.37-1.82V6.48m0,0c-4.59,0-7.44.7-7.84,2.18-1.14,4.19,17.77,13,42.24,19.67C796.68,32.65,811,35,819.38,35c4.59,0,7.43-.7,7.84-2.18,1.14-4.19-17.77-13-42.24-19.67-15.84-4.32-30.12-6.69-38.54-6.69Z"/><polygon class="cls-14" points="813.09 16.74 809.83 14.7 810.19 18.53 807.24 20.99 810.99 21.84 812.43 25.41 814.39 22.1 818.23 21.84 815.69 18.95 816.62 15.22 813.09 16.74"/><polygon class="cls-14" points="767.8 8.93 764.83 7.06 765.15 10.56 762.46 12.81 765.89 13.58 767.2 16.84 768.99 13.82 772.49 13.58 770.17 10.95 771.03 7.54 767.8 8.93"/><polygon class="cls-14" points="741.93 18.61 738.35 16.36 738.74 20.58 735.49 23.3 739.62 24.22 741.2 28.15 743.36 24.51 747.59 24.22 744.79 21.04 745.82 16.93 741.93 18.61"/></g></g></svg>